%TF.GenerationSoftware,KiCad,Pcbnew,8.0.4*%
%TF.CreationDate,2024-12-05T11:14:02-05:00*%
%TF.ProjectId,IMpack,494d7061-636b-42e6-9b69-6361645f7063,rev?*%
%TF.SameCoordinates,Original*%
%TF.FileFunction,Paste,Bot*%
%TF.FilePolarity,Positive*%
%FSLAX46Y46*%
G04 Gerber Fmt 4.6, Leading zero omitted, Abs format (unit mm)*
G04 Created by KiCad (PCBNEW 8.0.4) date 2024-12-05 11:14:02*
%MOMM*%
%LPD*%
G01*
G04 APERTURE LIST*
G04 Aperture macros list*
%AMRoundRect*
0 Rectangle with rounded corners*
0 $1 Rounding radius*
0 $2 $3 $4 $5 $6 $7 $8 $9 X,Y pos of 4 corners*
0 Add a 4 corners polygon primitive as box body*
4,1,4,$2,$3,$4,$5,$6,$7,$8,$9,$2,$3,0*
0 Add four circle primitives for the rounded corners*
1,1,$1+$1,$2,$3*
1,1,$1+$1,$4,$5*
1,1,$1+$1,$6,$7*
1,1,$1+$1,$8,$9*
0 Add four rect primitives between the rounded corners*
20,1,$1+$1,$2,$3,$4,$5,0*
20,1,$1+$1,$4,$5,$6,$7,0*
20,1,$1+$1,$6,$7,$8,$9,0*
20,1,$1+$1,$8,$9,$2,$3,0*%
G04 Aperture macros list end*
%ADD10RoundRect,0.147500X0.147500X0.172500X-0.147500X0.172500X-0.147500X-0.172500X0.147500X-0.172500X0*%
%ADD11RoundRect,0.135000X0.135000X0.185000X-0.135000X0.185000X-0.135000X-0.185000X0.135000X-0.185000X0*%
%ADD12RoundRect,0.150000X-0.150000X0.512500X-0.150000X-0.512500X0.150000X-0.512500X0.150000X0.512500X0*%
%ADD13RoundRect,0.140000X-0.170000X0.140000X-0.170000X-0.140000X0.170000X-0.140000X0.170000X0.140000X0*%
%ADD14RoundRect,0.225000X-0.250000X0.225000X-0.250000X-0.225000X0.250000X-0.225000X0.250000X0.225000X0*%
%ADD15RoundRect,0.218750X-0.218750X-0.256250X0.218750X-0.256250X0.218750X0.256250X-0.218750X0.256250X0*%
%ADD16RoundRect,0.135000X0.185000X-0.135000X0.185000X0.135000X-0.185000X0.135000X-0.185000X-0.135000X0*%
%ADD17RoundRect,0.147500X-0.172500X0.147500X-0.172500X-0.147500X0.172500X-0.147500X0.172500X0.147500X0*%
%ADD18RoundRect,0.135000X-0.135000X-0.185000X0.135000X-0.185000X0.135000X0.185000X-0.135000X0.185000X0*%
%ADD19RoundRect,0.140000X0.140000X0.170000X-0.140000X0.170000X-0.140000X-0.170000X0.140000X-0.170000X0*%
%ADD20RoundRect,0.140000X-0.140000X-0.170000X0.140000X-0.170000X0.140000X0.170000X-0.140000X0.170000X0*%
%ADD21RoundRect,0.087500X-0.087500X0.225000X-0.087500X-0.225000X0.087500X-0.225000X0.087500X0.225000X0*%
%ADD22RoundRect,0.087500X-0.225000X0.087500X-0.225000X-0.087500X0.225000X-0.087500X0.225000X0.087500X0*%
%ADD23RoundRect,0.218750X-0.256250X0.218750X-0.256250X-0.218750X0.256250X-0.218750X0.256250X0.218750X0*%
%ADD24RoundRect,0.135000X-0.185000X0.135000X-0.185000X-0.135000X0.185000X-0.135000X0.185000X0.135000X0*%
%ADD25RoundRect,0.225000X0.225000X0.250000X-0.225000X0.250000X-0.225000X-0.250000X0.225000X-0.250000X0*%
%ADD26RoundRect,0.147500X-0.147500X-0.172500X0.147500X-0.172500X0.147500X0.172500X-0.147500X0.172500X0*%
%ADD27RoundRect,0.075000X-0.075000X0.387500X-0.075000X-0.387500X0.075000X-0.387500X0.075000X0.387500X0*%
%ADD28RoundRect,0.075000X-0.325000X0.075000X-0.325000X-0.075000X0.325000X-0.075000X0.325000X0.075000X0*%
%ADD29RoundRect,0.250000X0.255000X0.255000X-0.255000X0.255000X-0.255000X-0.255000X0.255000X-0.255000X0*%
%ADD30RoundRect,0.062500X0.350000X0.062500X-0.350000X0.062500X-0.350000X-0.062500X0.350000X-0.062500X0*%
%ADD31RoundRect,0.062500X0.062500X0.350000X-0.062500X0.350000X-0.062500X-0.350000X0.062500X-0.350000X0*%
%ADD32RoundRect,0.140000X0.170000X-0.140000X0.170000X0.140000X-0.170000X0.140000X-0.170000X-0.140000X0*%
%ADD33RoundRect,0.225000X0.250000X-0.225000X0.250000X0.225000X-0.250000X0.225000X-0.250000X-0.225000X0*%
G04 APERTURE END LIST*
D10*
%TO.C,D501*%
X102385000Y-98000000D03*
X101415000Y-98000000D03*
%TD*%
D11*
%TO.C,R505*%
X113510000Y-99100000D03*
X112490000Y-99100000D03*
%TD*%
D12*
%TO.C,U202*%
X103750000Y-88462500D03*
X104700000Y-88462500D03*
X105650000Y-88462500D03*
X105650000Y-90737500D03*
X103750000Y-90737500D03*
%TD*%
D10*
%TO.C,L301*%
X91685000Y-99400000D03*
X90715000Y-99400000D03*
%TD*%
D13*
%TO.C,C701*%
X95600000Y-114905000D03*
X95600000Y-115865000D03*
%TD*%
D14*
%TO.C,C202*%
X102200000Y-89425000D03*
X102200000Y-90975000D03*
%TD*%
D15*
%TO.C,FB701*%
X92812500Y-115100000D03*
X94387500Y-115100000D03*
%TD*%
D16*
%TO.C,R203*%
X100400000Y-92710000D03*
X100400000Y-91690000D03*
%TD*%
D17*
%TO.C,D701*%
X96600000Y-114915000D03*
X96600000Y-115885000D03*
%TD*%
D13*
%TO.C,C601*%
X104400000Y-106220000D03*
X104400000Y-107180000D03*
%TD*%
D18*
%TO.C,R201*%
X93190000Y-90300000D03*
X94210000Y-90300000D03*
%TD*%
D13*
%TO.C,C604*%
X102400000Y-111220000D03*
X102400000Y-112180000D03*
%TD*%
D19*
%TO.C,C603*%
X105300000Y-108100000D03*
X104340000Y-108100000D03*
%TD*%
D16*
%TO.C,R209*%
X108700000Y-93710000D03*
X108700000Y-92690000D03*
%TD*%
D14*
%TO.C,C201*%
X100700000Y-87025000D03*
X100700000Y-88575000D03*
%TD*%
D17*
%TO.C,D703*%
X98600000Y-114915000D03*
X98600000Y-115885000D03*
%TD*%
D20*
%TO.C,C310*%
X90720000Y-101400000D03*
X91680000Y-101400000D03*
%TD*%
D17*
%TO.C,D504*%
X109900000Y-101315000D03*
X109900000Y-102285000D03*
%TD*%
D21*
%TO.C,U601*%
X101650000Y-106537500D03*
X102150000Y-106537500D03*
X102650000Y-106537500D03*
X103150000Y-106537500D03*
D22*
X103312500Y-107200000D03*
X103312500Y-107700000D03*
X103312500Y-108200000D03*
D21*
X103150000Y-108862500D03*
X102650000Y-108862500D03*
X102150000Y-108862500D03*
X101650000Y-108862500D03*
D22*
X101487500Y-108200000D03*
X101487500Y-107700000D03*
X101487500Y-107200000D03*
%TD*%
D23*
%TO.C,FB201*%
X99200000Y-85512500D03*
X99200000Y-87087500D03*
%TD*%
D18*
%TO.C,R602*%
X100490000Y-115800000D03*
X101510000Y-115800000D03*
%TD*%
D11*
%TO.C,R506*%
X113510000Y-98000000D03*
X112490000Y-98000000D03*
%TD*%
%TO.C,R306*%
X90010000Y-106500000D03*
X88990000Y-106500000D03*
%TD*%
D18*
%TO.C,R701*%
X93790000Y-113600000D03*
X94810000Y-113600000D03*
%TD*%
D11*
%TO.C,R504*%
X113610000Y-103400000D03*
X112590000Y-103400000D03*
%TD*%
D19*
%TO.C,C308*%
X101180000Y-96190000D03*
X100220000Y-96190000D03*
%TD*%
D11*
%TO.C,R204*%
X105210000Y-94700000D03*
X104190000Y-94700000D03*
%TD*%
D13*
%TO.C,C502*%
X114100000Y-100620000D03*
X114100000Y-101580000D03*
%TD*%
D24*
%TO.C,R307*%
X89100000Y-100690000D03*
X89100000Y-101710000D03*
%TD*%
D25*
%TO.C,C203*%
X103775000Y-92500000D03*
X102225000Y-92500000D03*
%TD*%
D13*
%TO.C,C602*%
X102400000Y-113220000D03*
X102400000Y-114180000D03*
%TD*%
D10*
%TO.C,D507*%
X110885000Y-98000000D03*
X109915000Y-98000000D03*
%TD*%
D14*
%TO.C,C501*%
X112900000Y-100325000D03*
X112900000Y-101875000D03*
%TD*%
D26*
%TO.C,D306*%
X89115000Y-102600000D03*
X90085000Y-102600000D03*
%TD*%
D17*
%TO.C,D702*%
X97600000Y-114915000D03*
X97600000Y-115885000D03*
%TD*%
D25*
%TO.C,C303*%
X97275000Y-107600000D03*
X95725000Y-107600000D03*
%TD*%
D11*
%TO.C,R507*%
X113510000Y-96800000D03*
X112490000Y-96800000D03*
%TD*%
D27*
%TO.C,U602*%
X103800000Y-111412500D03*
X104300000Y-111412500D03*
X104800000Y-111412500D03*
X105300000Y-111412500D03*
X105800000Y-111412500D03*
D28*
X106075000Y-112200000D03*
X106075000Y-112700000D03*
X106075000Y-113200000D03*
D27*
X105800000Y-113987500D03*
X105300000Y-113987500D03*
X104800000Y-113987500D03*
X104300000Y-113987500D03*
X103800000Y-113987500D03*
D28*
X103525000Y-113200000D03*
X103525000Y-112700000D03*
X103525000Y-112200000D03*
%TD*%
D16*
%TO.C,R702*%
X99600000Y-115910000D03*
X99600000Y-114890000D03*
%TD*%
D18*
%TO.C,R202*%
X93190000Y-91300000D03*
X94210000Y-91300000D03*
%TD*%
D23*
%TO.C,FB501*%
X114800000Y-97812500D03*
X114800000Y-99387500D03*
%TD*%
D16*
%TO.C,R207*%
X109700000Y-93710000D03*
X109700000Y-92690000D03*
%TD*%
D17*
%TO.C,D305*%
X89000000Y-107515000D03*
X89000000Y-108485000D03*
%TD*%
D10*
%TO.C,D503*%
X110885000Y-103400000D03*
X109915000Y-103400000D03*
%TD*%
D17*
%TO.C,D304*%
X89000000Y-104515000D03*
X89000000Y-105485000D03*
%TD*%
D11*
%TO.C,R206*%
X105210000Y-93700000D03*
X104190000Y-93700000D03*
%TD*%
D29*
%TO.C,U201*%
X97925000Y-91125000D03*
X97925000Y-89875000D03*
X96675000Y-91125000D03*
X96675000Y-89875000D03*
D30*
X99237500Y-89500000D03*
X99237500Y-90000000D03*
X99237500Y-90500000D03*
X99237500Y-91000000D03*
X99237500Y-91500000D03*
D31*
X98300000Y-92437500D03*
X97800000Y-92437500D03*
X97300000Y-92437500D03*
X96800000Y-92437500D03*
X96300000Y-92437500D03*
D30*
X95362500Y-91500000D03*
X95362500Y-91000000D03*
X95362500Y-90500000D03*
X95362500Y-90000000D03*
X95362500Y-89500000D03*
D31*
X96300000Y-88562500D03*
X96800000Y-88562500D03*
X97300000Y-88562500D03*
X97800000Y-88562500D03*
X98300000Y-88562500D03*
%TD*%
D10*
%TO.C,D508*%
X110885000Y-96800000D03*
X109915000Y-96800000D03*
%TD*%
D32*
%TO.C,C606*%
X110900000Y-108480000D03*
X110900000Y-107520000D03*
%TD*%
D33*
%TO.C,C305*%
X98000000Y-97575000D03*
X98000000Y-96025000D03*
%TD*%
D16*
%TO.C,R208*%
X107700000Y-93710000D03*
X107700000Y-92690000D03*
%TD*%
D11*
%TO.C,R503*%
X113610000Y-104500000D03*
X112590000Y-104500000D03*
%TD*%
D10*
%TO.C,D502*%
X110885000Y-104500000D03*
X109915000Y-104500000D03*
%TD*%
D13*
%TO.C,C605*%
X110900000Y-105520000D03*
X110900000Y-106480000D03*
%TD*%
D17*
%TO.C,D506*%
X115100000Y-100615000D03*
X115100000Y-101585000D03*
%TD*%
D24*
%TO.C,R305*%
X90100000Y-103490000D03*
X90100000Y-104510000D03*
%TD*%
D11*
%TO.C,R501*%
X108910000Y-101300000D03*
X107890000Y-101300000D03*
%TD*%
D10*
%TO.C,D505*%
X110885000Y-99100000D03*
X109915000Y-99100000D03*
%TD*%
D20*
%TO.C,C309*%
X90720000Y-100400000D03*
X91680000Y-100400000D03*
%TD*%
D33*
%TO.C,C204*%
X93800000Y-88975000D03*
X93800000Y-87425000D03*
%TD*%
D21*
%TO.C,U603*%
X108150000Y-105837500D03*
X108650000Y-105837500D03*
X109150000Y-105837500D03*
X109650000Y-105837500D03*
D22*
X109812500Y-106500000D03*
X109812500Y-107000000D03*
X109812500Y-107500000D03*
D21*
X109650000Y-108162500D03*
X109150000Y-108162500D03*
X108650000Y-108162500D03*
X108150000Y-108162500D03*
D22*
X107987500Y-107500000D03*
X107987500Y-107000000D03*
X107987500Y-106500000D03*
%TD*%
D11*
%TO.C,R205*%
X105210000Y-95700000D03*
X104190000Y-95700000D03*
%TD*%
D24*
%TO.C,R502*%
X104200000Y-96990000D03*
X104200000Y-98010000D03*
%TD*%
M02*
