%TF.GenerationSoftware,KiCad,Pcbnew,8.0.4*%
%TF.CreationDate,2024-12-05T11:14:02-05:00*%
%TF.ProjectId,IMpack,494d7061-636b-42e6-9b69-6361645f7063,rev?*%
%TF.SameCoordinates,Original*%
%TF.FileFunction,Legend,Bot*%
%TF.FilePolarity,Positive*%
%FSLAX46Y46*%
G04 Gerber Fmt 4.6, Leading zero omitted, Abs format (unit mm)*
G04 Created by KiCad (PCBNEW 8.0.4) date 2024-12-05 11:14:02*
%MOMM*%
%LPD*%
G01*
G04 APERTURE LIST*
G04 Aperture macros list*
%AMRoundRect*
0 Rectangle with rounded corners*
0 $1 Rounding radius*
0 $2 $3 $4 $5 $6 $7 $8 $9 X,Y pos of 4 corners*
0 Add a 4 corners polygon primitive as box body*
4,1,4,$2,$3,$4,$5,$6,$7,$8,$9,$2,$3,0*
0 Add four circle primitives for the rounded corners*
1,1,$1+$1,$2,$3*
1,1,$1+$1,$4,$5*
1,1,$1+$1,$6,$7*
1,1,$1+$1,$8,$9*
0 Add four rect primitives between the rounded corners*
20,1,$1+$1,$2,$3,$4,$5,0*
20,1,$1+$1,$4,$5,$6,$7,0*
20,1,$1+$1,$6,$7,$8,$9,0*
20,1,$1+$1,$8,$9,$2,$3,0*%
%AMFreePoly0*
4,1,288,-10.746393,17.152804,-10.619479,17.114421,-10.619480,17.114421,-9.851444,16.755480,-9.100467,16.362094,-8.670236,16.111240,-8.641224,16.098534,-8.641224,16.098533,-8.592336,16.065819,-8.368095,15.935071,-7.655832,15.475290,-6.965142,14.983695,-6.297446,14.461297,-5.654115,13.909170,-5.036473,13.328450,-4.445789,12.720329,-3.883278,12.086059,-3.350096,11.426942,-2.847339,10.744335,-2.376040,10.039640,
-2.067886,9.530344,-2.057458,9.514761,-2.057457,9.514762,-2.054834,9.508774,-1.937169,9.314305,-1.531627,8.569823,-1.160249,7.807723,-0.823798,7.029572,-0.522965,6.236971,-0.258369,5.431547,-0.030554,4.614958,0.160012,3.788881,0.312937,2.955016,0.427907,2.115076,0.504685,1.270787,0.543114,0.423886,0.543114,-0.423886,0.504685,-1.270787,0.427907,-2.115076,0.312937,-2.955016,
0.160012,-3.788881,-0.030554,-4.614958,-0.258369,-5.431547,-0.522965,-6.236971,-0.823798,-7.029572,-1.160249,-7.807723,-1.531627,-8.569823,-1.937169,-9.314305,-2.054889,-9.508865,-2.057469,-9.514755,-2.057470,-9.514754,-2.067728,-9.530084,-2.376040,-10.039640,-2.847339,-10.744335,-3.350096,-11.426942,-3.883278,-12.086059,-4.445789,-12.720329,-5.036473,-13.328450,-5.654115,-13.909170,-6.297446,-14.461297,
-6.965142,-14.983695,-7.655832,-15.475290,-8.368095,-15.935071,-8.592373,-16.065840,-8.641226,-16.098531,-8.670211,-16.111225,-9.100467,-16.362094,-9.851444,-16.755480,-10.619480,-17.114421,-10.619479,-17.114421,-10.746393,-17.152804,-10.878804,-17.159699,-11.009017,-17.134705,-11.129465,-17.079276,-11.233148,-16.996632,-11.314041,-16.891576,-11.367441,-16.770215,-11.390246,-16.639600,-11.381130,-16.507324,-11.340623,-16.381072,
-11.271079,-16.268184,-11.176540,-16.175218,-11.062501,-16.107579,-11.062501,-16.107578,-10.689941,-15.943637,-9.960769,-15.581673,-9.249112,-15.186383,-9.234481,-15.177346,-9.200754,-15.151469,-9.200754,-15.151468,-9.096444,-15.089842,-8.905697,-14.940412,-8.736086,-14.767364,-8.590513,-14.573657,-8.471469,-14.362607,-8.380991,-14.137824,-8.320627,-13.903154,-8.291410,-13.662613,-8.293840,-13.420316,-8.327875,-13.180409,
-8.392933,-12.946997,-8.487900,-12.724074,-8.549526,-12.619763,-8.602717,-12.498310,-8.625297,-12.367657,-8.615954,-12.235396,-8.575230,-12.109215,-8.505492,-11.996446,-8.410793,-11.903643,-8.296637,-11.836200,-8.169657,-11.798036,-8.037235,-11.791369,-7.907065,-11.816587,-7.786712,-11.872224,-7.683171,-11.955046,-7.602460,-12.060241,-7.450503,-12.353896,-7.332379,-12.662719,-7.249576,-12.982825,-7.203134,-13.310190,
-7.195934,-13.560702,-7.155990,-13.549999,-7.080989,-13.570095,-7.026085,-13.625000,-7.023487,-13.634692,-6.607446,-13.289902,-6.005334,-12.742022,-5.429197,-12.166891,-4.880268,-11.565736,-4.520196,-11.132796,-4.530992,-11.129904,-4.585896,-11.075000,-4.605992,-10.999999,-4.595288,-10.960053,-4.845802,-10.952856,-5.173166,-10.906415,-5.493272,-10.823612,-5.802095,-10.705489,-6.095750,-10.553533,-6.095751,-10.553533,
-6.200945,-10.472822,-6.283768,-10.369282,-6.339405,-10.248929,-6.364623,-10.118759,-6.357956,-9.986336,-6.319792,-9.859357,-6.252349,-9.745201,-6.159547,-9.650502,-6.046778,-9.580764,-5.920597,-9.540039,-5.788336,-9.530696,-5.657683,-9.553275,-5.536229,-9.606467,-5.536229,-9.606466,-5.431919,-9.668091,-5.208996,-9.763058,-4.975584,-9.828115,-4.735678,-9.862149,-4.493382,-9.864578,-4.252842,-9.835361,
-4.018173,-9.774996,-3.793391,-9.684518,-3.582342,-9.565473,-3.388636,-9.419900,-3.215590,-9.250289,-3.066162,-9.059541,-3.004536,-8.955231,-3.004535,-8.955231,-2.968551,-8.908332,-2.582646,-8.216419,-2.219410,-7.487880,-1.890246,-6.743326,-1.595858,-5.984349,-1.336876,-5.212573,-1.113854,-4.429648,-0.927269,-3.637249,-0.777519,-2.837071,-0.664926,-2.030824,-0.589730,-1.220235,-0.552092,-0.407035,
-0.552092,0.407035,-0.589730,1.220235,-0.664926,2.030824,-0.777519,2.837071,-0.927269,3.637249,-1.113854,4.429648,-1.336876,5.212573,-1.595858,5.984349,-1.890246,6.743326,-2.219410,7.487880,-2.582646,8.216419,-2.968599,8.908417,-3.004523,8.955238,-3.066150,9.059549,-3.215579,9.250298,-3.388627,9.419910,-3.582334,9.565485,-3.793385,9.684530,-4.018169,9.775009,-4.252839,9.835374,
-4.493381,9.864592,-4.735679,9.862163,-4.975588,9.828129,-5.209001,9.763072,-5.431926,9.668104,-5.536237,9.606478,-5.657690,9.553287,-5.788344,9.530708,-5.920604,9.540052,-6.046786,9.580776,-6.159554,9.650514,-6.252357,9.745213,-6.319799,9.859370,-6.357963,9.986349,-6.364630,10.118771,-6.339412,10.248942,-6.283775,10.369294,-6.200952,10.472835,-6.095757,10.553546,-5.802101,10.705503,
-5.493276,10.823626,-5.173169,10.906429,-4.845803,10.952870,-4.595292,10.960067,-4.605992,10.999999,-4.585896,11.074999,-4.530991,11.129904,-4.520196,11.132796,-4.880268,11.565736,-5.429197,12.166891,-6.005334,12.742022,-6.607446,13.289902,-7.023487,13.634692,-7.026085,13.624999,-7.080989,13.570095,-7.155990,13.549999,-7.195931,13.560701,-7.203131,13.310189,-7.249573,12.982824,-7.332377,12.662717,
-7.450500,12.353894,-7.602458,12.060239,-7.602457,12.060238,-7.683168,11.955044,-7.786709,11.872222,-7.907062,11.816585,-8.037232,11.791367,-8.169655,11.798034,-8.296634,11.836198,-8.410790,11.903641,-8.505489,11.996444,-8.575227,12.109213,-8.615951,12.235394,-8.625294,12.367655,-8.602714,12.498308,-8.549523,12.619762,-8.549524,12.619762,-8.487898,12.724073,-8.392930,12.946996,-8.327872,13.180409,
-8.293837,13.420316,-8.291407,13.662613,-8.320624,13.903154,-8.380988,14.137824,-8.471466,14.362608,-8.590510,14.573658,-8.736083,14.767365,-8.905695,14.940413,-9.096442,15.089843,-9.200752,15.151470,-9.234464,15.177336,-9.249112,15.186383,-9.960769,15.581673,-10.689941,15.943637,-11.062501,16.107578,-11.062501,16.107579,-11.176540,16.175218,-11.271079,16.268184,-11.340623,16.381072,-11.381130,16.507324,
-11.390246,16.639600,-11.367441,16.770215,-11.314041,16.891576,-11.233148,16.996632,-11.129465,17.079276,-11.009017,17.134705,-10.878804,17.159699,-10.746393,17.152804,-10.746393,17.152804,$1*%
G04 Aperture macros list end*
%ADD10C,0.150000*%
%ADD11C,0.200000*%
%ADD12C,0.120000*%
%ADD13C,0.000000*%
%ADD14C,4.400000*%
%ADD15C,0.990600*%
%ADD16O,1.070000X1.900000*%
%ADD17C,1.300000*%
%ADD18RoundRect,0.147500X0.147500X0.172500X-0.147500X0.172500X-0.147500X-0.172500X0.147500X-0.172500X0*%
%ADD19RoundRect,0.135000X0.135000X0.185000X-0.135000X0.185000X-0.135000X-0.185000X0.135000X-0.185000X0*%
%ADD20RoundRect,0.150000X-0.150000X0.512500X-0.150000X-0.512500X0.150000X-0.512500X0.150000X0.512500X0*%
%ADD21RoundRect,0.140000X-0.170000X0.140000X-0.170000X-0.140000X0.170000X-0.140000X0.170000X0.140000X0*%
%ADD22RoundRect,0.225000X-0.250000X0.225000X-0.250000X-0.225000X0.250000X-0.225000X0.250000X0.225000X0*%
%ADD23RoundRect,0.218750X-0.218750X-0.256250X0.218750X-0.256250X0.218750X0.256250X-0.218750X0.256250X0*%
%ADD24RoundRect,0.135000X0.185000X-0.135000X0.185000X0.135000X-0.185000X0.135000X-0.185000X-0.135000X0*%
%ADD25RoundRect,0.147500X-0.172500X0.147500X-0.172500X-0.147500X0.172500X-0.147500X0.172500X0.147500X0*%
%ADD26RoundRect,0.135000X-0.135000X-0.185000X0.135000X-0.185000X0.135000X0.185000X-0.135000X0.185000X0*%
%ADD27RoundRect,0.140000X0.140000X0.170000X-0.140000X0.170000X-0.140000X-0.170000X0.140000X-0.170000X0*%
%ADD28RoundRect,0.140000X-0.140000X-0.170000X0.140000X-0.170000X0.140000X0.170000X-0.140000X0.170000X0*%
%ADD29RoundRect,0.087500X-0.087500X0.225000X-0.087500X-0.225000X0.087500X-0.225000X0.087500X0.225000X0*%
%ADD30RoundRect,0.087500X-0.225000X0.087500X-0.225000X-0.087500X0.225000X-0.087500X0.225000X0.087500X0*%
%ADD31RoundRect,0.218750X-0.256250X0.218750X-0.256250X-0.218750X0.256250X-0.218750X0.256250X0.218750X0*%
%ADD32RoundRect,0.135000X-0.185000X0.135000X-0.185000X-0.135000X0.185000X-0.135000X0.185000X0.135000X0*%
%ADD33RoundRect,0.225000X0.225000X0.250000X-0.225000X0.250000X-0.225000X-0.250000X0.225000X-0.250000X0*%
%ADD34FreePoly0,180.000000*%
%ADD35RoundRect,0.147500X-0.147500X-0.172500X0.147500X-0.172500X0.147500X0.172500X-0.147500X0.172500X0*%
%ADD36RoundRect,0.075000X-0.075000X0.387500X-0.075000X-0.387500X0.075000X-0.387500X0.075000X0.387500X0*%
%ADD37RoundRect,0.075000X-0.325000X0.075000X-0.325000X-0.075000X0.325000X-0.075000X0.325000X0.075000X0*%
%ADD38FreePoly0,0.000000*%
%ADD39RoundRect,0.062500X0.350000X0.062500X-0.350000X0.062500X-0.350000X-0.062500X0.350000X-0.062500X0*%
%ADD40RoundRect,0.062500X0.062500X0.350000X-0.062500X0.350000X-0.062500X-0.350000X0.062500X-0.350000X0*%
%ADD41R,2.500000X2.500000*%
%ADD42RoundRect,0.140000X0.170000X-0.140000X0.170000X0.140000X-0.170000X0.140000X-0.170000X-0.140000X0*%
%ADD43RoundRect,0.225000X0.250000X-0.225000X0.250000X0.225000X-0.250000X0.225000X-0.250000X-0.225000X0*%
G04 APERTURE END LIST*
D10*
X107400000Y-110612132D02*
X107400000Y-112187868D01*
D11*
X107500000Y-110187868D02*
G75*
G02*
X107300000Y-110187868I-100000J0D01*
G01*
X107300000Y-110187868D02*
G75*
G02*
X107500000Y-110187868I100000J0D01*
G01*
D10*
X107824264Y-110187868D02*
G75*
G02*
X106975736Y-110187868I-424264J0D01*
G01*
X106975736Y-110187868D02*
G75*
G02*
X107824264Y-110187868I424264J0D01*
G01*
X106975736Y-110187868D02*
X105400000Y-110187868D01*
G36*
X107114221Y-101776000D02*
G01*
X106864312Y-101776000D01*
X106864312Y-101450863D01*
X106842233Y-101450863D01*
X106817723Y-101453474D01*
X106781270Y-101469426D01*
X106757275Y-101495983D01*
X106736133Y-101531170D01*
X106603265Y-101776000D01*
X106321898Y-101776000D01*
X106442260Y-101546020D01*
X106453283Y-101527620D01*
X106477236Y-101495609D01*
X106489460Y-101480612D01*
X106516901Y-101452622D01*
X106543279Y-101437723D01*
X106581772Y-101422727D01*
X106571575Y-101420324D01*
X106532191Y-101408561D01*
X106494431Y-101391073D01*
X106470764Y-101374892D01*
X106440300Y-101346361D01*
X106415882Y-101312720D01*
X106399529Y-101277369D01*
X106389964Y-101237678D01*
X106388603Y-101218344D01*
X106637264Y-101218344D01*
X106637814Y-101227957D01*
X106652896Y-101264848D01*
X106658005Y-101270765D01*
X106693342Y-101289859D01*
X106718316Y-101295148D01*
X106759385Y-101300801D01*
X106864312Y-101300801D01*
X106864312Y-101138233D01*
X106754891Y-101138233D01*
X106742488Y-101138415D01*
X106700535Y-101142784D01*
X106662079Y-101158944D01*
X106646012Y-101178739D01*
X106637264Y-101218344D01*
X106388603Y-101218344D01*
X106387159Y-101197828D01*
X106387489Y-101183707D01*
X106392435Y-101143798D01*
X106404891Y-101103769D01*
X106424675Y-101068281D01*
X106450309Y-101038243D01*
X106483840Y-101012827D01*
X106522958Y-100995399D01*
X106530792Y-100993010D01*
X106571312Y-100984164D01*
X106614571Y-100978922D01*
X106658012Y-100976358D01*
X106699399Y-100975665D01*
X107114221Y-100975665D01*
X107114221Y-101776000D01*
G37*
G36*
X106247452Y-100975665D02*
G01*
X105580376Y-100975665D01*
X105580376Y-101163243D01*
X105997934Y-101163243D01*
X105997934Y-101275790D01*
X105610467Y-101275790D01*
X105610467Y-101438358D01*
X105997934Y-101438358D01*
X105997934Y-101588421D01*
X105568262Y-101588421D01*
X105568262Y-101776000D01*
X106247452Y-101776000D01*
X106247452Y-100975665D01*
G37*
G36*
X105518436Y-100975665D02*
G01*
X105257976Y-100975665D01*
X105076650Y-101551687D01*
X104898060Y-100975665D01*
X104645219Y-100975665D01*
X104944173Y-101776000D01*
X105214012Y-101776000D01*
X105518436Y-100975665D01*
G37*
G36*
X103723545Y-100963159D02*
G01*
X103723545Y-101776000D01*
X103950006Y-101776000D01*
X103950006Y-101243745D01*
X103983979Y-101268784D01*
X104017265Y-101290655D01*
X104053086Y-101311055D01*
X104056301Y-101312720D01*
X104094701Y-101330601D01*
X104134940Y-101346415D01*
X104175495Y-101360290D01*
X104185066Y-101363327D01*
X104185066Y-101175748D01*
X104144001Y-101161678D01*
X104106536Y-101146577D01*
X104067375Y-101127656D01*
X104033115Y-101107334D01*
X104007648Y-101088798D01*
X103977801Y-101061821D01*
X103951374Y-101031889D01*
X103928367Y-100999002D01*
X103908778Y-100963159D01*
X103723545Y-100963159D01*
G37*
G36*
X103462302Y-101550905D02*
G01*
X103223335Y-101550905D01*
X103223335Y-101776000D01*
X103462302Y-101776000D01*
X103462302Y-101550905D01*
G37*
G36*
X102797673Y-100963515D02*
G01*
X102837277Y-100966360D01*
X102882987Y-100973919D01*
X102924480Y-100985923D01*
X102961755Y-101002373D01*
X102994814Y-101023269D01*
X103028918Y-101054213D01*
X103048289Y-101079062D01*
X103068872Y-101116125D01*
X103085418Y-101159856D01*
X103095750Y-101199644D01*
X103103498Y-101243699D01*
X103108664Y-101292022D01*
X103110843Y-101331066D01*
X103111570Y-101372510D01*
X103111554Y-101378283D01*
X103110556Y-101417817D01*
X103107515Y-101461122D01*
X103102447Y-101502423D01*
X103095352Y-101541722D01*
X103094326Y-101546465D01*
X103083956Y-101586323D01*
X103070042Y-101624627D01*
X103050020Y-101662280D01*
X103036950Y-101680911D01*
X103010633Y-101710793D01*
X102980731Y-101735976D01*
X102947243Y-101756460D01*
X102943285Y-101758432D01*
X102904245Y-101773359D01*
X102864378Y-101782371D01*
X102825508Y-101786971D01*
X102782916Y-101788505D01*
X102760669Y-101788112D01*
X102718684Y-101784967D01*
X102670907Y-101776614D01*
X102628360Y-101763348D01*
X102591040Y-101745168D01*
X102558949Y-101722074D01*
X102527341Y-101687877D01*
X102514071Y-101667949D01*
X102494856Y-101630187D01*
X102479267Y-101586738D01*
X102469406Y-101547885D01*
X102461865Y-101505393D01*
X102456644Y-101459262D01*
X102453744Y-101409491D01*
X102453274Y-101380912D01*
X102675645Y-101380912D01*
X102675936Y-101413342D01*
X102677321Y-101454048D01*
X102680778Y-101498333D01*
X102687564Y-101540159D01*
X102688310Y-101543319D01*
X102701474Y-101581958D01*
X102724298Y-101614799D01*
X102744320Y-101629206D01*
X102783307Y-101638442D01*
X102801859Y-101636484D01*
X102838415Y-101616689D01*
X102862247Y-101582755D01*
X102875376Y-101543811D01*
X102882616Y-101502985D01*
X102886754Y-101460654D01*
X102888743Y-101420204D01*
X102889406Y-101375050D01*
X102888805Y-101330347D01*
X102887002Y-101290271D01*
X102883251Y-101248288D01*
X102876688Y-101207730D01*
X102864787Y-101168909D01*
X102854403Y-101149984D01*
X102824504Y-101122413D01*
X102784480Y-101113222D01*
X102761938Y-101115840D01*
X102727021Y-101134593D01*
X102702805Y-101167933D01*
X102689676Y-101206820D01*
X102682435Y-101248435D01*
X102678297Y-101292023D01*
X102676308Y-101333930D01*
X102675645Y-101380912D01*
X102453274Y-101380912D01*
X102453091Y-101369775D01*
X102453442Y-101345665D01*
X102455746Y-101304046D01*
X102460201Y-101263156D01*
X102466806Y-101222995D01*
X102475561Y-101183564D01*
X102477032Y-101177772D01*
X102488995Y-101139747D01*
X102506238Y-101101694D01*
X102507436Y-101099499D01*
X102530346Y-101065262D01*
X102558213Y-101034674D01*
X102573510Y-101021319D01*
X102606878Y-100999594D01*
X102643405Y-100983090D01*
X102653443Y-100979528D01*
X102694626Y-100969465D01*
X102733440Y-100964736D01*
X102776859Y-100963159D01*
X102797673Y-100963515D01*
G37*
G36*
X107120279Y-102319665D02*
G01*
X106792798Y-102319665D01*
X106666378Y-102804633D01*
X106540544Y-102319665D01*
X106214040Y-102319665D01*
X106214040Y-103120000D01*
X106417445Y-103120000D01*
X106417445Y-102505680D01*
X106575129Y-103120000D01*
X106759190Y-103120000D01*
X106916482Y-102505680D01*
X106916482Y-103120000D01*
X107120279Y-103120000D01*
X107120279Y-102319665D01*
G37*
G36*
X105818468Y-102520567D02*
G01*
X105858777Y-102523794D01*
X105900432Y-102530104D01*
X105910339Y-102532123D01*
X105948548Y-102542658D01*
X105985038Y-102559609D01*
X105992921Y-102564604D01*
X106025031Y-102590185D01*
X106050886Y-102621744D01*
X106061559Y-102641284D01*
X106076090Y-102680120D01*
X106085666Y-102719832D01*
X105871905Y-102744842D01*
X105861823Y-102719726D01*
X105837320Y-102688960D01*
X105833769Y-102686641D01*
X105794960Y-102672971D01*
X105754863Y-102669811D01*
X105732739Y-102671140D01*
X105694877Y-102686615D01*
X105683257Y-102705935D01*
X105677878Y-102744842D01*
X105680487Y-102745826D01*
X105718569Y-102759155D01*
X105757013Y-102770439D01*
X105793130Y-102778887D01*
X105832535Y-102787207D01*
X105876091Y-102795989D01*
X105920167Y-102804633D01*
X105951400Y-102811438D01*
X105989694Y-102822695D01*
X106029613Y-102840136D01*
X106064173Y-102865987D01*
X106083063Y-102890971D01*
X106098634Y-102929860D01*
X106103251Y-102971109D01*
X106103040Y-102979572D01*
X106095640Y-103019323D01*
X106077669Y-103054799D01*
X106049127Y-103086001D01*
X106014695Y-103108481D01*
X105977393Y-103122287D01*
X105933789Y-103130279D01*
X105890467Y-103132505D01*
X105875908Y-103132292D01*
X105834248Y-103129098D01*
X105791514Y-103121053D01*
X105752519Y-103108276D01*
X105728072Y-103096043D01*
X105695333Y-103073819D01*
X105665177Y-103047508D01*
X105657557Y-103085219D01*
X105640949Y-103120000D01*
X105431095Y-103120000D01*
X105440884Y-103098441D01*
X105453956Y-103060013D01*
X105457429Y-103036056D01*
X105459036Y-102995143D01*
X105459036Y-102889630D01*
X105677878Y-102889630D01*
X105679195Y-102911928D01*
X105691360Y-102951179D01*
X105704110Y-102967775D01*
X105737083Y-102991039D01*
X105766131Y-103002259D01*
X105806448Y-103007452D01*
X105823239Y-103006512D01*
X105860572Y-102992407D01*
X105863854Y-102989474D01*
X105878939Y-102953328D01*
X105878866Y-102950732D01*
X105860181Y-102916008D01*
X105851674Y-102910052D01*
X105814961Y-102894983D01*
X105774012Y-102883768D01*
X105755392Y-102879328D01*
X105715990Y-102868907D01*
X105677878Y-102857390D01*
X105677878Y-102889630D01*
X105459036Y-102889630D01*
X105459036Y-102735854D01*
X105459182Y-102728051D01*
X105464292Y-102687955D01*
X105475645Y-102648904D01*
X105476683Y-102646067D01*
X105495087Y-102608408D01*
X105520586Y-102578367D01*
X105545070Y-102560091D01*
X105582764Y-102541782D01*
X105622386Y-102531081D01*
X105655347Y-102526123D01*
X105698354Y-102522238D01*
X105741850Y-102520291D01*
X105783977Y-102519748D01*
X105818468Y-102520567D01*
G37*
G36*
X105394166Y-102532254D02*
G01*
X105157934Y-102532254D01*
X105037571Y-102923628D01*
X104926001Y-102532254D01*
X104705596Y-102532254D01*
X104936943Y-103160251D01*
X104951865Y-103197892D01*
X104969397Y-103235643D01*
X104989592Y-103270659D01*
X105015078Y-103302235D01*
X105017641Y-103304647D01*
X105050650Y-103327814D01*
X105091256Y-103344361D01*
X105133016Y-103353410D01*
X105173440Y-103357134D01*
X105195254Y-103357599D01*
X105234692Y-103356075D01*
X105276267Y-103352561D01*
X105320255Y-103347725D01*
X105344731Y-103344703D01*
X105362316Y-103191318D01*
X105321265Y-103201819D01*
X105280109Y-103206760D01*
X105254654Y-103207536D01*
X105214853Y-103201725D01*
X105190565Y-103189169D01*
X105164179Y-103157094D01*
X105149141Y-103123321D01*
X105394166Y-102532254D01*
G37*
G36*
X103638157Y-103120000D02*
G01*
X104309727Y-103120000D01*
X104302440Y-103076545D01*
X104290664Y-103034231D01*
X104274401Y-102993058D01*
X104253649Y-102953026D01*
X104239776Y-102930662D01*
X104214195Y-102896327D01*
X104187378Y-102866193D01*
X104155561Y-102834675D01*
X104126509Y-102808465D01*
X104094256Y-102781369D01*
X104058804Y-102753388D01*
X104020153Y-102724521D01*
X103985724Y-102698780D01*
X103951877Y-102671839D01*
X103921530Y-102645125D01*
X103894319Y-102615491D01*
X103874544Y-102581362D01*
X103866769Y-102544759D01*
X103876343Y-102505390D01*
X103893928Y-102482819D01*
X103928934Y-102462121D01*
X103962316Y-102457222D01*
X104001346Y-102464159D01*
X104032463Y-102484968D01*
X104054018Y-102520070D01*
X104065637Y-102561506D01*
X104069002Y-102582274D01*
X104293314Y-102563712D01*
X104286454Y-102524414D01*
X104276049Y-102484380D01*
X104261074Y-102445560D01*
X104244856Y-102416580D01*
X104220070Y-102385909D01*
X104189673Y-102360084D01*
X104153666Y-102339106D01*
X104145792Y-102335491D01*
X104105846Y-102321796D01*
X104063800Y-102313385D01*
X104021960Y-102308930D01*
X103982347Y-102307270D01*
X103968374Y-102307159D01*
X103925958Y-102308094D01*
X103881126Y-102311545D01*
X103841306Y-102317540D01*
X103801934Y-102327505D01*
X103784703Y-102333733D01*
X103746315Y-102352986D01*
X103713460Y-102377773D01*
X103686139Y-102408093D01*
X103681339Y-102414822D01*
X103661453Y-102450313D01*
X103648931Y-102488400D01*
X103643776Y-102529081D01*
X103643628Y-102537529D01*
X103647044Y-102577591D01*
X103657291Y-102616664D01*
X103674370Y-102654747D01*
X103686810Y-102675478D01*
X103712810Y-102709207D01*
X103742793Y-102740043D01*
X103773865Y-102767457D01*
X103809897Y-102795777D01*
X103843712Y-102820069D01*
X103878201Y-102843719D01*
X103910741Y-102866704D01*
X103934180Y-102884354D01*
X103963988Y-102910160D01*
X103987718Y-102932421D01*
X103638157Y-102932421D01*
X103638157Y-103120000D01*
G37*
G36*
X103233012Y-102307515D02*
G01*
X103272616Y-102310360D01*
X103318325Y-102317919D01*
X103359818Y-102329923D01*
X103397094Y-102346373D01*
X103430152Y-102367269D01*
X103464256Y-102398213D01*
X103483628Y-102423062D01*
X103504210Y-102460125D01*
X103520757Y-102503856D01*
X103531088Y-102543644D01*
X103538837Y-102587699D01*
X103544002Y-102636022D01*
X103546182Y-102675066D01*
X103546908Y-102716510D01*
X103546892Y-102722283D01*
X103545894Y-102761817D01*
X103542854Y-102805122D01*
X103537786Y-102846423D01*
X103530690Y-102885722D01*
X103529664Y-102890465D01*
X103519295Y-102930323D01*
X103505381Y-102968627D01*
X103485359Y-103006280D01*
X103472288Y-103024911D01*
X103445972Y-103054793D01*
X103416069Y-103079976D01*
X103382581Y-103100460D01*
X103378623Y-103102432D01*
X103339583Y-103117359D01*
X103299717Y-103126371D01*
X103260846Y-103130971D01*
X103218255Y-103132505D01*
X103196007Y-103132112D01*
X103154022Y-103128967D01*
X103106246Y-103120614D01*
X103063698Y-103107348D01*
X103026378Y-103089168D01*
X102994287Y-103066074D01*
X102962679Y-103031877D01*
X102949410Y-103011949D01*
X102930195Y-102974187D01*
X102914605Y-102930738D01*
X102904744Y-102891885D01*
X102897203Y-102849393D01*
X102891982Y-102803262D01*
X102889082Y-102753491D01*
X102888612Y-102724912D01*
X103110983Y-102724912D01*
X103111274Y-102757342D01*
X103112660Y-102798048D01*
X103116117Y-102842333D01*
X103122903Y-102884159D01*
X103123648Y-102887319D01*
X103136813Y-102925958D01*
X103159637Y-102958799D01*
X103179658Y-102973206D01*
X103218646Y-102982442D01*
X103237197Y-102980484D01*
X103273753Y-102960689D01*
X103297585Y-102926755D01*
X103310714Y-102887811D01*
X103317955Y-102846985D01*
X103322092Y-102804654D01*
X103324082Y-102764204D01*
X103324745Y-102719050D01*
X103324144Y-102674347D01*
X103322341Y-102634271D01*
X103318590Y-102592288D01*
X103312026Y-102551730D01*
X103300125Y-102512909D01*
X103289741Y-102493984D01*
X103259842Y-102466413D01*
X103219818Y-102457222D01*
X103197277Y-102459840D01*
X103162360Y-102478593D01*
X103138143Y-102511933D01*
X103125014Y-102550820D01*
X103117773Y-102592435D01*
X103113636Y-102636023D01*
X103111647Y-102677930D01*
X103110983Y-102724912D01*
X102888612Y-102724912D01*
X102888429Y-102713775D01*
X102888780Y-102689665D01*
X102891085Y-102648046D01*
X102895539Y-102607156D01*
X102902144Y-102566995D01*
X102910900Y-102527564D01*
X102912371Y-102521772D01*
X102924333Y-102483747D01*
X102941577Y-102445694D01*
X102942775Y-102443499D01*
X102965685Y-102409262D01*
X102993551Y-102378674D01*
X103008848Y-102365319D01*
X103042217Y-102343594D01*
X103078743Y-102327090D01*
X103088781Y-102323528D01*
X103129965Y-102313465D01*
X103168778Y-102308736D01*
X103212198Y-102307159D01*
X103233012Y-102307515D01*
G37*
G36*
X102145345Y-103120000D02*
G01*
X102816915Y-103120000D01*
X102809627Y-103076545D01*
X102797852Y-103034231D01*
X102781588Y-102993058D01*
X102760837Y-102953026D01*
X102746964Y-102930662D01*
X102721383Y-102896327D01*
X102694565Y-102866193D01*
X102662749Y-102834675D01*
X102633696Y-102808465D01*
X102601444Y-102781369D01*
X102565992Y-102753388D01*
X102527341Y-102724521D01*
X102492912Y-102698780D01*
X102459065Y-102671839D01*
X102428718Y-102645125D01*
X102401507Y-102615491D01*
X102381732Y-102581362D01*
X102373956Y-102544759D01*
X102383531Y-102505390D01*
X102401116Y-102482819D01*
X102436122Y-102462121D01*
X102469504Y-102457222D01*
X102508534Y-102464159D01*
X102539651Y-102484968D01*
X102561206Y-102520070D01*
X102572824Y-102561506D01*
X102576189Y-102582274D01*
X102800502Y-102563712D01*
X102793642Y-102524414D01*
X102783237Y-102484380D01*
X102768262Y-102445560D01*
X102752044Y-102416580D01*
X102727257Y-102385909D01*
X102696861Y-102360084D01*
X102660854Y-102339106D01*
X102652979Y-102335491D01*
X102613034Y-102321796D01*
X102570988Y-102313385D01*
X102529148Y-102308930D01*
X102489535Y-102307270D01*
X102475561Y-102307159D01*
X102433145Y-102308094D01*
X102388314Y-102311545D01*
X102348494Y-102317540D01*
X102309122Y-102327505D01*
X102291891Y-102333733D01*
X102253503Y-102352986D01*
X102220648Y-102377773D01*
X102193327Y-102408093D01*
X102188527Y-102414822D01*
X102168640Y-102450313D01*
X102156119Y-102488400D01*
X102150963Y-102529081D01*
X102150816Y-102537529D01*
X102154232Y-102577591D01*
X102164479Y-102616664D01*
X102181558Y-102654747D01*
X102193998Y-102675478D01*
X102219998Y-102709207D01*
X102249980Y-102740043D01*
X102281053Y-102767457D01*
X102317084Y-102795777D01*
X102350900Y-102820069D01*
X102385389Y-102843719D01*
X102417929Y-102866704D01*
X102441367Y-102884354D01*
X102471176Y-102910160D01*
X102494905Y-102932421D01*
X102145345Y-102932421D01*
X102145345Y-103120000D01*
G37*
G36*
X102077152Y-102796622D02*
G01*
X102077152Y-102982442D01*
X101669364Y-102982442D01*
X101669364Y-103120000D01*
X101474361Y-103120000D01*
X101474361Y-102982442D01*
X101373147Y-102982442D01*
X101373147Y-102794863D01*
X101474361Y-102794863D01*
X101669364Y-102794863D01*
X101884689Y-102794863D01*
X101669364Y-102542609D01*
X101669364Y-102794863D01*
X101474361Y-102794863D01*
X101474361Y-102307159D01*
X101669364Y-102307159D01*
X102077152Y-102796622D01*
G37*
G36*
X106782247Y-103663665D02*
G01*
X106532923Y-103663665D01*
X106532923Y-104097831D01*
X106533520Y-104138980D01*
X106535810Y-104184153D01*
X106539817Y-104224737D01*
X106546662Y-104266285D01*
X106557348Y-104306121D01*
X106575012Y-104344522D01*
X106600528Y-104379492D01*
X106629801Y-104407696D01*
X106655826Y-104427070D01*
X106690131Y-104446332D01*
X106728419Y-104460863D01*
X106770690Y-104470663D01*
X106810093Y-104475298D01*
X106845163Y-104476505D01*
X106888955Y-104475364D01*
X106928887Y-104471943D01*
X106970594Y-104465070D01*
X107011825Y-104453413D01*
X107034110Y-104444069D01*
X107069398Y-104423460D01*
X107099863Y-104398120D01*
X107125506Y-104368052D01*
X107137669Y-104349303D01*
X107155857Y-104311798D01*
X107168054Y-104274542D01*
X107176514Y-104233598D01*
X107180851Y-104194746D01*
X106942861Y-104163874D01*
X106940777Y-104203315D01*
X106933482Y-104239296D01*
X106911196Y-104272923D01*
X106903782Y-104278961D01*
X106864777Y-104288916D01*
X106863140Y-104288926D01*
X106824999Y-104280268D01*
X106801786Y-104258249D01*
X106787761Y-104220216D01*
X106782933Y-104180537D01*
X106782247Y-104154690D01*
X106782247Y-103663665D01*
G37*
G36*
X106414319Y-104238905D02*
G01*
X106175352Y-104238905D01*
X106175352Y-104464000D01*
X106414319Y-104464000D01*
X106414319Y-104238905D01*
G37*
G36*
X105710314Y-103663665D02*
G01*
X104953551Y-103663665D01*
X104953551Y-103851243D01*
X105207369Y-103851243D01*
X105207369Y-104464000D01*
X105456301Y-104464000D01*
X105456301Y-103851243D01*
X105710314Y-103851243D01*
X105710314Y-103663665D01*
G37*
G36*
X105030928Y-104238905D02*
G01*
X104791960Y-104238905D01*
X104791960Y-104464000D01*
X105030928Y-104464000D01*
X105030928Y-104238905D01*
G37*
G36*
X104351542Y-104464000D02*
G01*
X104097138Y-104464000D01*
X104058060Y-104326442D01*
X103774542Y-104326442D01*
X103735073Y-104464000D01*
X103474612Y-104464000D01*
X103592841Y-104151369D01*
X103826713Y-104151369D01*
X104004326Y-104151369D01*
X103915812Y-103868047D01*
X103826713Y-104151369D01*
X103592841Y-104151369D01*
X103777278Y-103663665D01*
X104048876Y-103663665D01*
X104351542Y-104464000D01*
G37*
G36*
X103414431Y-103876254D02*
G01*
X103206140Y-103876254D01*
X103206140Y-103971606D01*
X103179795Y-103941590D01*
X103150341Y-103914403D01*
X103117721Y-103891990D01*
X103111765Y-103888759D01*
X103072921Y-103873518D01*
X103032149Y-103865727D01*
X102995115Y-103863748D01*
X102951236Y-103867229D01*
X102912414Y-103877670D01*
X102874782Y-103897737D01*
X102849937Y-103919436D01*
X102824529Y-103955441D01*
X102808925Y-103995491D01*
X102800661Y-104036745D01*
X102797581Y-104076720D01*
X102797376Y-104090992D01*
X102797376Y-104464000D01*
X103022079Y-104464000D01*
X103022079Y-104140231D01*
X103025433Y-104100529D01*
X103041150Y-104063339D01*
X103042400Y-104061878D01*
X103076140Y-104041546D01*
X103099455Y-104038822D01*
X103138336Y-104047590D01*
X103165498Y-104069889D01*
X103182729Y-104106498D01*
X103189498Y-104148486D01*
X103190704Y-104181264D01*
X103190704Y-104464000D01*
X103414431Y-104464000D01*
X103414431Y-103876254D01*
G37*
G36*
X102398185Y-103663665D02*
G01*
X102398185Y-103876254D01*
X102275087Y-103876254D01*
X102275087Y-104038822D01*
X102398185Y-104038822D01*
X102398185Y-104255318D01*
X102395072Y-104295077D01*
X102390956Y-104306903D01*
X102355842Y-104326366D01*
X102352463Y-104326442D01*
X102311566Y-104320047D01*
X102283293Y-104311592D01*
X102266880Y-104459310D01*
X102307705Y-104466833D01*
X102347138Y-104472206D01*
X102389836Y-104475682D01*
X102421828Y-104476505D01*
X102460894Y-104475161D01*
X102502000Y-104469704D01*
X102539992Y-104457614D01*
X102545122Y-104455011D01*
X102577616Y-104429741D01*
X102599810Y-104397246D01*
X102603545Y-104389163D01*
X102615094Y-104348378D01*
X102620258Y-104307727D01*
X102622331Y-104264353D01*
X102622498Y-104246330D01*
X102622498Y-104038822D01*
X102704759Y-104038822D01*
X102704759Y-103876254D01*
X102622498Y-103876254D01*
X102622498Y-103773672D01*
X102398185Y-103663665D01*
G37*
G36*
X101911151Y-103865871D02*
G01*
X101954461Y-103872240D01*
X101994689Y-103882854D01*
X102031836Y-103897713D01*
X102072345Y-103921149D01*
X102108415Y-103950699D01*
X102124513Y-103967416D01*
X102151958Y-104003333D01*
X102173070Y-104042562D01*
X102187848Y-104085101D01*
X102196293Y-104130952D01*
X102198492Y-104171690D01*
X102198075Y-104189499D01*
X102193387Y-104232132D01*
X102183490Y-104272064D01*
X102168383Y-104309297D01*
X102148067Y-104343830D01*
X102122541Y-104375662D01*
X102091807Y-104404795D01*
X102069275Y-104421602D01*
X102032318Y-104442611D01*
X101991570Y-104458577D01*
X101947029Y-104469502D01*
X101907015Y-104474754D01*
X101864368Y-104476505D01*
X101816705Y-104474396D01*
X101772391Y-104468071D01*
X101731426Y-104457528D01*
X101693810Y-104442769D01*
X101653091Y-104419491D01*
X101617194Y-104390140D01*
X101596266Y-104367786D01*
X101570105Y-104331392D01*
X101550223Y-104291564D01*
X101536619Y-104248301D01*
X101530079Y-104209625D01*
X101527899Y-104168563D01*
X101527917Y-104167586D01*
X101752798Y-104167586D01*
X101752828Y-104172756D01*
X101755832Y-104215267D01*
X101764934Y-104254018D01*
X101783866Y-104288731D01*
X101789842Y-104295470D01*
X101824257Y-104319224D01*
X101863196Y-104326442D01*
X101872029Y-104326105D01*
X101911920Y-104314324D01*
X101942721Y-104288145D01*
X101944656Y-104285710D01*
X101963089Y-104250159D01*
X101971691Y-104211592D01*
X101974180Y-104169931D01*
X101971660Y-104128727D01*
X101961738Y-104087056D01*
X101942330Y-104052499D01*
X101934102Y-104043432D01*
X101901121Y-104021216D01*
X101861632Y-104013811D01*
X101853117Y-104014146D01*
X101814454Y-104025867D01*
X101784256Y-104051913D01*
X101765086Y-104085948D01*
X101755286Y-104126996D01*
X101752798Y-104167586D01*
X101527917Y-104167586D01*
X101528181Y-104153667D01*
X101532405Y-104110763D01*
X101541699Y-104070539D01*
X101556063Y-104032993D01*
X101575497Y-103998127D01*
X101600000Y-103965939D01*
X101623712Y-103941988D01*
X101657123Y-103916540D01*
X101694722Y-103896082D01*
X101736510Y-103880614D01*
X101782486Y-103870135D01*
X101822282Y-103865345D01*
X101864759Y-103863748D01*
X101911151Y-103865871D01*
G37*
G36*
X101416915Y-103663665D02*
G01*
X101192602Y-103663665D01*
X101192602Y-104464000D01*
X101416915Y-104464000D01*
X101416915Y-103663665D01*
G37*
G36*
X101043517Y-103663665D02*
G01*
X100819790Y-103663665D01*
X100819790Y-103813727D01*
X101043517Y-103813727D01*
X101043517Y-103663665D01*
G37*
G36*
X101043517Y-103876254D02*
G01*
X100819790Y-103876254D01*
X100819790Y-104464000D01*
X101043517Y-104464000D01*
X101043517Y-103876254D01*
G37*
G36*
X100678911Y-103663665D02*
G01*
X100450300Y-103663665D01*
X100450300Y-104057970D01*
X100283237Y-103876254D01*
X100007927Y-103876254D01*
X100217390Y-104082199D01*
X99995812Y-104464000D01*
X100248066Y-104464000D01*
X100366280Y-104228940D01*
X100450300Y-104311201D01*
X100450300Y-104464000D01*
X100678911Y-104464000D01*
X100678911Y-103663665D01*
G37*
G36*
X104216102Y-99298811D02*
G01*
X104263651Y-99339379D01*
X104266477Y-99343004D01*
X104295337Y-99402724D01*
X104307526Y-99465120D01*
X104311051Y-99533513D01*
X104307453Y-99596912D01*
X104293282Y-99660953D01*
X104265561Y-99713948D01*
X104217615Y-99756022D01*
X104154789Y-99772509D01*
X104150462Y-99772566D01*
X104091186Y-99756711D01*
X104048185Y-99716390D01*
X104021499Y-99657550D01*
X104010229Y-99594664D01*
X104007009Y-99533322D01*
X104006969Y-99524965D01*
X104010374Y-99460286D01*
X104023785Y-99395401D01*
X104050017Y-99342393D01*
X104097568Y-99298658D01*
X104154736Y-99284080D01*
X104216102Y-99298811D01*
G37*
G36*
X102934759Y-99595167D02*
G01*
X102996324Y-99611450D01*
X103025418Y-99618387D01*
X103089400Y-99635911D01*
X103146766Y-99659457D01*
X103160057Y-99668763D01*
X103189252Y-99723020D01*
X103189366Y-99727076D01*
X103165796Y-99783553D01*
X103160668Y-99788136D01*
X103102336Y-99810175D01*
X103076099Y-99811645D01*
X103013105Y-99803530D01*
X102967716Y-99785999D01*
X102916196Y-99749649D01*
X102896275Y-99723717D01*
X102877266Y-99662388D01*
X102875209Y-99627547D01*
X102875209Y-99577172D01*
X102934759Y-99595167D01*
G37*
G36*
X107094480Y-100478098D02*
G01*
X99987367Y-100478098D01*
X99987367Y-99987500D01*
X100126256Y-99987500D01*
X100520403Y-99987500D01*
X100705111Y-99620219D01*
X100836392Y-99748752D01*
X100836392Y-99987500D01*
X101193597Y-99987500D01*
X101193597Y-99674869D01*
X101318161Y-99674869D01*
X101338793Y-99735595D01*
X101366341Y-99791075D01*
X101404634Y-99846041D01*
X101408531Y-99850724D01*
X101455672Y-99897832D01*
X101505665Y-99933896D01*
X101562457Y-99963520D01*
X101568510Y-99966128D01*
X101627470Y-99985904D01*
X101694787Y-99999208D01*
X101761639Y-100005601D01*
X101816111Y-100007039D01*
X101877367Y-100005739D01*
X101941686Y-100001069D01*
X102006792Y-99991755D01*
X102025198Y-99987500D01*
X102489610Y-99987500D01*
X102817506Y-99987500D01*
X102843457Y-99933155D01*
X102855364Y-99874232D01*
X102902483Y-99915342D01*
X102953638Y-99950068D01*
X102991835Y-99969181D01*
X103052764Y-99989145D01*
X103119538Y-100001715D01*
X103184630Y-100006706D01*
X103207379Y-100007039D01*
X103275070Y-100003562D01*
X103343200Y-99991073D01*
X103401485Y-99969501D01*
X103455286Y-99934377D01*
X103499883Y-99885624D01*
X103527962Y-99830192D01*
X103539524Y-99768082D01*
X103539855Y-99754858D01*
X103532640Y-99690407D01*
X103508311Y-99629642D01*
X103478794Y-99590605D01*
X103424795Y-99550213D01*
X103396355Y-99537787D01*
X103657702Y-99537787D01*
X103660363Y-99606601D01*
X103668346Y-99670123D01*
X103684950Y-99739364D01*
X103709218Y-99800984D01*
X103741150Y-99854983D01*
X103766695Y-99886749D01*
X103817126Y-99933620D01*
X103873051Y-99968979D01*
X103934468Y-99992825D01*
X104001378Y-100005159D01*
X104042079Y-100007039D01*
X104105447Y-100002958D01*
X104168392Y-99989434D01*
X104189541Y-99982309D01*
X104245031Y-99956113D01*
X104295028Y-99920800D01*
X104308304Y-99909036D01*
X104308304Y-100339209D01*
X104661235Y-100339209D01*
X104661235Y-99987500D01*
X104879221Y-99987500D01*
X105197042Y-99987500D01*
X105197042Y-99027625D01*
X105443422Y-99987500D01*
X105731018Y-99987500D01*
X105976788Y-99027625D01*
X105976788Y-99987500D01*
X106295219Y-99987500D01*
X106566024Y-99987500D01*
X106955591Y-99987500D01*
X106955591Y-98736976D01*
X106566024Y-98736976D01*
X106566024Y-99987500D01*
X106295219Y-99987500D01*
X106295219Y-98736976D01*
X105783531Y-98736976D01*
X105585999Y-99494740D01*
X105389384Y-98736976D01*
X104879221Y-98736976D01*
X104879221Y-99987500D01*
X104661235Y-99987500D01*
X104661235Y-99069146D01*
X104334255Y-99069146D01*
X104334255Y-99191878D01*
X104288956Y-99144307D01*
X104238771Y-99103436D01*
X104209691Y-99086549D01*
X104150128Y-99064037D01*
X104085928Y-99051916D01*
X104040553Y-99049607D01*
X103974893Y-99054555D01*
X103915073Y-99069399D01*
X103852662Y-99099225D01*
X103798199Y-99142521D01*
X103757841Y-99190352D01*
X103723810Y-99245357D01*
X103696819Y-99305041D01*
X103676869Y-99369405D01*
X103663961Y-99438449D01*
X103658582Y-99499561D01*
X103657997Y-99524965D01*
X103657702Y-99537787D01*
X103396355Y-99537787D01*
X103362421Y-99522961D01*
X103302588Y-99505372D01*
X103253785Y-99494740D01*
X103184917Y-99481233D01*
X103116860Y-99467511D01*
X103055289Y-99454512D01*
X102998857Y-99441311D01*
X102938788Y-99423680D01*
X102879285Y-99402853D01*
X102875209Y-99401317D01*
X102883613Y-99340523D01*
X102901770Y-99310336D01*
X102960929Y-99286157D01*
X102995498Y-99284080D01*
X103058149Y-99289018D01*
X103118789Y-99310377D01*
X103124337Y-99314000D01*
X103162623Y-99362073D01*
X103178375Y-99401317D01*
X103512377Y-99362238D01*
X103497416Y-99300187D01*
X103474711Y-99239506D01*
X103458033Y-99208975D01*
X103417636Y-99159665D01*
X103367463Y-99119694D01*
X103355146Y-99111889D01*
X103298131Y-99085404D01*
X103238430Y-99068943D01*
X103222950Y-99065788D01*
X103157863Y-99055928D01*
X103094881Y-99050887D01*
X103040989Y-99049607D01*
X102975166Y-99050454D01*
X102907202Y-99053498D01*
X102840004Y-99059567D01*
X102788503Y-99067315D01*
X102726593Y-99084034D01*
X102667696Y-99112642D01*
X102629439Y-99141198D01*
X102589597Y-99188138D01*
X102560841Y-99246979D01*
X102559220Y-99251413D01*
X102541480Y-99312429D01*
X102533497Y-99375081D01*
X102533269Y-99387273D01*
X102533269Y-99627547D01*
X102533269Y-99792411D01*
X102530757Y-99856338D01*
X102525331Y-99893771D01*
X102504905Y-99953815D01*
X102489610Y-99987500D01*
X102025198Y-99987500D01*
X102058217Y-99979867D01*
X102115890Y-99959605D01*
X102173271Y-99929740D01*
X102224302Y-99891939D01*
X102268449Y-99847681D01*
X102305597Y-99798444D01*
X102333295Y-99749363D01*
X102355718Y-99686797D01*
X102367141Y-99626216D01*
X102372064Y-99565269D01*
X102372679Y-99532292D01*
X102369664Y-99464572D01*
X102360620Y-99402767D01*
X102343237Y-99340307D01*
X102324441Y-99296903D01*
X102291682Y-99243210D01*
X102250458Y-99194253D01*
X102228576Y-99173255D01*
X102178410Y-99133438D01*
X102123145Y-99100813D01*
X102103096Y-99091739D01*
X102041025Y-99071372D01*
X101978228Y-99058864D01*
X101917395Y-99052240D01*
X101851069Y-99049648D01*
X101841146Y-99049607D01*
X101773989Y-99051552D01*
X101712006Y-99057389D01*
X101644454Y-99069528D01*
X101584351Y-99087270D01*
X101523645Y-99115051D01*
X101500732Y-99129291D01*
X101452787Y-99167674D01*
X101411532Y-99213098D01*
X101376969Y-99265564D01*
X101349097Y-99325072D01*
X101336174Y-99362238D01*
X101664986Y-99401317D01*
X101690520Y-99344892D01*
X101721467Y-99313695D01*
X101779588Y-99288968D01*
X101830765Y-99284080D01*
X101895772Y-99294561D01*
X101949896Y-99326002D01*
X101971205Y-99347583D01*
X102003949Y-99404169D01*
X102019691Y-99465361D01*
X102024886Y-99531344D01*
X102024938Y-99539314D01*
X102019751Y-99605503D01*
X102002060Y-99665913D01*
X101971816Y-99713337D01*
X101923619Y-99751685D01*
X101861007Y-99771120D01*
X101835956Y-99772566D01*
X101772758Y-99764170D01*
X101720551Y-99738982D01*
X101677555Y-99693133D01*
X101650636Y-99635790D01*
X101318161Y-99674869D01*
X101193597Y-99674869D01*
X101193597Y-98736976D01*
X100836392Y-98736976D01*
X100836392Y-99353079D01*
X100575357Y-99069146D01*
X100145184Y-99069146D01*
X100472470Y-99390936D01*
X100126256Y-99987500D01*
X99987367Y-99987500D01*
X99987367Y-98598087D01*
X107094480Y-98598087D01*
X107094480Y-100478098D01*
G37*
G36*
X108636322Y-108868185D02*
G01*
X107959769Y-108868185D01*
X107959769Y-109028653D01*
X108328087Y-109415289D01*
X107937055Y-109415289D01*
X107937055Y-109602868D01*
X108663921Y-109602868D01*
X108663921Y-109424814D01*
X108314898Y-109055764D01*
X108636322Y-109055764D01*
X108636322Y-108868185D01*
G37*
G36*
X105224004Y-109668185D02*
G01*
X104928714Y-109668185D01*
X104778261Y-110157403D01*
X104638798Y-109668185D01*
X104363292Y-109668185D01*
X104652476Y-110453182D01*
X104671129Y-110500234D01*
X104693043Y-110547422D01*
X104718288Y-110591191D01*
X104750144Y-110630661D01*
X104753348Y-110633677D01*
X104794610Y-110662635D01*
X104845367Y-110683319D01*
X104897568Y-110694631D01*
X104948097Y-110699285D01*
X104975365Y-110699867D01*
X105024662Y-110697962D01*
X105076630Y-110693570D01*
X105131615Y-110687525D01*
X105162211Y-110683747D01*
X105184193Y-110492016D01*
X105132878Y-110505142D01*
X105081433Y-110511318D01*
X105049615Y-110512288D01*
X104999864Y-110505024D01*
X104969503Y-110489329D01*
X104936520Y-110449236D01*
X104917724Y-110407020D01*
X105224004Y-109668185D01*
G37*
G36*
X107845253Y-112368185D02*
G01*
X107513327Y-112368185D01*
X107397312Y-112572861D01*
X107262734Y-112368185D01*
X106954255Y-112368185D01*
X107202895Y-112718185D01*
X106936426Y-113102868D01*
X107262734Y-113102868D01*
X107397312Y-112866196D01*
X107556070Y-113102868D01*
X107858931Y-113102868D01*
X107593683Y-112718185D01*
X107845253Y-112368185D01*
G37*
D12*
%TO.C,R505*%
X113153641Y-98720000D02*
X112846359Y-98720000D01*
X113153641Y-99480000D02*
X112846359Y-99480000D01*
%TO.C,U202*%
X103140000Y-89600000D02*
X103140000Y-87800000D01*
X103140000Y-89600000D02*
X103140000Y-90400000D01*
X106260000Y-89600000D02*
X106260000Y-88800000D01*
X106260000Y-89600000D02*
X106260000Y-90400000D01*
%TO.C,C701*%
X95240000Y-115277164D02*
X95240000Y-115492836D01*
X95960000Y-115277164D02*
X95960000Y-115492836D01*
%TO.C,C202*%
X101690000Y-90059420D02*
X101690000Y-90340580D01*
X102710000Y-90059420D02*
X102710000Y-90340580D01*
%TO.C,FB701*%
X93437221Y-114590000D02*
X93762779Y-114590000D01*
X93437221Y-115610000D02*
X93762779Y-115610000D01*
%TO.C,R203*%
X100020000Y-92353641D02*
X100020000Y-92046359D01*
X100780000Y-92353641D02*
X100780000Y-92046359D01*
%TO.C,C601*%
X104040000Y-106592164D02*
X104040000Y-106807836D01*
X104760000Y-106592164D02*
X104760000Y-106807836D01*
%TO.C,R201*%
X93546359Y-89920000D02*
X93853641Y-89920000D01*
X93546359Y-90680000D02*
X93853641Y-90680000D01*
%TO.C,C604*%
X102040000Y-111592164D02*
X102040000Y-111807836D01*
X102760000Y-111592164D02*
X102760000Y-111807836D01*
%TO.C,C603*%
X104927836Y-107740000D02*
X104712164Y-107740000D01*
X104927836Y-108460000D02*
X104712164Y-108460000D01*
%TO.C,R209*%
X108320000Y-93353641D02*
X108320000Y-93046359D01*
X109080000Y-93353641D02*
X109080000Y-93046359D01*
%TO.C,C201*%
X100190000Y-87659420D02*
X100190000Y-87940580D01*
X101210000Y-87659420D02*
X101210000Y-87940580D01*
%TO.C,C310*%
X91092164Y-101040000D02*
X91307836Y-101040000D01*
X91092164Y-101760000D02*
X91307836Y-101760000D01*
%TO.C,U601*%
X101040000Y-106765000D02*
X101040000Y-106090000D01*
X101040000Y-108635000D02*
X101040000Y-109310000D01*
X101040000Y-109310000D02*
X101215000Y-109310000D01*
X103760000Y-106090000D02*
X103585000Y-106090000D01*
X103760000Y-106765000D02*
X103760000Y-106090000D01*
X103760000Y-108635000D02*
X103760000Y-109310000D01*
X103760000Y-109310000D02*
X103585000Y-109310000D01*
%TO.C,FB201*%
X98690000Y-86137221D02*
X98690000Y-86462779D01*
X99710000Y-86137221D02*
X99710000Y-86462779D01*
%TO.C,R602*%
X100846359Y-115420000D02*
X101153641Y-115420000D01*
X100846359Y-116180000D02*
X101153641Y-116180000D01*
%TO.C,R506*%
X113153641Y-97620000D02*
X112846359Y-97620000D01*
X113153641Y-98380000D02*
X112846359Y-98380000D01*
D13*
%TO.C,G\u002A\u002A\u002A*%
G36*
X90014307Y-94202590D02*
G01*
X90056150Y-94214556D01*
X90082682Y-94240922D01*
X90096614Y-94285086D01*
X90100656Y-94350443D01*
X90100656Y-94444276D01*
X89985376Y-94444276D01*
X89870096Y-94444276D01*
X89870096Y-94348210D01*
X89871728Y-94299099D01*
X89880715Y-94250505D01*
X89900089Y-94220447D01*
X89932688Y-94205166D01*
X89981348Y-94200908D01*
X90014307Y-94202590D01*
G37*
G36*
X89854085Y-96348018D02*
G01*
X89865868Y-96351124D01*
X89926403Y-96366891D01*
X89977338Y-96379854D01*
X90013622Y-96388742D01*
X90030207Y-96392287D01*
X90033843Y-96393625D01*
X90027428Y-96397392D01*
X90007020Y-96404330D01*
X89969922Y-96415271D01*
X89913439Y-96431044D01*
X89834871Y-96452482D01*
X89690772Y-96491564D01*
X89690772Y-96398227D01*
X89690772Y-96304890D01*
X89854085Y-96348018D01*
G37*
G36*
X89997679Y-95242313D02*
G01*
X90026397Y-95247018D01*
X90062932Y-95262240D01*
X90085688Y-95290050D01*
X90097363Y-95334579D01*
X90100656Y-95399957D01*
X90100656Y-95494604D01*
X89985376Y-95494604D01*
X89870096Y-95494604D01*
X89870096Y-95393063D01*
X89870231Y-95362749D01*
X89871939Y-95322145D01*
X89877116Y-95296662D01*
X89887623Y-95279467D01*
X89905320Y-95263725D01*
X89923301Y-95251356D01*
X89954721Y-95241128D01*
X89997679Y-95242313D01*
G37*
G36*
X85732829Y-91926981D02*
G01*
X85732829Y-92022696D01*
X85553472Y-92026249D01*
X85374115Y-92029803D01*
X85553309Y-92170701D01*
X85732504Y-92311599D01*
X85732666Y-92385250D01*
X85732829Y-92458901D01*
X85380585Y-92458901D01*
X85028341Y-92458901D01*
X85028341Y-92363196D01*
X85028341Y-92267491D01*
X85201127Y-92263927D01*
X85373912Y-92260363D01*
X85201127Y-92121447D01*
X85028341Y-91982532D01*
X85028341Y-91906899D01*
X85028341Y-91831266D01*
X85380585Y-91831266D01*
X85732829Y-91831266D01*
X85732829Y-91926981D01*
G37*
G36*
X85732829Y-93374384D02*
G01*
X85732829Y-93470099D01*
X85553291Y-93473652D01*
X85373753Y-93477206D01*
X85553291Y-93617967D01*
X85732829Y-93758728D01*
X85732829Y-93832516D01*
X85732829Y-93906304D01*
X85380585Y-93906304D01*
X85028341Y-93906304D01*
X85028341Y-93810599D01*
X85028341Y-93714893D01*
X85201491Y-93711330D01*
X85374642Y-93707766D01*
X85201491Y-93568671D01*
X85028341Y-93429577D01*
X85028341Y-93354123D01*
X85028341Y-93278669D01*
X85380585Y-93278669D01*
X85732829Y-93278669D01*
X85732829Y-93374384D01*
G37*
G36*
X85732829Y-94937066D02*
G01*
X85732829Y-95032781D01*
X85553740Y-95036335D01*
X85374650Y-95039889D01*
X85553740Y-95180545D01*
X85732829Y-95321200D01*
X85732829Y-95395093D01*
X85732829Y-95468986D01*
X85380585Y-95468986D01*
X85028341Y-95468986D01*
X85028341Y-95373281D01*
X85028341Y-95277576D01*
X85200439Y-95274013D01*
X85372538Y-95270449D01*
X85200439Y-95131454D01*
X85028341Y-94992460D01*
X85028341Y-94916906D01*
X85028341Y-94841352D01*
X85380585Y-94841352D01*
X85732829Y-94841352D01*
X85732829Y-94937066D01*
G37*
G36*
X85194856Y-94149672D02*
G01*
X85194856Y-94303379D01*
X85252496Y-94303379D01*
X85310136Y-94303379D01*
X85310136Y-94175290D01*
X85310136Y-94047201D01*
X85386989Y-94047201D01*
X85463843Y-94047201D01*
X85463843Y-94175290D01*
X85463843Y-94303379D01*
X85515078Y-94303379D01*
X85566314Y-94303379D01*
X85566314Y-94156077D01*
X85566314Y-94008775D01*
X85649571Y-94008775D01*
X85732829Y-94008775D01*
X85732829Y-94252143D01*
X85732829Y-94495512D01*
X85380585Y-94495512D01*
X85028341Y-94495512D01*
X85028341Y-94245739D01*
X85028341Y-93995966D01*
X85111599Y-93995966D01*
X85194856Y-93995966D01*
X85194856Y-94149672D01*
G37*
G36*
X88159818Y-93114420D02*
G01*
X88204254Y-93144037D01*
X88207442Y-93147241D01*
X88218278Y-93159406D01*
X88226169Y-93173232D01*
X88231674Y-93192713D01*
X88235349Y-93221839D01*
X88237753Y-93264604D01*
X88239443Y-93324999D01*
X88240975Y-93407016D01*
X88244986Y-93637317D01*
X88090471Y-93637317D01*
X87935956Y-93637317D01*
X87936004Y-93416364D01*
X87936024Y-93392691D01*
X87936498Y-93316642D01*
X87937904Y-93260826D01*
X87940651Y-93220971D01*
X87945146Y-93192808D01*
X87951796Y-93172066D01*
X87961010Y-93154477D01*
X87965186Y-93148247D01*
X88001831Y-93117570D01*
X88051333Y-93101498D01*
X88106420Y-93100344D01*
X88159818Y-93114420D01*
G37*
G36*
X87393265Y-93045224D02*
G01*
X87444286Y-93080439D01*
X87452316Y-93088790D01*
X87460568Y-93100131D01*
X87466509Y-93115200D01*
X87470519Y-93137645D01*
X87472977Y-93171115D01*
X87474263Y-93219257D01*
X87474756Y-93285720D01*
X87474836Y-93374153D01*
X87474836Y-93637317D01*
X87308321Y-93637317D01*
X87141805Y-93637317D01*
X87141805Y-93389438D01*
X87141811Y-93366466D01*
X87142048Y-93286078D01*
X87142931Y-93226354D01*
X87144860Y-93183303D01*
X87148235Y-93152936D01*
X87153457Y-93131262D01*
X87160926Y-93114292D01*
X87171043Y-93098037D01*
X87175230Y-93092132D01*
X87218935Y-93053070D01*
X87274142Y-93031954D01*
X87334401Y-93029200D01*
X87393265Y-93045224D01*
G37*
G36*
X87465558Y-95187449D02*
G01*
X87486676Y-95192249D01*
X87527110Y-95202301D01*
X87582847Y-95216545D01*
X87649879Y-95233921D01*
X87724193Y-95253369D01*
X87801780Y-95273828D01*
X87878628Y-95294238D01*
X87950726Y-95313539D01*
X88014065Y-95330670D01*
X88064634Y-95344572D01*
X88098421Y-95354183D01*
X88111416Y-95358444D01*
X88111430Y-95358464D01*
X88099987Y-95362698D01*
X88066870Y-95372759D01*
X88015070Y-95387804D01*
X87947578Y-95406989D01*
X87867385Y-95429469D01*
X87777482Y-95454402D01*
X87680860Y-95480942D01*
X87580509Y-95508247D01*
X87449218Y-95543795D01*
X87449218Y-95365493D01*
X87449219Y-95363166D01*
X87450098Y-95284189D01*
X87452724Y-95229418D01*
X87457205Y-95197527D01*
X87463647Y-95187191D01*
X87465558Y-95187449D01*
G37*
G36*
X85154938Y-97365664D02*
G01*
X85281536Y-97443128D01*
X85341712Y-97400712D01*
X85371441Y-97381001D01*
X85402984Y-97366284D01*
X85438285Y-97359767D01*
X85488239Y-97358296D01*
X85516476Y-97358681D01*
X85559775Y-97362840D01*
X85593721Y-97373815D01*
X85629097Y-97394367D01*
X85639862Y-97401720D01*
X85673659Y-97429897D01*
X85698321Y-97462379D01*
X85715195Y-97503404D01*
X85725626Y-97557214D01*
X85730961Y-97628048D01*
X85732548Y-97720146D01*
X85732829Y-97902673D01*
X85567592Y-97902673D01*
X85380585Y-97902673D01*
X85028341Y-97902673D01*
X85028341Y-97806606D01*
X85028341Y-97710540D01*
X85137216Y-97710540D01*
X85246092Y-97710540D01*
X85411329Y-97710540D01*
X85489460Y-97710540D01*
X85567592Y-97710540D01*
X85563751Y-97637001D01*
X85561742Y-97607273D01*
X85556275Y-97576709D01*
X85545040Y-97559081D01*
X85524685Y-97546640D01*
X85515268Y-97542399D01*
X85485887Y-97536360D01*
X85454236Y-97546640D01*
X85440052Y-97554364D01*
X85425888Y-97569209D01*
X85418711Y-97594172D01*
X85415170Y-97637001D01*
X85411329Y-97710540D01*
X85246092Y-97710540D01*
X85246092Y-97672620D01*
X85244801Y-97657397D01*
X85237323Y-97640453D01*
X85219578Y-97622503D01*
X85187549Y-97599693D01*
X85137216Y-97568168D01*
X85028341Y-97501636D01*
X85028341Y-97394919D01*
X85028341Y-97288201D01*
X85154938Y-97365664D01*
G37*
G36*
X85414236Y-96603281D02*
G01*
X85485573Y-96610321D01*
X85542821Y-96627962D01*
X85593672Y-96659232D01*
X85645820Y-96707160D01*
X85671781Y-96737550D01*
X85712666Y-96810864D01*
X85731820Y-96889651D01*
X85730120Y-96969918D01*
X85708438Y-97047671D01*
X85667650Y-97118918D01*
X85608629Y-97179663D01*
X85532250Y-97225914D01*
X85476578Y-97245560D01*
X85387156Y-97258029D01*
X85360785Y-97255378D01*
X85299396Y-97249207D01*
X85217351Y-97220702D01*
X85145071Y-97174118D01*
X85086608Y-97111063D01*
X85046012Y-97033141D01*
X85034874Y-96993364D01*
X85030232Y-96920237D01*
X85195243Y-96920237D01*
X85206528Y-96969989D01*
X85237114Y-97015474D01*
X85285013Y-97051138D01*
X85307084Y-97059917D01*
X85360785Y-97067917D01*
X85419726Y-97063862D01*
X85476355Y-97049333D01*
X85523121Y-97025910D01*
X85552471Y-96995174D01*
X85558657Y-96981565D01*
X85567506Y-96929695D01*
X85557869Y-96878065D01*
X85531089Y-96836639D01*
X85501092Y-96814031D01*
X85442204Y-96790170D01*
X85377455Y-96782739D01*
X85313525Y-96791348D01*
X85257096Y-96815605D01*
X85214847Y-96855122D01*
X85205247Y-96871769D01*
X85195243Y-96920237D01*
X85030232Y-96920237D01*
X85029540Y-96909328D01*
X85046611Y-96826650D01*
X85084269Y-96749690D01*
X85140695Y-96682807D01*
X85214070Y-96630361D01*
X85240418Y-96618084D01*
X85274569Y-96608709D01*
X85318700Y-96604029D01*
X85380585Y-96602756D01*
X85414236Y-96603281D01*
G37*
G36*
X85399798Y-92702269D02*
G01*
X85399798Y-92843167D01*
X85335754Y-92843167D01*
X85271710Y-92843167D01*
X85271710Y-92777554D01*
X85271525Y-92755521D01*
X85269390Y-92729176D01*
X85263376Y-92721688D01*
X85251652Y-92728588D01*
X85227018Y-92757358D01*
X85204026Y-92803855D01*
X85194856Y-92849571D01*
X85195284Y-92860334D01*
X85210726Y-92911729D01*
X85245151Y-92952474D01*
X85294186Y-92980724D01*
X85353459Y-92994636D01*
X85418596Y-92992364D01*
X85485225Y-92972063D01*
X85516726Y-92953956D01*
X85554039Y-92913727D01*
X85568627Y-92865578D01*
X85559756Y-92813255D01*
X85526692Y-92760505D01*
X85487070Y-92715378D01*
X85528971Y-92660791D01*
X85545274Y-92639642D01*
X85567643Y-92610954D01*
X85580415Y-92595021D01*
X85592644Y-92591333D01*
X85616627Y-92602788D01*
X85645595Y-92628412D01*
X85674853Y-92663881D01*
X85699705Y-92704872D01*
X85723966Y-92770524D01*
X85733460Y-92855024D01*
X85721200Y-92937865D01*
X85688992Y-93015006D01*
X85638645Y-93082407D01*
X85571967Y-93136028D01*
X85490765Y-93171827D01*
X85418799Y-93184746D01*
X85328761Y-93180530D01*
X85242448Y-93155778D01*
X85164550Y-93112555D01*
X85099758Y-93052926D01*
X85052760Y-92978955D01*
X85033640Y-92918082D01*
X85031908Y-92843205D01*
X85053959Y-92772718D01*
X85060677Y-92759186D01*
X85074199Y-92729092D01*
X85079576Y-92712370D01*
X85074789Y-92706508D01*
X85053959Y-92702269D01*
X85044971Y-92701518D01*
X85034260Y-92693742D01*
X85029453Y-92672533D01*
X85028341Y-92631821D01*
X85028341Y-92561372D01*
X85214070Y-92561372D01*
X85399798Y-92561372D01*
X85399798Y-92702269D01*
G37*
G36*
X85231368Y-97992854D02*
G01*
X85285495Y-98001648D01*
X85325930Y-98024152D01*
X85360431Y-98064036D01*
X85391043Y-98108711D01*
X85432751Y-98068287D01*
X85440671Y-98061101D01*
X85493971Y-98030680D01*
X85553897Y-98020126D01*
X85613974Y-98028692D01*
X85667725Y-98055628D01*
X85708676Y-98100185D01*
X85710160Y-98102669D01*
X85718685Y-98120362D01*
X85724787Y-98142537D01*
X85728856Y-98173422D01*
X85731284Y-98217241D01*
X85732462Y-98278222D01*
X85732781Y-98360590D01*
X85732829Y-98581543D01*
X85579123Y-98581543D01*
X85379132Y-98581543D01*
X85310136Y-98581543D01*
X85025435Y-98581543D01*
X85030667Y-98360590D01*
X85031738Y-98319795D01*
X85182047Y-98319795D01*
X85182047Y-98389410D01*
X85246092Y-98389410D01*
X85310136Y-98389410D01*
X85310136Y-98305878D01*
X85463843Y-98305878D01*
X85463843Y-98389410D01*
X85521483Y-98389410D01*
X85579123Y-98389410D01*
X85579123Y-98314542D01*
X85577011Y-98267694D01*
X85569137Y-98237125D01*
X85553453Y-98216443D01*
X85547171Y-98211027D01*
X85523923Y-98200129D01*
X85495813Y-98207779D01*
X85495639Y-98207858D01*
X85478366Y-98218036D01*
X85468803Y-98233181D01*
X85464709Y-98260169D01*
X85463843Y-98305878D01*
X85310136Y-98305878D01*
X85310136Y-98293026D01*
X85310051Y-98267630D01*
X85308632Y-98227884D01*
X85304052Y-98204853D01*
X85294515Y-98192431D01*
X85278225Y-98184510D01*
X85249676Y-98177823D01*
X85216129Y-98186954D01*
X85193875Y-98219071D01*
X85189757Y-98234281D01*
X85184218Y-98274013D01*
X85182047Y-98319795D01*
X85031738Y-98319795D01*
X85031971Y-98310906D01*
X85034750Y-98237532D01*
X85038423Y-98183158D01*
X85043445Y-98143506D01*
X85050273Y-98114298D01*
X85059362Y-98091255D01*
X85066430Y-98077484D01*
X85102966Y-98028270D01*
X85148977Y-98000841D01*
X85208790Y-97992335D01*
X85231368Y-97992854D01*
G37*
G36*
X85730203Y-95633568D02*
G01*
X85730570Y-95682866D01*
X85727215Y-95720629D01*
X85720407Y-95737734D01*
X85706023Y-95743448D01*
X85670780Y-95755554D01*
X85619073Y-95772524D01*
X85555051Y-95792998D01*
X85482866Y-95815615D01*
X85414144Y-95837375D01*
X85351989Y-95857938D01*
X85302835Y-95875151D01*
X85270525Y-95887668D01*
X85258901Y-95894142D01*
X85265605Y-95900109D01*
X85290943Y-95911834D01*
X85328679Y-95925175D01*
X85398457Y-95947170D01*
X85556036Y-95893664D01*
X85566140Y-95890240D01*
X85624707Y-95870679D01*
X85673654Y-95854800D01*
X85708115Y-95844156D01*
X85723222Y-95840300D01*
X85727857Y-95850544D01*
X85731452Y-95880003D01*
X85732829Y-95921922D01*
X85732829Y-96003400D01*
X85629749Y-96032750D01*
X85610957Y-96038308D01*
X85569835Y-96052259D01*
X85543471Y-96063949D01*
X85536885Y-96071294D01*
X85537961Y-96072094D01*
X85557583Y-96080812D01*
X85593893Y-96093652D01*
X85639965Y-96108137D01*
X85732829Y-96135785D01*
X85732829Y-96218674D01*
X85732346Y-96259318D01*
X85731000Y-96289879D01*
X85729094Y-96301563D01*
X85727710Y-96301236D01*
X85708784Y-96295333D01*
X85671401Y-96283163D01*
X85620089Y-96266210D01*
X85559376Y-96245956D01*
X85393394Y-96190349D01*
X85333458Y-96210732D01*
X85313126Y-96217970D01*
X85281329Y-96230838D01*
X85265128Y-96239670D01*
X85264977Y-96240020D01*
X85276389Y-96247101D01*
X85308319Y-96260289D01*
X85357203Y-96278269D01*
X85419477Y-96299723D01*
X85491579Y-96323335D01*
X85726425Y-96398444D01*
X85730166Y-96497306D01*
X85730558Y-96508763D01*
X85731188Y-96553214D01*
X85730188Y-96584402D01*
X85727711Y-96596168D01*
X85727617Y-96596159D01*
X85713561Y-96591331D01*
X85678918Y-96578445D01*
X85626830Y-96558698D01*
X85560443Y-96533288D01*
X85482900Y-96503413D01*
X85397344Y-96470272D01*
X85396765Y-96470047D01*
X85310144Y-96436426D01*
X85230576Y-96405577D01*
X85161428Y-96378803D01*
X85106063Y-96357405D01*
X85067846Y-96342685D01*
X85050141Y-96335945D01*
X85042737Y-96332311D01*
X85033415Y-96319466D01*
X85029944Y-96293813D01*
X85030928Y-96249038D01*
X85034745Y-96170564D01*
X85152328Y-96123818D01*
X85184750Y-96110777D01*
X85230063Y-96091968D01*
X85262459Y-96077765D01*
X85276463Y-96070520D01*
X85271215Y-96065420D01*
X85246653Y-96052716D01*
X85206426Y-96034906D01*
X85155122Y-96014126D01*
X85027229Y-95964284D01*
X85030987Y-95886376D01*
X85034745Y-95808468D01*
X85380585Y-95673130D01*
X85726425Y-95537793D01*
X85730203Y-95633568D01*
G37*
G36*
X90997183Y-95212809D02*
G01*
X90997244Y-98671205D01*
X89280888Y-98671205D01*
X88730983Y-98671205D01*
X88730106Y-98671205D01*
X88518743Y-98671205D01*
X86040242Y-98671205D01*
X86040242Y-95754860D01*
X86655068Y-95754860D01*
X86655068Y-96815957D01*
X86655068Y-97877055D01*
X87692587Y-97877055D01*
X88730106Y-97877055D01*
X88730106Y-97588855D01*
X88730106Y-97300656D01*
X87942360Y-97300656D01*
X87154614Y-97300656D01*
X87154614Y-97107160D01*
X89276205Y-97107160D01*
X89278203Y-97194982D01*
X89281924Y-97300656D01*
X89492752Y-97300656D01*
X89703581Y-97300656D01*
X89703581Y-97479980D01*
X89703581Y-97659304D01*
X89492234Y-97659304D01*
X89280888Y-97659304D01*
X89280888Y-97813150D01*
X89280888Y-97966995D01*
X89822063Y-97963654D01*
X90363238Y-97960313D01*
X90366846Y-97809808D01*
X90370455Y-97659304D01*
X90165107Y-97659304D01*
X89959758Y-97659304D01*
X89959758Y-97479980D01*
X89959758Y-97300656D01*
X90165107Y-97300656D01*
X90370455Y-97300656D01*
X90366846Y-97150151D01*
X90363238Y-96999647D01*
X89822063Y-96996306D01*
X89757837Y-96995978D01*
X89647089Y-96995751D01*
X89546091Y-96995973D01*
X89457487Y-96996611D01*
X89383922Y-96997636D01*
X89328040Y-96999014D01*
X89295186Y-97000587D01*
X89292485Y-97000716D01*
X89279902Y-97002710D01*
X89277262Y-97040205D01*
X89276205Y-97107160D01*
X87154614Y-97107160D01*
X87154614Y-96833132D01*
X87154614Y-96783030D01*
X89275828Y-96783030D01*
X89275917Y-96842984D01*
X89278449Y-96882699D01*
X89284510Y-96905409D01*
X89295186Y-96914346D01*
X89311562Y-96912743D01*
X89334723Y-96903832D01*
X89336525Y-96903089D01*
X89359238Y-96894300D01*
X89402623Y-96877870D01*
X89463880Y-96854846D01*
X89540211Y-96826277D01*
X89628819Y-96793209D01*
X89726905Y-96756692D01*
X89831669Y-96717771D01*
X89851724Y-96710328D01*
X89955809Y-96671667D01*
X90052949Y-96635540D01*
X90140298Y-96603006D01*
X90215009Y-96575130D01*
X90274237Y-96552971D01*
X90315136Y-96537592D01*
X90334861Y-96530054D01*
X90370528Y-96515839D01*
X90366883Y-96394829D01*
X90363238Y-96273819D01*
X89833448Y-96076345D01*
X89754982Y-96047144D01*
X89649230Y-96007943D01*
X89552551Y-95972284D01*
X89467432Y-95941074D01*
X89396358Y-95915221D01*
X89341816Y-95895631D01*
X89306293Y-95883212D01*
X89292273Y-95878870D01*
X89291883Y-95878963D01*
X89287598Y-95892916D01*
X89284104Y-95927192D01*
X89281750Y-95976912D01*
X89281729Y-95978381D01*
X89280888Y-96037202D01*
X89280888Y-96195533D01*
X89383359Y-96224710D01*
X89485830Y-96253887D01*
X89485830Y-96396637D01*
X89485830Y-96539387D01*
X89382257Y-96570979D01*
X89278684Y-96602572D01*
X89276583Y-96730661D01*
X89275828Y-96783030D01*
X87154614Y-96783030D01*
X87154614Y-96365608D01*
X86914448Y-96365218D01*
X86913725Y-96365217D01*
X86837888Y-96364552D01*
X86774706Y-96362949D01*
X86727420Y-96360569D01*
X86699269Y-96357576D01*
X86693495Y-96354132D01*
X86700003Y-96351370D01*
X86728824Y-96340122D01*
X86778735Y-96321057D01*
X86847937Y-96294851D01*
X86934632Y-96262178D01*
X87037021Y-96223715D01*
X87153304Y-96180136D01*
X87281683Y-96132117D01*
X87420360Y-96080334D01*
X87567534Y-96025462D01*
X87721407Y-95968176D01*
X88730106Y-95592916D01*
X88730106Y-95550609D01*
X89276718Y-95550609D01*
X89276989Y-95599525D01*
X89278106Y-95658056D01*
X89281729Y-95802295D01*
X89822483Y-95798954D01*
X90363238Y-95795613D01*
X90362860Y-95507413D01*
X90362755Y-95454857D01*
X90362258Y-95372439D01*
X90361114Y-95309787D01*
X90359016Y-95263064D01*
X90355656Y-95228435D01*
X90350727Y-95202066D01*
X90343922Y-95180119D01*
X90334933Y-95158761D01*
X90314756Y-95121736D01*
X90260131Y-95053534D01*
X90191438Y-94995983D01*
X90116295Y-94956143D01*
X90045251Y-94937655D01*
X89953483Y-94934601D01*
X89863217Y-94952344D01*
X89780367Y-94989590D01*
X89710848Y-95045040D01*
X89699689Y-95056624D01*
X89679212Y-95074007D01*
X89663199Y-95075785D01*
X89642651Y-95064529D01*
X89636009Y-95060263D01*
X89606687Y-95041888D01*
X89562244Y-95014357D01*
X89507443Y-94980615D01*
X89447046Y-94943604D01*
X89282074Y-94842751D01*
X89282064Y-94842960D01*
X89278278Y-94922107D01*
X89277036Y-94966720D01*
X89277029Y-95032178D01*
X89278678Y-95093766D01*
X89282872Y-95186069D01*
X89441991Y-95284631D01*
X89601110Y-95383194D01*
X89601110Y-95438899D01*
X89601110Y-95494604D01*
X89441755Y-95494604D01*
X89436173Y-95494610D01*
X89375899Y-95495458D01*
X89326170Y-95497538D01*
X89292010Y-95500554D01*
X89278441Y-95504211D01*
X89277281Y-95516876D01*
X89276718Y-95550609D01*
X88730106Y-95550609D01*
X88730106Y-95359402D01*
X88730037Y-95305583D01*
X88729483Y-95236224D01*
X88728099Y-95186769D01*
X88725555Y-95153675D01*
X88721524Y-95133401D01*
X88715678Y-95122402D01*
X88707690Y-95117137D01*
X88695889Y-95112661D01*
X88659216Y-95098917D01*
X88598546Y-95076260D01*
X88513893Y-95044696D01*
X88405266Y-95004227D01*
X88272677Y-94954859D01*
X88116136Y-94896595D01*
X87935655Y-94829439D01*
X87731245Y-94753396D01*
X87502916Y-94668469D01*
X87338857Y-94607455D01*
X89276923Y-94607455D01*
X89278274Y-94665368D01*
X89282064Y-94751967D01*
X89822651Y-94748626D01*
X90363238Y-94745285D01*
X90363157Y-94463490D01*
X90363087Y-94397753D01*
X90362640Y-94320256D01*
X90361476Y-94261716D01*
X90359253Y-94218171D01*
X90355626Y-94185662D01*
X90350252Y-94160228D01*
X90342787Y-94137908D01*
X90332887Y-94114742D01*
X90315915Y-94082836D01*
X90265604Y-94016936D01*
X90202454Y-93959545D01*
X90134928Y-93919030D01*
X90066158Y-93895825D01*
X89971722Y-93885904D01*
X89878535Y-93901027D01*
X89788146Y-93940886D01*
X89702105Y-94005173D01*
X89668608Y-94035876D01*
X89479365Y-93919507D01*
X89427285Y-93887708D01*
X89371986Y-93854510D01*
X89327698Y-93828561D01*
X89298000Y-93811955D01*
X89286475Y-93806784D01*
X89286221Y-93807561D01*
X89284869Y-93825099D01*
X89283429Y-93861076D01*
X89282022Y-93909534D01*
X89280888Y-93959451D01*
X89280773Y-93964513D01*
X89279803Y-94020055D01*
X89279236Y-94070199D01*
X89279195Y-94108987D01*
X89279802Y-94130459D01*
X89281809Y-94133498D01*
X89300607Y-94148862D01*
X89335966Y-94173398D01*
X89383955Y-94204443D01*
X89440639Y-94239334D01*
X89600326Y-94335401D01*
X89600718Y-94389839D01*
X89601110Y-94444276D01*
X89442184Y-94444276D01*
X89283259Y-94444276D01*
X89278871Y-94511523D01*
X89277378Y-94547933D01*
X89276923Y-94607455D01*
X87338857Y-94607455D01*
X87250681Y-94574662D01*
X87155757Y-94539352D01*
X87047926Y-94499217D01*
X86949078Y-94462399D01*
X86861717Y-94429832D01*
X86788348Y-94402451D01*
X86731477Y-94381190D01*
X86693609Y-94366983D01*
X86677248Y-94360766D01*
X86670382Y-94359225D01*
X86664927Y-94362785D01*
X86661017Y-94374488D01*
X86658464Y-94397246D01*
X86657078Y-94433970D01*
X86656670Y-94487574D01*
X86657052Y-94560968D01*
X86658035Y-94657064D01*
X86661473Y-94962435D01*
X86863212Y-95026092D01*
X87064952Y-95089748D01*
X87064952Y-95360189D01*
X87064952Y-95630629D01*
X86860010Y-95692744D01*
X86655068Y-95754860D01*
X86040242Y-95754860D01*
X86040242Y-95212809D01*
X86040242Y-93736791D01*
X86655043Y-93736791D01*
X86655088Y-93840074D01*
X86655504Y-93936422D01*
X86656305Y-94022722D01*
X86657503Y-94095861D01*
X86659111Y-94152725D01*
X86661141Y-94190202D01*
X86663607Y-94205177D01*
X86666253Y-94205724D01*
X86689956Y-94207028D01*
X86736556Y-94208262D01*
X86804119Y-94209410D01*
X86890711Y-94210457D01*
X86994398Y-94211387D01*
X87113246Y-94212183D01*
X87245321Y-94212830D01*
X87388688Y-94213312D01*
X87541414Y-94213613D01*
X87701565Y-94213717D01*
X88730983Y-94213717D01*
X88727342Y-93550857D01*
X88726551Y-93406758D01*
X89280888Y-93406758D01*
X89280888Y-93560603D01*
X89280888Y-93714449D01*
X89822063Y-93711107D01*
X90363238Y-93707766D01*
X90366846Y-93557262D01*
X90370455Y-93406758D01*
X89825671Y-93406758D01*
X89395715Y-93406758D01*
X89280888Y-93406758D01*
X88726551Y-93406758D01*
X88723702Y-92887998D01*
X88716956Y-92874300D01*
X89268642Y-92874300D01*
X89276965Y-92970247D01*
X89294272Y-93059484D01*
X89301326Y-93085051D01*
X89320916Y-93146269D01*
X89342297Y-93202431D01*
X89363322Y-93248627D01*
X89381844Y-93279947D01*
X89395715Y-93291478D01*
X89401812Y-93289695D01*
X89427099Y-93279128D01*
X89465809Y-93261556D01*
X89511921Y-93239864D01*
X89559416Y-93216937D01*
X89602271Y-93195662D01*
X89634467Y-93178925D01*
X89649981Y-93169610D01*
X89646881Y-93157670D01*
X89634618Y-93129153D01*
X89615851Y-93090364D01*
X89586091Y-93024882D01*
X89559577Y-92948779D01*
X89543710Y-92879200D01*
X89539062Y-92820043D01*
X89546203Y-92775205D01*
X89565707Y-92748583D01*
X89574790Y-92744371D01*
X89597869Y-92747963D01*
X89621160Y-92773353D01*
X89645550Y-92821759D01*
X89671927Y-92894402D01*
X89672172Y-92895154D01*
X89702691Y-92984361D01*
X89730054Y-93052892D01*
X89756454Y-93105090D01*
X89784087Y-93145296D01*
X89815144Y-93177854D01*
X89833517Y-93193511D01*
X89894952Y-93231568D01*
X89961664Y-93249035D01*
X90041017Y-93248207D01*
X90045576Y-93247710D01*
X90140592Y-93225915D01*
X90220299Y-93183655D01*
X90285317Y-93120482D01*
X90336267Y-93035951D01*
X90338954Y-93030007D01*
X90351072Y-92996724D01*
X90358494Y-92959235D01*
X90362218Y-92910422D01*
X90363238Y-92843167D01*
X90363215Y-92833023D01*
X90361041Y-92761895D01*
X90353994Y-92701217D01*
X90340200Y-92642768D01*
X90317784Y-92578329D01*
X90284868Y-92499679D01*
X90255020Y-92431583D01*
X90142613Y-92492013D01*
X90111613Y-92508830D01*
X90067163Y-92533530D01*
X90034383Y-92552492D01*
X90018759Y-92562591D01*
X90016961Y-92574093D01*
X90024401Y-92603615D01*
X90040969Y-92643824D01*
X90041016Y-92643923D01*
X90073091Y-92722108D01*
X90092592Y-92792785D01*
X90099137Y-92852485D01*
X90092345Y-92897736D01*
X90071836Y-92925067D01*
X90061628Y-92930283D01*
X90041970Y-92931330D01*
X90023039Y-92917135D01*
X90003120Y-92885291D01*
X89980496Y-92833390D01*
X89953450Y-92759025D01*
X89952903Y-92757442D01*
X89931233Y-92696038D01*
X89911012Y-92641058D01*
X89894480Y-92598455D01*
X89883878Y-92574181D01*
X89875091Y-92558861D01*
X89829307Y-92501987D01*
X89771766Y-92455408D01*
X89711086Y-92426490D01*
X89644396Y-92412669D01*
X89553980Y-92413579D01*
X89470885Y-92437143D01*
X89398118Y-92481895D01*
X89338686Y-92546369D01*
X89295597Y-92629099D01*
X89278853Y-92693615D01*
X89269280Y-92779478D01*
X89268642Y-92874300D01*
X88716956Y-92874300D01*
X88693859Y-92827404D01*
X88692193Y-92824054D01*
X88631394Y-92731094D01*
X88550321Y-92652480D01*
X88451208Y-92590395D01*
X88418066Y-92574227D01*
X88382706Y-92558832D01*
X88351135Y-92549371D01*
X88316001Y-92544401D01*
X88269954Y-92542478D01*
X88205641Y-92542158D01*
X88159209Y-92542454D01*
X88101955Y-92544566D01*
X88058439Y-92549552D01*
X88021391Y-92558393D01*
X87983546Y-92572064D01*
X87971301Y-92577403D01*
X87917585Y-92607975D01*
X87861660Y-92648948D01*
X87809816Y-92694877D01*
X87768343Y-92740317D01*
X87743532Y-92779824D01*
X87727245Y-92819144D01*
X87690571Y-92742732D01*
X87682939Y-92727411D01*
X87620991Y-92631994D01*
X87543541Y-92553522D01*
X87454021Y-92495583D01*
X87428774Y-92483558D01*
X87389921Y-92468074D01*
X87351110Y-92458360D01*
X87303788Y-92452552D01*
X87239402Y-92448783D01*
X87197744Y-92447548D01*
X87107594Y-92451115D01*
X87032898Y-92465451D01*
X86967453Y-92492113D01*
X86905053Y-92532658D01*
X86871095Y-92561261D01*
X86798323Y-92645623D01*
X86739883Y-92750008D01*
X86696393Y-92873157D01*
X86668472Y-93013811D01*
X86666547Y-93034440D01*
X86664075Y-93081131D01*
X86661872Y-93145792D01*
X86659953Y-93225309D01*
X86658329Y-93316571D01*
X86657014Y-93416463D01*
X86656019Y-93521872D01*
X86655358Y-93629686D01*
X86655043Y-93736791D01*
X86040242Y-93736791D01*
X86040242Y-91754413D01*
X88518682Y-91754413D01*
X90997122Y-91754413D01*
X90997183Y-95212809D01*
G37*
D12*
%TO.C,R306*%
X89653641Y-106120000D02*
X89346359Y-106120000D01*
X89653641Y-106880000D02*
X89346359Y-106880000D01*
%TO.C,R701*%
X94146359Y-113220000D02*
X94453641Y-113220000D01*
X94146359Y-113980000D02*
X94453641Y-113980000D01*
%TO.C,R504*%
X113253641Y-103020000D02*
X112946359Y-103020000D01*
X113253641Y-103780000D02*
X112946359Y-103780000D01*
%TO.C,C308*%
X100807836Y-95830000D02*
X100592164Y-95830000D01*
X100807836Y-96550000D02*
X100592164Y-96550000D01*
%TO.C,R204*%
X104853641Y-94320000D02*
X104546359Y-94320000D01*
X104853641Y-95080000D02*
X104546359Y-95080000D01*
%TO.C,C502*%
X113740000Y-100992164D02*
X113740000Y-101207836D01*
X114460000Y-100992164D02*
X114460000Y-101207836D01*
%TO.C,R307*%
X88720000Y-101046359D02*
X88720000Y-101353641D01*
X89480000Y-101046359D02*
X89480000Y-101353641D01*
%TO.C,C203*%
X103140580Y-91990000D02*
X102859420Y-91990000D01*
X103140580Y-93010000D02*
X102859420Y-93010000D01*
%TO.C,C602*%
X102040000Y-113592164D02*
X102040000Y-113807836D01*
X102760000Y-113592164D02*
X102760000Y-113807836D01*
%TO.C,C501*%
X112390000Y-100959420D02*
X112390000Y-101240580D01*
X113410000Y-100959420D02*
X113410000Y-101240580D01*
%TO.C,C303*%
X96640580Y-107090000D02*
X96359420Y-107090000D01*
X96640580Y-108110000D02*
X96359420Y-108110000D01*
%TO.C,R507*%
X113153641Y-96420000D02*
X112846359Y-96420000D01*
X113153641Y-97180000D02*
X112846359Y-97180000D01*
%TO.C,U602*%
X103190000Y-111765000D02*
X103190000Y-110965000D01*
X103190000Y-113635000D02*
X103190000Y-114435000D01*
X103190000Y-114435000D02*
X103365000Y-114435000D01*
X106410000Y-110965000D02*
X106235000Y-110965000D01*
X106410000Y-111765000D02*
X106410000Y-110965000D01*
X106410000Y-113635000D02*
X106410000Y-114435000D01*
X106410000Y-114435000D02*
X106235000Y-114435000D01*
%TO.C,R702*%
X99220000Y-115553641D02*
X99220000Y-115246359D01*
X99980000Y-115553641D02*
X99980000Y-115246359D01*
%TO.C,R202*%
X93546359Y-90920000D02*
X93853641Y-90920000D01*
X93546359Y-91680000D02*
X93853641Y-91680000D01*
%TO.C,FB501*%
X114290000Y-98437221D02*
X114290000Y-98762779D01*
X115310000Y-98437221D02*
X115310000Y-98762779D01*
%TO.C,R207*%
X109320000Y-93353641D02*
X109320000Y-93046359D01*
X110080000Y-93353641D02*
X110080000Y-93046359D01*
%TO.C,R206*%
X104853641Y-93320000D02*
X104546359Y-93320000D01*
X104853641Y-94080000D02*
X104546359Y-94080000D01*
%TO.C,U201*%
X95190000Y-88390000D02*
X95190000Y-89115000D01*
X95190000Y-92610000D02*
X95190000Y-91885000D01*
X95915000Y-88390000D02*
X95190000Y-88390000D01*
X95915000Y-92610000D02*
X95190000Y-92610000D01*
X98685000Y-88390000D02*
X99410000Y-88390000D01*
X98685000Y-92610000D02*
X99410000Y-92610000D01*
X99410000Y-92610000D02*
X99410000Y-91885000D01*
%TO.C,C606*%
X110540000Y-108107836D02*
X110540000Y-107892164D01*
X111260000Y-108107836D02*
X111260000Y-107892164D01*
%TO.C,C305*%
X97490000Y-96940580D02*
X97490000Y-96659420D01*
X98510000Y-96940580D02*
X98510000Y-96659420D01*
%TO.C,R208*%
X107320000Y-93353641D02*
X107320000Y-93046359D01*
X108080000Y-93353641D02*
X108080000Y-93046359D01*
%TO.C,R503*%
X113253641Y-104120000D02*
X112946359Y-104120000D01*
X113253641Y-104880000D02*
X112946359Y-104880000D01*
%TO.C,C605*%
X110540000Y-105892164D02*
X110540000Y-106107836D01*
X111260000Y-105892164D02*
X111260000Y-106107836D01*
%TO.C,R305*%
X89720000Y-103846359D02*
X89720000Y-104153641D01*
X90480000Y-103846359D02*
X90480000Y-104153641D01*
%TO.C,R501*%
X108553641Y-100920000D02*
X108246359Y-100920000D01*
X108553641Y-101680000D02*
X108246359Y-101680000D01*
%TO.C,C309*%
X91092164Y-100040000D02*
X91307836Y-100040000D01*
X91092164Y-100760000D02*
X91307836Y-100760000D01*
%TO.C,C204*%
X93290000Y-88340580D02*
X93290000Y-88059420D01*
X94310000Y-88340580D02*
X94310000Y-88059420D01*
%TO.C,U603*%
X107540000Y-106065000D02*
X107540000Y-105390000D01*
X107540000Y-107935000D02*
X107540000Y-108610000D01*
X107540000Y-108610000D02*
X107715000Y-108610000D01*
X110260000Y-105390000D02*
X110085000Y-105390000D01*
X110260000Y-106065000D02*
X110260000Y-105390000D01*
X110260000Y-107935000D02*
X110260000Y-108610000D01*
X110260000Y-108610000D02*
X110085000Y-108610000D01*
%TO.C,R205*%
X104853641Y-95320000D02*
X104546359Y-95320000D01*
X104853641Y-96080000D02*
X104546359Y-96080000D01*
%TO.C,R502*%
X103820000Y-97346359D02*
X103820000Y-97653641D01*
X104580000Y-97346359D02*
X104580000Y-97653641D01*
%TD*%
%LPC*%
D14*
%TO.C,H703*%
X88500000Y-88500000D03*
%TD*%
%TO.C,H702*%
X111500000Y-88500000D03*
%TD*%
%TO.C,H701*%
X111500000Y-111500000D03*
%TD*%
D15*
%TO.C,J301*%
X85500000Y-107040000D03*
X84484000Y-101960000D03*
X86516000Y-101960000D03*
%TD*%
D16*
%TO.C,J401*%
X96400000Y-84175000D03*
D17*
X97575000Y-86800000D03*
X102425000Y-86800000D03*
D16*
X103600000Y-84175000D03*
%TD*%
D14*
%TO.C,H704*%
X88500000Y-111500000D03*
%TD*%
D18*
%TO.C,D501*%
X102385000Y-98000000D03*
X101415000Y-98000000D03*
%TD*%
D19*
%TO.C,R505*%
X113510000Y-99100000D03*
X112490000Y-99100000D03*
%TD*%
D20*
%TO.C,U202*%
X103750000Y-88462500D03*
X104700000Y-88462500D03*
X105650000Y-88462500D03*
X105650000Y-90737500D03*
X103750000Y-90737500D03*
%TD*%
D18*
%TO.C,L301*%
X91685000Y-99400000D03*
X90715000Y-99400000D03*
%TD*%
D21*
%TO.C,C701*%
X95600000Y-114905000D03*
X95600000Y-115865000D03*
%TD*%
D22*
%TO.C,C202*%
X102200000Y-89425000D03*
X102200000Y-90975000D03*
%TD*%
D23*
%TO.C,FB701*%
X92812500Y-115100000D03*
X94387500Y-115100000D03*
%TD*%
D24*
%TO.C,R203*%
X100400000Y-92710000D03*
X100400000Y-91690000D03*
%TD*%
D25*
%TO.C,D701*%
X96600000Y-114915000D03*
X96600000Y-115885000D03*
%TD*%
D21*
%TO.C,C601*%
X104400000Y-106220000D03*
X104400000Y-107180000D03*
%TD*%
D26*
%TO.C,R201*%
X93190000Y-90300000D03*
X94210000Y-90300000D03*
%TD*%
D21*
%TO.C,C604*%
X102400000Y-111220000D03*
X102400000Y-112180000D03*
%TD*%
D27*
%TO.C,C603*%
X105300000Y-108100000D03*
X104340000Y-108100000D03*
%TD*%
D24*
%TO.C,R209*%
X108700000Y-93710000D03*
X108700000Y-92690000D03*
%TD*%
D22*
%TO.C,C201*%
X100700000Y-87025000D03*
X100700000Y-88575000D03*
%TD*%
D25*
%TO.C,D703*%
X98600000Y-114915000D03*
X98600000Y-115885000D03*
%TD*%
D28*
%TO.C,C310*%
X90720000Y-101400000D03*
X91680000Y-101400000D03*
%TD*%
D25*
%TO.C,D504*%
X109900000Y-101315000D03*
X109900000Y-102285000D03*
%TD*%
D29*
%TO.C,U601*%
X101650000Y-106537500D03*
X102150000Y-106537500D03*
X102650000Y-106537500D03*
X103150000Y-106537500D03*
D30*
X103312500Y-107200000D03*
X103312500Y-107700000D03*
X103312500Y-108200000D03*
D29*
X103150000Y-108862500D03*
X102650000Y-108862500D03*
X102150000Y-108862500D03*
X101650000Y-108862500D03*
D30*
X101487500Y-108200000D03*
X101487500Y-107700000D03*
X101487500Y-107200000D03*
%TD*%
D31*
%TO.C,FB201*%
X99200000Y-85512500D03*
X99200000Y-87087500D03*
%TD*%
D26*
%TO.C,R602*%
X100490000Y-115800000D03*
X101510000Y-115800000D03*
%TD*%
D19*
%TO.C,R506*%
X113510000Y-98000000D03*
X112490000Y-98000000D03*
%TD*%
%TO.C,R306*%
X90010000Y-106500000D03*
X88990000Y-106500000D03*
%TD*%
D26*
%TO.C,R701*%
X93790000Y-113600000D03*
X94810000Y-113600000D03*
%TD*%
D19*
%TO.C,R504*%
X113610000Y-103400000D03*
X112590000Y-103400000D03*
%TD*%
D27*
%TO.C,C308*%
X101180000Y-96190000D03*
X100220000Y-96190000D03*
%TD*%
D19*
%TO.C,R204*%
X105210000Y-94700000D03*
X104190000Y-94700000D03*
%TD*%
D21*
%TO.C,C502*%
X114100000Y-100620000D03*
X114100000Y-101580000D03*
%TD*%
D32*
%TO.C,R307*%
X89100000Y-100690000D03*
X89100000Y-101710000D03*
%TD*%
D33*
%TO.C,C203*%
X103775000Y-92500000D03*
X102225000Y-92500000D03*
%TD*%
D21*
%TO.C,C602*%
X102400000Y-113220000D03*
X102400000Y-114180000D03*
%TD*%
D34*
%TO.C,N703*%
X81850000Y-100000000D03*
%TD*%
D18*
%TO.C,D507*%
X110885000Y-98000000D03*
X109915000Y-98000000D03*
%TD*%
D22*
%TO.C,C501*%
X112900000Y-100325000D03*
X112900000Y-101875000D03*
%TD*%
D35*
%TO.C,D306*%
X89115000Y-102600000D03*
X90085000Y-102600000D03*
%TD*%
D25*
%TO.C,D702*%
X97600000Y-114915000D03*
X97600000Y-115885000D03*
%TD*%
D33*
%TO.C,C303*%
X97275000Y-107600000D03*
X95725000Y-107600000D03*
%TD*%
D19*
%TO.C,R507*%
X113510000Y-96800000D03*
X112490000Y-96800000D03*
%TD*%
D36*
%TO.C,U602*%
X103800000Y-111412500D03*
X104300000Y-111412500D03*
X104800000Y-111412500D03*
X105300000Y-111412500D03*
X105800000Y-111412500D03*
D37*
X106075000Y-112200000D03*
X106075000Y-112700000D03*
X106075000Y-113200000D03*
D36*
X105800000Y-113987500D03*
X105300000Y-113987500D03*
X104800000Y-113987500D03*
X104300000Y-113987500D03*
X103800000Y-113987500D03*
D37*
X103525000Y-113200000D03*
X103525000Y-112700000D03*
X103525000Y-112200000D03*
%TD*%
D24*
%TO.C,R702*%
X99600000Y-115910000D03*
X99600000Y-114890000D03*
%TD*%
D38*
%TO.C,N704*%
X118150000Y-100000000D03*
%TD*%
D26*
%TO.C,R202*%
X93190000Y-91300000D03*
X94210000Y-91300000D03*
%TD*%
D31*
%TO.C,FB501*%
X114800000Y-97812500D03*
X114800000Y-99387500D03*
%TD*%
D24*
%TO.C,R207*%
X109700000Y-93710000D03*
X109700000Y-92690000D03*
%TD*%
D25*
%TO.C,D305*%
X89000000Y-107515000D03*
X89000000Y-108485000D03*
%TD*%
D18*
%TO.C,D503*%
X110885000Y-103400000D03*
X109915000Y-103400000D03*
%TD*%
D25*
%TO.C,D304*%
X89000000Y-104515000D03*
X89000000Y-105485000D03*
%TD*%
D19*
%TO.C,R206*%
X105210000Y-93700000D03*
X104190000Y-93700000D03*
%TD*%
D39*
%TO.C,U201*%
X99237500Y-89500000D03*
X99237500Y-90000000D03*
X99237500Y-90500000D03*
X99237500Y-91000000D03*
X99237500Y-91500000D03*
D40*
X98300000Y-92437500D03*
X97800000Y-92437500D03*
X97300000Y-92437500D03*
X96800000Y-92437500D03*
X96300000Y-92437500D03*
D39*
X95362500Y-91500000D03*
X95362500Y-91000000D03*
X95362500Y-90500000D03*
X95362500Y-90000000D03*
X95362500Y-89500000D03*
D40*
X96300000Y-88562500D03*
X96800000Y-88562500D03*
X97300000Y-88562500D03*
X97800000Y-88562500D03*
X98300000Y-88562500D03*
D41*
X97300000Y-90500000D03*
%TD*%
D18*
%TO.C,D508*%
X110885000Y-96800000D03*
X109915000Y-96800000D03*
%TD*%
D42*
%TO.C,C606*%
X110900000Y-108480000D03*
X110900000Y-107520000D03*
%TD*%
D43*
%TO.C,C305*%
X98000000Y-97575000D03*
X98000000Y-96025000D03*
%TD*%
D24*
%TO.C,R208*%
X107700000Y-93710000D03*
X107700000Y-92690000D03*
%TD*%
D19*
%TO.C,R503*%
X113610000Y-104500000D03*
X112590000Y-104500000D03*
%TD*%
D18*
%TO.C,D502*%
X110885000Y-104500000D03*
X109915000Y-104500000D03*
%TD*%
D21*
%TO.C,C605*%
X110900000Y-105520000D03*
X110900000Y-106480000D03*
%TD*%
D25*
%TO.C,D506*%
X115100000Y-100615000D03*
X115100000Y-101585000D03*
%TD*%
D32*
%TO.C,R305*%
X90100000Y-103490000D03*
X90100000Y-104510000D03*
%TD*%
D19*
%TO.C,R501*%
X108910000Y-101300000D03*
X107890000Y-101300000D03*
%TD*%
D18*
%TO.C,D505*%
X110885000Y-99100000D03*
X109915000Y-99100000D03*
%TD*%
D28*
%TO.C,C309*%
X90720000Y-100400000D03*
X91680000Y-100400000D03*
%TD*%
D43*
%TO.C,C204*%
X93800000Y-88975000D03*
X93800000Y-87425000D03*
%TD*%
D29*
%TO.C,U603*%
X108150000Y-105837500D03*
X108650000Y-105837500D03*
X109150000Y-105837500D03*
X109650000Y-105837500D03*
D30*
X109812500Y-106500000D03*
X109812500Y-107000000D03*
X109812500Y-107500000D03*
D29*
X109650000Y-108162500D03*
X109150000Y-108162500D03*
X108650000Y-108162500D03*
X108150000Y-108162500D03*
D30*
X107987500Y-107500000D03*
X107987500Y-107000000D03*
X107987500Y-106500000D03*
%TD*%
D19*
%TO.C,R205*%
X105210000Y-95700000D03*
X104190000Y-95700000D03*
%TD*%
D32*
%TO.C,R502*%
X104200000Y-96990000D03*
X104200000Y-98010000D03*
%TD*%
%LPD*%
M02*
