M48
; DRILL file {KiCad 8.0.4} date 2024-12-05T11:14:02-0500
; FORMAT={-:-/ absolute / inch / decimal}
; #@! TF.CreationDate,2024-12-05T11:14:02-05:00
; #@! TF.GenerationSoftware,Kicad,Pcbnew,8.0.4
; #@! TF.FileFunction,Plated,1,4,PTH
FMAT,2
INCH
; #@! TA.AperFunction,Plated,PTH,ViaDrill
T1C0.0098
; #@! TA.AperFunction,Plated,PTH,ViaDrill
T2C0.0118
; #@! TA.AperFunction,Plated,PTH,ComponentDrill
T3C0.0197
; #@! TA.AperFunction,Plated,PTH,ComponentDrill
T4C0.0276
; #@! TA.AperFunction,Plated,PTH,ComponentDrill
T5C0.0866
%
G90
G05
T1
X3.3031Y-4.063
X3.3031Y-4.1142
X3.3043Y-4.1642
X3.3819Y-3.5906
X3.4173Y-3.7283
X3.437Y-4.0955
X3.6063Y-3.8801
X3.6063Y-4.1063
X3.6279Y-3.7758
X3.6417Y-4.1063
X3.6614Y-4.4961
X3.6638Y-4.4583
X3.6661Y-3.7913
X3.6811Y-4.3425
X3.6969Y-4.311
X3.7028Y-3.8012
X3.7174Y-4.0976
X3.7244Y-3.9528
X3.7349Y-3.8451
X3.752Y-4.0433
X3.7598Y-3.7835
X3.7638Y-3.6457
X3.7638Y-4.0984
X3.7835Y-3.4488
X3.7874Y-3.8661
X3.7953Y-3.9685
X3.8189Y-3.8543
X3.8209Y-4.1043
X3.8425Y-4.0315
X3.8566Y-4.3307
X3.8583Y-3.5394
X3.8583Y-3.5866
X3.8661Y-3.9921
X3.8701Y-4.2717
X3.874Y-4.0748
X3.8937Y-4.0276
X3.9016Y-3.9685
X3.9016Y-4.0984
X3.9032Y-3.6559
X3.9291Y-3.752
X3.9715Y-3.6968
X3.9748Y-4.2834
X3.9961Y-4.1456
X4.0404Y-3.4639
X4.0622Y-3.7579
X4.066Y-3.7973
X4.0669Y-3.8583
X4.0788Y-4.5786
X4.1614Y-3.3228
X4.187Y-4.2146
X4.189Y-3.7008
X4.1936Y-4.2728
X4.1969Y-4.315
X4.2155Y-4.1664
X4.227Y-4.2709
X4.2323Y-3.3583
X4.2402Y-3.7244
X4.2598Y-4.4134
X4.2795Y-3.7244
X4.2874Y-3.8583
X4.2874Y-3.9016
X4.2874Y-4.0709
X4.2874Y-4.1142
X4.2874Y-4.2047
X4.2913Y-3.815
X4.3189Y-3.7244
X4.3268Y-3.9449
X4.3622Y-4.027
X4.3937Y-4.027
X4.3976Y-3.9852
X4.3978Y-3.8114
X4.398Y-3.9004
X4.3982Y-3.8575
X4.3998Y-4.0717
X4.4Y-4.1143
X4.4031Y-4.152
X4.4055Y-3.6969
X4.406Y-3.7288
X4.4094Y-4.2362
T2
X3.2657Y-3.9329
X3.2957Y-3.748
X3.3311Y-3.7126
X3.4016Y-3.6693
X3.4094Y-4.2677
X3.44Y-4.0472
X3.4449Y-3.622
X3.4449Y-3.8661
X3.4764Y-3.7165
X3.4764Y-3.7559
X3.4882Y-3.622
X3.5236Y-3.622
X3.5433Y-4.1535
X3.5591Y-3.622
X3.5669Y-3.5709
X3.5787Y-3.3937
X3.583Y-4.0306
X3.5906Y-3.6575
X3.5906Y-4.2555
X3.6229Y-4.0274
X3.6299Y-4.2555
X3.6457Y-3.6437
X3.6496Y-3.9479
X3.6929Y-3.9134
X3.7362Y-3.4409
X3.7521Y-4.3011
X3.7638Y-4.5978
X3.7677Y-4.4843
X3.7818Y-4.2891
X3.8031Y-4.4843
X3.8031Y-4.5978
X3.8425Y-4.4843
X3.8425Y-4.5978
X3.8642Y-3.3759
X3.874Y-4.2244
X3.8819Y-4.4843
X3.8819Y-4.5978
X3.8947Y-3.7785
X3.9009Y-3.8133
X3.9606Y-4.1295
X3.9732Y-3.3666
X4.001Y-4.4173
X4.001Y-4.4921
X4.0709Y-4.3386
X4.1079Y-4.2835
X4.1171Y-3.4449
X4.3947Y-3.9419
X4.4764Y-4.2795
X4.5276Y-3.7184
X4.5512Y-3.689
T4
X3.8415Y-3.4173
X4.0325Y-3.4173
T5
X3.4843Y-3.4843
X3.4843Y-4.3898
X4.3898Y-3.4843
X4.3898Y-4.3898
T3
G00X3.7953Y-3.2982
M15
G01X3.7953Y-3.3297
M16
G05
G00X4.0787Y-3.2982
M15
G01X4.0787Y-3.3297
M16
G05
M30
