%TF.GenerationSoftware,KiCad,Pcbnew,8.0.4*%
%TF.CreationDate,2024-12-05T11:14:02-05:00*%
%TF.ProjectId,IMpack,494d7061-636b-42e6-9b69-6361645f7063,rev?*%
%TF.SameCoordinates,Original*%
%TF.FileFunction,Soldermask,Top*%
%TF.FilePolarity,Negative*%
%FSLAX46Y46*%
G04 Gerber Fmt 4.6, Leading zero omitted, Abs format (unit mm)*
G04 Created by KiCad (PCBNEW 8.0.4) date 2024-12-05 11:14:02*
%MOMM*%
%LPD*%
G01*
G04 APERTURE LIST*
G04 APERTURE END LIST*
G36*
X92664929Y-82830887D02*
G01*
X92664944Y-82830887D01*
X92793354Y-82839736D01*
X92793365Y-82839738D01*
X92795772Y-82839904D01*
X92796956Y-82840131D01*
X92799254Y-82840868D01*
X92799257Y-82840869D01*
X92921832Y-82880197D01*
X92924135Y-82880936D01*
X92925229Y-82881440D01*
X92927282Y-82882704D01*
X92927289Y-82882708D01*
X93036888Y-82950225D01*
X93036891Y-82950227D01*
X93038947Y-82951494D01*
X93039890Y-82952245D01*
X93133538Y-83047479D01*
X93134273Y-83048434D01*
X93135507Y-83050515D01*
X93135508Y-83050516D01*
X93136265Y-83051792D01*
X93202409Y-83163311D01*
X93202895Y-83164415D01*
X93241560Y-83292261D01*
X93241767Y-83293448D01*
X93248712Y-83426832D01*
X93248629Y-83428035D01*
X93223452Y-83559204D01*
X93223084Y-83560351D01*
X93167247Y-83681684D01*
X93166615Y-83682711D01*
X93083364Y-83787156D01*
X93082504Y-83788001D01*
X92976677Y-83869487D01*
X92975641Y-83870102D01*
X92914601Y-83896959D01*
X92177997Y-84241617D01*
X92177169Y-84242028D01*
X91457762Y-84620125D01*
X91456955Y-84620573D01*
X91009293Y-84882953D01*
X91009258Y-84882973D01*
X91008094Y-84883711D01*
X90855243Y-84988076D01*
X90853181Y-84989691D01*
X90747484Y-85084276D01*
X90675441Y-85148746D01*
X90673612Y-85150612D01*
X90574742Y-85265660D01*
X90518158Y-85331502D01*
X90516590Y-85333586D01*
X90386070Y-85533229D01*
X90384784Y-85535510D01*
X90281443Y-85750473D01*
X90280470Y-85752888D01*
X90206064Y-85979522D01*
X90205415Y-85982050D01*
X90161233Y-86216428D01*
X90160917Y-86219028D01*
X90147705Y-86457175D01*
X90147730Y-86459789D01*
X90161700Y-86644517D01*
X90165716Y-86697627D01*
X90166080Y-86700201D01*
X90198535Y-86855221D01*
X90214958Y-86933665D01*
X90215661Y-86936188D01*
X90294590Y-87161264D01*
X90295616Y-87163673D01*
X90403624Y-87377266D01*
X90404237Y-87378388D01*
X90417006Y-87400000D01*
X90436567Y-87433107D01*
X90436569Y-87433112D01*
X90437798Y-87435192D01*
X90438281Y-87436296D01*
X90438974Y-87438602D01*
X90438978Y-87438611D01*
X90461555Y-87513735D01*
X90462392Y-87515860D01*
X90532535Y-87658096D01*
X90625037Y-87930598D01*
X90681179Y-88212842D01*
X90700000Y-88500000D01*
X90681179Y-88787158D01*
X90625037Y-89069402D01*
X90532535Y-89341904D01*
X90405256Y-89600000D01*
X90245377Y-89839275D01*
X90055635Y-90055635D01*
X89839275Y-90245377D01*
X89600000Y-90405256D01*
X89341904Y-90532535D01*
X89069402Y-90625037D01*
X88787158Y-90681179D01*
X88500000Y-90700000D01*
X88212842Y-90681179D01*
X87930598Y-90625037D01*
X87658096Y-90532535D01*
X87475340Y-90442410D01*
X87473208Y-90441570D01*
X87444612Y-90432976D01*
X87444607Y-90432974D01*
X87442295Y-90432279D01*
X87441191Y-90431796D01*
X87384392Y-90398239D01*
X87383249Y-90397614D01*
X87211621Y-90310827D01*
X87169669Y-90289613D01*
X87167262Y-90288588D01*
X86942184Y-90209659D01*
X86939661Y-90208956D01*
X86915076Y-90203809D01*
X86706197Y-90160080D01*
X86703625Y-90159716D01*
X86465783Y-90141730D01*
X86463169Y-90141705D01*
X86225022Y-90154917D01*
X86222422Y-90155233D01*
X85988045Y-90199416D01*
X85985519Y-90200065D01*
X85758884Y-90274472D01*
X85756464Y-90275447D01*
X85541502Y-90378788D01*
X85539226Y-90380071D01*
X85339579Y-90510595D01*
X85337495Y-90512163D01*
X85156608Y-90667617D01*
X85154737Y-90669450D01*
X84995683Y-90847189D01*
X84994068Y-90849251D01*
X84873262Y-91026182D01*
X84872547Y-91027308D01*
X84789267Y-91168831D01*
X84635505Y-91430130D01*
X84635055Y-91430938D01*
X84419381Y-91839565D01*
X84255701Y-92149684D01*
X84255311Y-92150464D01*
X84232028Y-92200000D01*
X83909587Y-92886002D01*
X83909213Y-92886848D01*
X83809854Y-93126424D01*
X83597864Y-93637581D01*
X83597548Y-93638400D01*
X83321255Y-94402693D01*
X83320961Y-94403570D01*
X83159302Y-94925000D01*
X83098518Y-95121061D01*
X83080302Y-95179815D01*
X83080049Y-95180705D01*
X82875535Y-95967248D01*
X82875324Y-95968143D01*
X82837637Y-96146596D01*
X82707396Y-96763298D01*
X82707230Y-96764178D01*
X82603395Y-97400000D01*
X82576240Y-97566283D01*
X82576112Y-97567199D01*
X82482350Y-98374479D01*
X82482264Y-98375400D01*
X82426428Y-99178937D01*
X82425927Y-99186138D01*
X82425886Y-99187016D01*
X82415604Y-99631558D01*
X82407093Y-99999537D01*
X82407093Y-100000463D01*
X82425886Y-100812982D01*
X82425926Y-100813846D01*
X82466210Y-101393565D01*
X82482264Y-101624599D01*
X82482350Y-101625520D01*
X82576112Y-102432800D01*
X82576240Y-102433716D01*
X82707230Y-103235820D01*
X82707396Y-103236701D01*
X82875323Y-104031851D01*
X82875535Y-104032751D01*
X83080049Y-104819294D01*
X83080300Y-104820178D01*
X83119494Y-104946598D01*
X83320961Y-105596429D01*
X83321255Y-105597306D01*
X83597548Y-106361599D01*
X83597864Y-106362417D01*
X83785955Y-106815949D01*
X83909213Y-107113151D01*
X83909587Y-107113997D01*
X84099522Y-107518089D01*
X84255311Y-107849534D01*
X84255701Y-107850314D01*
X84347246Y-108023761D01*
X84635055Y-108569061D01*
X84635505Y-108569869D01*
X84746766Y-108758942D01*
X84858323Y-108948518D01*
X84872432Y-108972494D01*
X84873152Y-108973629D01*
X84994080Y-109150740D01*
X84995695Y-109152802D01*
X85154747Y-109330539D01*
X85156617Y-109332372D01*
X85337503Y-109487825D01*
X85339587Y-109489392D01*
X85539233Y-109619915D01*
X85541509Y-109621199D01*
X85756469Y-109724539D01*
X85758889Y-109725513D01*
X85985522Y-109799920D01*
X85988048Y-109800570D01*
X86222424Y-109844752D01*
X86225024Y-109845068D01*
X86463169Y-109858280D01*
X86465783Y-109858254D01*
X86703622Y-109840268D01*
X86706194Y-109839904D01*
X86939656Y-109791029D01*
X86942180Y-109790326D01*
X87167256Y-109711398D01*
X87169665Y-109710372D01*
X87211588Y-109689173D01*
X87287080Y-109650999D01*
X87383257Y-109602365D01*
X87384391Y-109601744D01*
X87441183Y-109568192D01*
X87442287Y-109567709D01*
X87444585Y-109567018D01*
X87444602Y-109567011D01*
X87473285Y-109558392D01*
X87475420Y-109557550D01*
X87658096Y-109467465D01*
X87930598Y-109374963D01*
X88212842Y-109318821D01*
X88500000Y-109300000D01*
X88787158Y-109318821D01*
X89069402Y-109374963D01*
X89341904Y-109467465D01*
X89600000Y-109594744D01*
X89839275Y-109754623D01*
X90055635Y-109944365D01*
X90245377Y-110160725D01*
X90405256Y-110400000D01*
X90532535Y-110658096D01*
X90625037Y-110930598D01*
X90681179Y-111212842D01*
X90700000Y-111500000D01*
X90681179Y-111787158D01*
X90625037Y-112069402D01*
X90532535Y-112341904D01*
X90462398Y-112484126D01*
X90461566Y-112486240D01*
X90438284Y-112563705D01*
X90437801Y-112564809D01*
X90417009Y-112600000D01*
X90404249Y-112621597D01*
X90403620Y-112622746D01*
X90295618Y-112836328D01*
X90294592Y-112838737D01*
X90215664Y-113063812D01*
X90214961Y-113066334D01*
X90166083Y-113299798D01*
X90165719Y-113302370D01*
X90161740Y-113355000D01*
X90147734Y-113540207D01*
X90147708Y-113542825D01*
X90160920Y-113780971D01*
X90161236Y-113783571D01*
X90205418Y-114017949D01*
X90206067Y-114020476D01*
X90280473Y-114247110D01*
X90281446Y-114249526D01*
X90384789Y-114464492D01*
X90386072Y-114466767D01*
X90516587Y-114666404D01*
X90518154Y-114668489D01*
X90574115Y-114733606D01*
X90673612Y-114849382D01*
X90675445Y-114851253D01*
X90853183Y-115010307D01*
X90855245Y-115011922D01*
X91008128Y-115116308D01*
X91009287Y-115117042D01*
X91354407Y-115319321D01*
X91456953Y-115379424D01*
X91457762Y-115379874D01*
X92177169Y-115757971D01*
X92177997Y-115758382D01*
X92914601Y-116103039D01*
X92975641Y-116129898D01*
X92976677Y-116130513D01*
X93082504Y-116211999D01*
X93083364Y-116212844D01*
X93084872Y-116214736D01*
X93084875Y-116214739D01*
X93124989Y-116265066D01*
X93166615Y-116317289D01*
X93167247Y-116318316D01*
X93223084Y-116439649D01*
X93223452Y-116440796D01*
X93248629Y-116571965D01*
X93248712Y-116573168D01*
X93241767Y-116706552D01*
X93241560Y-116707739D01*
X93202895Y-116835585D01*
X93202409Y-116836689D01*
X93134273Y-116951566D01*
X93133538Y-116952521D01*
X93039890Y-117047755D01*
X93038947Y-117048506D01*
X92925229Y-117118560D01*
X92924135Y-117119064D01*
X92796956Y-117159869D01*
X92795772Y-117160096D01*
X92793357Y-117160262D01*
X92793354Y-117160263D01*
X92664944Y-117169112D01*
X92664937Y-117169111D01*
X92662524Y-117169278D01*
X92661320Y-117169215D01*
X92529746Y-117146243D01*
X92528592Y-117145895D01*
X92467465Y-117118998D01*
X92467462Y-117118995D01*
X92451828Y-117112114D01*
X92451828Y-117112115D01*
X92079831Y-116948403D01*
X92079797Y-116948387D01*
X92079390Y-116948208D01*
X92079185Y-116948113D01*
X91319290Y-116571756D01*
X91319089Y-116571650D01*
X91318682Y-116571425D01*
X91318665Y-116571416D01*
X90577449Y-116161466D01*
X90577415Y-116161446D01*
X90577035Y-116161236D01*
X90576839Y-116161122D01*
X89854150Y-115717492D01*
X89853960Y-115717369D01*
X89853601Y-115717125D01*
X89853580Y-115717112D01*
X89152509Y-115241698D01*
X89152124Y-115241437D01*
X89151939Y-115241306D01*
X88472398Y-114734050D01*
X88472220Y-114733910D01*
X88471871Y-114733624D01*
X88471848Y-114733606D01*
X87816728Y-114196666D01*
X87816692Y-114196635D01*
X87816371Y-114196372D01*
X87816198Y-114196224D01*
X87770311Y-114155000D01*
X87617760Y-114017949D01*
X87185388Y-113629510D01*
X87185223Y-113629355D01*
X86580751Y-113034630D01*
X86580593Y-113034468D01*
X86003700Y-112412954D01*
X86003550Y-112412784D01*
X86003286Y-112412472D01*
X86003275Y-112412460D01*
X85455698Y-111766085D01*
X85455694Y-111766080D01*
X85455422Y-111765759D01*
X85455279Y-111765583D01*
X84937044Y-111094377D01*
X84936910Y-111094194D01*
X84851042Y-110971897D01*
X84619458Y-110642062D01*
X84449632Y-110400187D01*
X84449506Y-110399999D01*
X84395487Y-110315126D01*
X83994430Y-109684999D01*
X83994420Y-109684983D01*
X83994188Y-109684618D01*
X83994071Y-109684424D01*
X83993861Y-109684058D01*
X83993848Y-109684037D01*
X83571880Y-108949544D01*
X83571868Y-108949522D01*
X83571648Y-108949139D01*
X83571539Y-108948940D01*
X83182880Y-108195263D01*
X83182781Y-108195059D01*
X83140907Y-108103942D01*
X82871676Y-107518089D01*
X82828685Y-107424539D01*
X82828595Y-107424331D01*
X82828438Y-107423944D01*
X82828428Y-107423921D01*
X82509952Y-106638955D01*
X82509944Y-106638935D01*
X82509789Y-106638552D01*
X82509708Y-106638340D01*
X82509563Y-106637932D01*
X82509553Y-106637904D01*
X82244444Y-105888645D01*
X82226849Y-105838918D01*
X82226779Y-105838702D01*
X82226662Y-105838319D01*
X82226641Y-105838253D01*
X81980584Y-105027736D01*
X81980567Y-105027676D01*
X81980447Y-105027280D01*
X81980386Y-105027062D01*
X81980285Y-105026669D01*
X81980275Y-105026630D01*
X81771199Y-104205746D01*
X81771193Y-104205723D01*
X81771088Y-104205308D01*
X81771037Y-104205087D01*
X81770943Y-104204634D01*
X81599292Y-103375120D01*
X81599284Y-103375079D01*
X81599204Y-103374690D01*
X81599163Y-103374467D01*
X81577113Y-103236701D01*
X81465221Y-102537604D01*
X81465214Y-102537558D01*
X81465147Y-102537135D01*
X81465116Y-102536911D01*
X81455250Y-102450259D01*
X81369244Y-101694813D01*
X81369243Y-101694812D01*
X81369193Y-101694365D01*
X81369173Y-101694139D01*
X81365914Y-101646299D01*
X81311568Y-100848531D01*
X81311566Y-100848504D01*
X81311540Y-100848111D01*
X81311529Y-100847884D01*
X81292305Y-100000113D01*
X81292305Y-99999887D01*
X81311529Y-99152116D01*
X81311540Y-99151889D01*
X81311566Y-99151497D01*
X81311568Y-99151468D01*
X81369144Y-98306283D01*
X81369144Y-98306272D01*
X81369173Y-98305861D01*
X81369193Y-98305635D01*
X81383617Y-98178937D01*
X81465062Y-97463558D01*
X81465065Y-97463531D01*
X81465116Y-97463089D01*
X81465147Y-97462865D01*
X81465213Y-97462447D01*
X81465221Y-97462395D01*
X81599092Y-96625975D01*
X81599094Y-96625963D01*
X81599163Y-96625533D01*
X81599204Y-96625310D01*
X81599283Y-96624927D01*
X81599292Y-96624879D01*
X81770943Y-95795365D01*
X81770947Y-95795344D01*
X81771037Y-95794913D01*
X81771088Y-95794692D01*
X81771191Y-95794286D01*
X81771199Y-95794253D01*
X81980275Y-94973369D01*
X81980288Y-94973319D01*
X81980386Y-94972938D01*
X81980447Y-94972720D01*
X81980563Y-94972334D01*
X81980584Y-94972263D01*
X82226641Y-94161746D01*
X82226666Y-94161667D01*
X82226779Y-94161298D01*
X82226849Y-94161082D01*
X82230282Y-94151380D01*
X82509553Y-93362095D01*
X82509568Y-93362052D01*
X82509708Y-93361660D01*
X82509789Y-93361448D01*
X82509938Y-93361078D01*
X82509952Y-93361044D01*
X82828428Y-92576078D01*
X82828444Y-92576039D01*
X82828595Y-92575669D01*
X82828685Y-92575461D01*
X82900614Y-92418942D01*
X83182588Y-91805359D01*
X83182603Y-91805327D01*
X83182781Y-91804941D01*
X83182880Y-91804737D01*
X83571539Y-91051060D01*
X83571648Y-91050861D01*
X83571857Y-91050495D01*
X83571880Y-91050455D01*
X83993848Y-90315962D01*
X83993872Y-90315922D01*
X83994071Y-90315576D01*
X83994188Y-90315382D01*
X83996539Y-90311688D01*
X84449258Y-89600389D01*
X84449279Y-89600356D01*
X84449506Y-89600001D01*
X84449632Y-89599813D01*
X84449875Y-89599466D01*
X84449887Y-89599449D01*
X84936662Y-88906158D01*
X84936680Y-88906133D01*
X84936910Y-88905806D01*
X84937044Y-88905623D01*
X84967204Y-88866560D01*
X85455012Y-88234762D01*
X85455025Y-88234744D01*
X85455279Y-88234417D01*
X85455422Y-88234241D01*
X85455676Y-88233940D01*
X85455698Y-88233914D01*
X86003275Y-87587539D01*
X86003305Y-87587505D01*
X86003550Y-87587216D01*
X86003700Y-87587046D01*
X86023796Y-87565396D01*
X86381029Y-87180532D01*
X86580593Y-86965532D01*
X86580751Y-86965370D01*
X87185223Y-86370645D01*
X87185388Y-86370490D01*
X87187080Y-86368970D01*
X87815855Y-85804083D01*
X87815884Y-85804057D01*
X87816198Y-85803776D01*
X87816371Y-85803628D01*
X87816667Y-85803385D01*
X87816728Y-85803333D01*
X88471848Y-85266393D01*
X88471898Y-85266353D01*
X88472220Y-85266090D01*
X88472398Y-85265950D01*
X88472753Y-85265684D01*
X88472785Y-85265660D01*
X89151565Y-84758973D01*
X89151570Y-84758969D01*
X89151939Y-84758694D01*
X89152124Y-84758563D01*
X89152481Y-84758320D01*
X89152509Y-84758301D01*
X89853580Y-84282887D01*
X89853632Y-84282853D01*
X89853960Y-84282631D01*
X89854150Y-84282508D01*
X89854487Y-84282300D01*
X89854512Y-84282285D01*
X90576467Y-83839106D01*
X90576478Y-83839099D01*
X90576839Y-83838878D01*
X90577035Y-83838764D01*
X90577382Y-83838571D01*
X90577449Y-83838533D01*
X91318665Y-83428583D01*
X91318714Y-83428556D01*
X91319089Y-83428350D01*
X91319290Y-83428244D01*
X92079185Y-83051887D01*
X92079390Y-83051792D01*
X92079761Y-83051628D01*
X92079831Y-83051596D01*
X92467460Y-82881005D01*
X92467465Y-82881002D01*
X92467926Y-82880798D01*
X92467934Y-82880795D01*
X92526374Y-82855080D01*
X92526380Y-82855077D01*
X92528592Y-82854105D01*
X92529746Y-82853757D01*
X92532127Y-82853341D01*
X92532128Y-82853341D01*
X92658937Y-82831201D01*
X92658937Y-82831200D01*
X92661320Y-82830785D01*
X92662524Y-82830722D01*
X92664929Y-82830887D01*
G37*
G36*
X107338680Y-82830785D02*
G01*
X107470254Y-82853757D01*
X107471408Y-82854105D01*
X107473621Y-82855078D01*
X107473625Y-82855080D01*
X107504185Y-82868527D01*
X107532535Y-82881002D01*
X107532537Y-82881004D01*
X107532936Y-82881179D01*
X107532978Y-82881197D01*
X107920168Y-83051596D01*
X107920221Y-83051620D01*
X107920610Y-83051792D01*
X107920815Y-83051887D01*
X108680710Y-83428244D01*
X108680911Y-83428350D01*
X108681301Y-83428566D01*
X108681334Y-83428583D01*
X109422550Y-83838533D01*
X109422598Y-83838561D01*
X109422965Y-83838764D01*
X109423161Y-83838878D01*
X110145850Y-84282508D01*
X110146040Y-84282631D01*
X110146387Y-84282866D01*
X110146419Y-84282887D01*
X110702282Y-84659832D01*
X110847876Y-84758563D01*
X110848061Y-84758694D01*
X111157514Y-84989691D01*
X111373094Y-85150615D01*
X111527602Y-85265950D01*
X111527780Y-85266090D01*
X111528122Y-85266370D01*
X111528151Y-85266393D01*
X112183271Y-85803333D01*
X112183311Y-85803367D01*
X112183629Y-85803628D01*
X112183802Y-85803776D01*
X112184137Y-85804077D01*
X112184144Y-85804083D01*
X112344203Y-85947879D01*
X112814612Y-86370490D01*
X112814777Y-86370645D01*
X113419249Y-86965370D01*
X113419407Y-86965532D01*
X113996300Y-87587046D01*
X113996450Y-87587216D01*
X113996715Y-87587529D01*
X113996724Y-87587539D01*
X114511774Y-88195518D01*
X114544578Y-88234241D01*
X114544721Y-88234417D01*
X115062956Y-88905623D01*
X115063090Y-88905806D01*
X115550368Y-89599813D01*
X115550494Y-89600001D01*
X115550739Y-89600387D01*
X115550741Y-89600389D01*
X116003453Y-90311676D01*
X116005812Y-90315382D01*
X116005929Y-90315576D01*
X116006146Y-90315954D01*
X116006151Y-90315962D01*
X116426531Y-91047692D01*
X116428352Y-91050861D01*
X116428461Y-91051060D01*
X116817120Y-91804737D01*
X116817219Y-91804941D01*
X117171315Y-92575461D01*
X117171405Y-92575669D01*
X117490211Y-93361448D01*
X117490292Y-93361660D01*
X117773151Y-94161082D01*
X117773221Y-94161298D01*
X117773345Y-94161706D01*
X117773358Y-94161746D01*
X118019415Y-94972263D01*
X118019423Y-94972293D01*
X118019553Y-94972720D01*
X118019614Y-94972938D01*
X118019721Y-94973359D01*
X118019724Y-94973369D01*
X118058344Y-95125000D01*
X118228912Y-95794692D01*
X118228963Y-95794913D01*
X118400796Y-96625310D01*
X118400837Y-96625533D01*
X118476776Y-97100000D01*
X118524791Y-97400000D01*
X118534853Y-97462865D01*
X118534884Y-97463089D01*
X118630807Y-98305635D01*
X118630827Y-98305861D01*
X118688460Y-99151889D01*
X118688471Y-99152116D01*
X118707695Y-99999887D01*
X118707695Y-100000113D01*
X118688471Y-100847884D01*
X118688460Y-100848111D01*
X118630827Y-101694139D01*
X118630807Y-101694365D01*
X118534884Y-102536911D01*
X118534853Y-102537135D01*
X118400837Y-103374467D01*
X118400796Y-103374690D01*
X118228963Y-104205087D01*
X118228912Y-104205308D01*
X118019614Y-105027062D01*
X118019553Y-105027280D01*
X118019419Y-105027718D01*
X118019415Y-105027736D01*
X117773358Y-105838253D01*
X117773349Y-105838280D01*
X117773221Y-105838702D01*
X117773151Y-105838918D01*
X117490292Y-106638340D01*
X117490211Y-106638552D01*
X117171405Y-107424331D01*
X117171315Y-107424539D01*
X116817219Y-108195059D01*
X116817120Y-108195263D01*
X116428461Y-108948940D01*
X116428352Y-108949139D01*
X116005929Y-109684424D01*
X116005812Y-109684618D01*
X115550494Y-110399999D01*
X115550368Y-110400187D01*
X115063090Y-111094194D01*
X115062956Y-111094377D01*
X114544721Y-111765583D01*
X114544578Y-111765759D01*
X113996450Y-112412784D01*
X113996300Y-112412954D01*
X113419407Y-113034468D01*
X113419249Y-113034630D01*
X112814777Y-113629355D01*
X112814612Y-113629510D01*
X112183802Y-114196224D01*
X112183629Y-114196372D01*
X112183285Y-114196653D01*
X112183271Y-114196666D01*
X111607595Y-114668493D01*
X111527780Y-114733910D01*
X111527602Y-114734050D01*
X110848061Y-115241306D01*
X110847876Y-115241437D01*
X110146040Y-115717369D01*
X110145850Y-115717492D01*
X109423161Y-116161122D01*
X109422965Y-116161236D01*
X109422565Y-116161456D01*
X109422550Y-116161466D01*
X109138955Y-116318316D01*
X108680911Y-116571650D01*
X108680710Y-116571756D01*
X107920815Y-116948113D01*
X107920610Y-116948208D01*
X107920185Y-116948394D01*
X107920168Y-116948403D01*
X107537209Y-117116940D01*
X107537202Y-117116941D01*
X107532540Y-117118993D01*
X107532535Y-117118998D01*
X107471408Y-117145895D01*
X107470254Y-117146243D01*
X107338680Y-117169215D01*
X107337476Y-117169278D01*
X107335061Y-117169111D01*
X107335055Y-117169112D01*
X107206645Y-117160263D01*
X107206641Y-117160262D01*
X107204228Y-117160096D01*
X107203044Y-117159869D01*
X107075865Y-117119064D01*
X107074771Y-117118560D01*
X107072714Y-117117292D01*
X107072710Y-117117291D01*
X106963111Y-117049774D01*
X106963109Y-117049773D01*
X106961053Y-117048506D01*
X106960110Y-117047755D01*
X106866462Y-116952521D01*
X106865727Y-116951566D01*
X106864493Y-116949485D01*
X106864491Y-116949483D01*
X106798823Y-116838766D01*
X106797591Y-116836689D01*
X106797105Y-116835585D01*
X106796405Y-116833273D01*
X106796404Y-116833269D01*
X106759141Y-116710059D01*
X106759140Y-116710053D01*
X106758440Y-116707739D01*
X106758233Y-116706552D01*
X106758107Y-116704135D01*
X106751413Y-116575581D01*
X106751413Y-116575575D01*
X106751288Y-116573168D01*
X106751371Y-116571965D01*
X106776548Y-116440796D01*
X106776916Y-116439649D01*
X106777924Y-116437456D01*
X106777927Y-116437450D01*
X106831742Y-116320511D01*
X106831745Y-116320505D01*
X106832753Y-116318316D01*
X106833385Y-116317289D01*
X106834895Y-116315394D01*
X106915124Y-116214739D01*
X106915131Y-116214732D01*
X106916636Y-116212844D01*
X106917496Y-116211999D01*
X106919408Y-116210526D01*
X106919414Y-116210521D01*
X107021399Y-116131994D01*
X107021401Y-116131992D01*
X107023323Y-116130513D01*
X107024359Y-116129898D01*
X107026579Y-116128921D01*
X107026581Y-116128920D01*
X107053384Y-116117126D01*
X107085397Y-116103039D01*
X107822002Y-115758382D01*
X107822830Y-115757971D01*
X108542237Y-115379874D01*
X108543046Y-115379424D01*
X108709713Y-115281739D01*
X108990745Y-115117022D01*
X108991905Y-115116288D01*
X109144756Y-115011923D01*
X109146818Y-115010308D01*
X109286794Y-114885046D01*
X109324559Y-114851251D01*
X109326389Y-114849384D01*
X109326391Y-114849382D01*
X109481844Y-114668493D01*
X109483408Y-114666412D01*
X109613931Y-114466764D01*
X109615215Y-114464489D01*
X109718556Y-114249526D01*
X109719528Y-114247110D01*
X109793934Y-114020476D01*
X109794584Y-114017949D01*
X109838766Y-113783571D01*
X109839082Y-113780971D01*
X109852294Y-113542824D01*
X109852268Y-113540206D01*
X109837884Y-113350000D01*
X109834282Y-113302369D01*
X109833918Y-113299797D01*
X109785041Y-113066334D01*
X109784338Y-113063811D01*
X109705409Y-112838735D01*
X109704383Y-112836326D01*
X109596375Y-112622733D01*
X109595754Y-112621597D01*
X109562202Y-112564808D01*
X109561719Y-112563704D01*
X109561026Y-112561398D01*
X109561021Y-112561387D01*
X109538444Y-112486265D01*
X109537601Y-112484126D01*
X109467465Y-112341904D01*
X109374963Y-112069402D01*
X109318821Y-111787158D01*
X109300000Y-111500000D01*
X109318821Y-111212842D01*
X109374963Y-110930598D01*
X109467465Y-110658096D01*
X109594744Y-110400000D01*
X109754623Y-110160725D01*
X109944365Y-109944365D01*
X110160725Y-109754623D01*
X110400000Y-109594744D01*
X110658096Y-109467465D01*
X110930598Y-109374963D01*
X111212842Y-109318821D01*
X111500000Y-109300000D01*
X111787158Y-109318821D01*
X112069402Y-109374963D01*
X112341904Y-109467465D01*
X112524654Y-109557587D01*
X112526790Y-109558429D01*
X112555389Y-109567023D01*
X112555402Y-109567029D01*
X112557705Y-109567721D01*
X112558809Y-109568204D01*
X112560886Y-109569431D01*
X112560888Y-109569432D01*
X112615602Y-109601757D01*
X112616733Y-109602377D01*
X112830328Y-109710385D01*
X112832737Y-109711411D01*
X113057815Y-109790340D01*
X113060338Y-109791043D01*
X113293801Y-109839918D01*
X113296373Y-109840282D01*
X113534215Y-109858268D01*
X113536830Y-109858294D01*
X113774977Y-109845082D01*
X113777577Y-109844766D01*
X114011954Y-109800583D01*
X114014479Y-109799933D01*
X114241114Y-109725526D01*
X114243535Y-109724552D01*
X114458497Y-109621211D01*
X114460772Y-109619927D01*
X114660419Y-109489403D01*
X114662504Y-109487836D01*
X114843391Y-109332382D01*
X114845262Y-109330549D01*
X115004316Y-109152810D01*
X115005931Y-109150748D01*
X115126737Y-108973817D01*
X115127457Y-108972682D01*
X115127568Y-108972494D01*
X115285777Y-108703638D01*
X115364494Y-108569869D01*
X115364944Y-108569061D01*
X115652753Y-108023761D01*
X115744297Y-107850314D01*
X115744687Y-107849534D01*
X115900477Y-107518089D01*
X116090412Y-107113997D01*
X116090786Y-107113151D01*
X116214044Y-106815949D01*
X116402134Y-106362417D01*
X116402451Y-106361599D01*
X116678744Y-105597306D01*
X116679038Y-105596429D01*
X116880505Y-104946598D01*
X116919698Y-104820178D01*
X116919950Y-104819294D01*
X117124464Y-104032751D01*
X117124676Y-104031851D01*
X117292603Y-103236701D01*
X117292768Y-103235820D01*
X117423759Y-102433716D01*
X117423887Y-102432800D01*
X117517649Y-101625520D01*
X117517735Y-101624599D01*
X117533789Y-101393565D01*
X117574072Y-100813846D01*
X117574112Y-100812982D01*
X117592906Y-100000463D01*
X117592906Y-99999537D01*
X117584395Y-99631558D01*
X117574112Y-99187016D01*
X117574072Y-99186138D01*
X117573571Y-99178937D01*
X117517735Y-98375400D01*
X117517649Y-98374479D01*
X117423887Y-97567199D01*
X117423759Y-97566283D01*
X117396604Y-97400000D01*
X117292768Y-96764178D01*
X117292603Y-96763298D01*
X117162362Y-96146596D01*
X117124674Y-95968143D01*
X117124464Y-95967248D01*
X116919950Y-95180705D01*
X116919697Y-95179815D01*
X116901481Y-95121061D01*
X116840697Y-94925000D01*
X116679038Y-94403570D01*
X116678744Y-94402693D01*
X116402451Y-93638400D01*
X116402134Y-93637581D01*
X116190145Y-93126424D01*
X116090786Y-92886848D01*
X116090412Y-92886002D01*
X115767971Y-92200000D01*
X115744687Y-92150464D01*
X115744297Y-92149684D01*
X115580617Y-91839565D01*
X115364944Y-91430938D01*
X115364494Y-91430130D01*
X115167907Y-91096057D01*
X115127561Y-91027496D01*
X115126847Y-91026370D01*
X115005919Y-90849259D01*
X115004304Y-90847197D01*
X114845252Y-90669460D01*
X114843382Y-90667627D01*
X114662496Y-90512174D01*
X114660411Y-90510606D01*
X114460765Y-90380083D01*
X114458490Y-90378800D01*
X114243530Y-90275460D01*
X114241109Y-90274485D01*
X114014476Y-90200078D01*
X114011951Y-90199429D01*
X113777575Y-90155247D01*
X113774975Y-90154931D01*
X113536830Y-90141719D01*
X113534215Y-90141744D01*
X113296376Y-90159730D01*
X113293804Y-90160094D01*
X113084994Y-90203809D01*
X113060342Y-90208970D01*
X113057819Y-90209673D01*
X112832743Y-90288601D01*
X112830335Y-90289626D01*
X112786707Y-90311688D01*
X112616742Y-90397634D01*
X112615597Y-90398260D01*
X112558817Y-90431808D01*
X112557713Y-90432291D01*
X112526714Y-90441607D01*
X112524594Y-90442441D01*
X112341904Y-90532535D01*
X112069402Y-90625037D01*
X111787158Y-90681179D01*
X111500000Y-90700000D01*
X111212842Y-90681179D01*
X110930598Y-90625037D01*
X110658096Y-90532535D01*
X110400000Y-90405256D01*
X110160725Y-90245377D01*
X109944365Y-90055635D01*
X109754623Y-89839275D01*
X109594744Y-89600000D01*
X109467465Y-89341904D01*
X109374963Y-89069402D01*
X109318821Y-88787158D01*
X109300000Y-88500000D01*
X109318821Y-88212842D01*
X109374963Y-87930598D01*
X109467465Y-87658096D01*
X109537591Y-87515892D01*
X109538435Y-87513753D01*
X109561018Y-87438611D01*
X109561024Y-87438597D01*
X109561716Y-87436295D01*
X109562199Y-87435191D01*
X109570548Y-87421060D01*
X109582990Y-87400000D01*
X109595758Y-87378387D01*
X109596373Y-87377266D01*
X109670320Y-87231030D01*
X109704381Y-87163671D01*
X109705407Y-87161262D01*
X109784335Y-86936187D01*
X109785038Y-86933664D01*
X109790521Y-86907474D01*
X109833915Y-86700200D01*
X109834280Y-86697626D01*
X109838296Y-86644517D01*
X109852265Y-86459788D01*
X109852291Y-86457174D01*
X109839079Y-86219028D01*
X109838763Y-86216428D01*
X109794581Y-85982050D01*
X109793931Y-85979522D01*
X109719525Y-85752888D01*
X109718553Y-85750473D01*
X109615210Y-85535507D01*
X109613924Y-85533227D01*
X109483406Y-85333587D01*
X109481842Y-85331506D01*
X109481838Y-85331502D01*
X109417560Y-85256706D01*
X109326387Y-85150617D01*
X109324554Y-85148746D01*
X109146816Y-84989692D01*
X109144754Y-84988077D01*
X108991871Y-84883691D01*
X108990707Y-84882953D01*
X108849173Y-84799999D01*
X108543043Y-84620573D01*
X108542237Y-84620125D01*
X107822830Y-84242028D01*
X107822002Y-84241617D01*
X107085397Y-83896959D01*
X107024359Y-83870102D01*
X107023323Y-83869487D01*
X106917496Y-83788001D01*
X106916636Y-83787156D01*
X106915127Y-83785263D01*
X106915124Y-83785260D01*
X106834895Y-83684605D01*
X106833385Y-83682711D01*
X106832753Y-83681684D01*
X106831742Y-83679488D01*
X106777927Y-83562549D01*
X106777925Y-83562545D01*
X106776916Y-83560351D01*
X106776548Y-83559204D01*
X106755587Y-83450000D01*
X106751826Y-83430406D01*
X106751825Y-83430405D01*
X106751371Y-83428035D01*
X106751288Y-83426832D01*
X106751413Y-83424423D01*
X106751413Y-83424418D01*
X106758107Y-83295864D01*
X106758107Y-83295862D01*
X106758233Y-83293448D01*
X106758440Y-83292261D01*
X106759139Y-83289947D01*
X106759141Y-83289940D01*
X106796404Y-83166730D01*
X106796406Y-83166723D01*
X106797105Y-83164415D01*
X106797591Y-83163311D01*
X106798821Y-83161236D01*
X106798823Y-83161233D01*
X106864491Y-83050516D01*
X106864495Y-83050509D01*
X106865727Y-83048434D01*
X106866462Y-83047479D01*
X106868156Y-83045755D01*
X106868161Y-83045750D01*
X106958413Y-82953970D01*
X106958416Y-82953967D01*
X106960110Y-82952245D01*
X106961053Y-82951494D01*
X106963104Y-82950230D01*
X106963111Y-82950225D01*
X107072710Y-82882708D01*
X107072720Y-82882703D01*
X107074771Y-82881440D01*
X107075865Y-82880936D01*
X107078164Y-82880198D01*
X107078167Y-82880197D01*
X107200742Y-82840869D01*
X107200746Y-82840868D01*
X107203044Y-82840131D01*
X107204228Y-82839904D01*
X107206633Y-82839738D01*
X107206645Y-82839736D01*
X107335055Y-82830887D01*
X107335070Y-82830887D01*
X107337476Y-82830722D01*
X107338680Y-82830785D01*
G37*
G36*
X94653231Y-115275642D02*
G01*
X94705772Y-115281738D01*
X94723723Y-115289664D01*
X94745671Y-115294030D01*
X94769166Y-115309729D01*
X94790890Y-115319321D01*
X94805726Y-115334157D01*
X94826777Y-115348223D01*
X94840842Y-115369273D01*
X94855678Y-115384109D01*
X94865269Y-115405830D01*
X94880970Y-115429329D01*
X94885335Y-115451277D01*
X94893260Y-115469224D01*
X94899352Y-115521747D01*
X94900000Y-115525000D01*
X94900000Y-116825000D01*
X94899354Y-116828243D01*
X94893261Y-116880772D01*
X94885336Y-116898719D01*
X94880970Y-116920671D01*
X94865267Y-116944171D01*
X94855678Y-116965890D01*
X94840844Y-116980723D01*
X94826777Y-117001777D01*
X94805723Y-117015844D01*
X94790890Y-117030678D01*
X94769170Y-117040267D01*
X94745671Y-117055970D01*
X94723720Y-117060336D01*
X94705775Y-117068260D01*
X94653254Y-117074352D01*
X94650000Y-117075000D01*
X93950000Y-117075000D01*
X93946758Y-117074355D01*
X93894227Y-117068261D01*
X93876278Y-117060335D01*
X93854329Y-117055970D01*
X93830830Y-117040268D01*
X93809109Y-117030678D01*
X93794273Y-117015842D01*
X93773223Y-117001777D01*
X93759157Y-116980726D01*
X93744321Y-116965890D01*
X93734729Y-116944166D01*
X93719030Y-116920671D01*
X93714664Y-116898724D01*
X93706739Y-116880775D01*
X93700644Y-116828242D01*
X93700000Y-116825000D01*
X93700000Y-115525000D01*
X93700642Y-115521770D01*
X93706738Y-115469227D01*
X93714664Y-115451274D01*
X93719030Y-115429329D01*
X93734728Y-115405835D01*
X93744321Y-115384109D01*
X93759159Y-115369270D01*
X93773223Y-115348223D01*
X93794270Y-115334159D01*
X93809109Y-115319321D01*
X93830835Y-115309727D01*
X93854329Y-115294030D01*
X93876273Y-115289665D01*
X93894224Y-115281739D01*
X93946759Y-115275644D01*
X93950000Y-115275000D01*
X94650000Y-115275000D01*
X94653231Y-115275642D01*
G37*
G36*
X100253231Y-115275642D02*
G01*
X100305772Y-115281738D01*
X100323723Y-115289664D01*
X100345671Y-115294030D01*
X100369166Y-115309729D01*
X100390890Y-115319321D01*
X100405726Y-115334157D01*
X100426777Y-115348223D01*
X100440842Y-115369273D01*
X100455678Y-115384109D01*
X100465269Y-115405830D01*
X100480970Y-115429329D01*
X100485335Y-115451277D01*
X100493260Y-115469224D01*
X100499352Y-115521747D01*
X100500000Y-115525000D01*
X100500000Y-116825000D01*
X100499354Y-116828243D01*
X100493261Y-116880772D01*
X100485336Y-116898719D01*
X100480970Y-116920671D01*
X100465267Y-116944171D01*
X100455678Y-116965890D01*
X100440844Y-116980723D01*
X100426777Y-117001777D01*
X100405723Y-117015844D01*
X100390890Y-117030678D01*
X100369170Y-117040267D01*
X100345671Y-117055970D01*
X100323720Y-117060336D01*
X100305775Y-117068260D01*
X100253254Y-117074352D01*
X100250000Y-117075000D01*
X99550000Y-117075000D01*
X99546758Y-117074355D01*
X99494227Y-117068261D01*
X99476278Y-117060335D01*
X99454329Y-117055970D01*
X99430830Y-117040268D01*
X99409109Y-117030678D01*
X99394273Y-117015842D01*
X99373223Y-117001777D01*
X99359157Y-116980726D01*
X99344321Y-116965890D01*
X99334729Y-116944166D01*
X99319030Y-116920671D01*
X99314664Y-116898724D01*
X99306739Y-116880775D01*
X99300644Y-116828242D01*
X99300000Y-116825000D01*
X99300000Y-115525000D01*
X99300642Y-115521770D01*
X99306738Y-115469227D01*
X99314664Y-115451274D01*
X99319030Y-115429329D01*
X99334728Y-115405835D01*
X99344321Y-115384109D01*
X99359159Y-115369270D01*
X99373223Y-115348223D01*
X99394270Y-115334159D01*
X99409109Y-115319321D01*
X99430835Y-115309727D01*
X99454329Y-115294030D01*
X99476273Y-115289665D01*
X99494224Y-115281739D01*
X99546759Y-115275644D01*
X99550000Y-115275000D01*
X100250000Y-115275000D01*
X100253231Y-115275642D01*
G37*
G36*
X102453231Y-115275642D02*
G01*
X102505772Y-115281738D01*
X102523723Y-115289664D01*
X102545671Y-115294030D01*
X102569166Y-115309729D01*
X102590890Y-115319321D01*
X102605726Y-115334157D01*
X102626777Y-115348223D01*
X102640842Y-115369273D01*
X102655678Y-115384109D01*
X102665269Y-115405830D01*
X102680970Y-115429329D01*
X102685335Y-115451277D01*
X102693260Y-115469224D01*
X102699352Y-115521747D01*
X102700000Y-115525000D01*
X102700000Y-116825000D01*
X102699354Y-116828243D01*
X102693261Y-116880772D01*
X102685336Y-116898719D01*
X102680970Y-116920671D01*
X102665267Y-116944171D01*
X102655678Y-116965890D01*
X102640844Y-116980723D01*
X102626777Y-117001777D01*
X102605723Y-117015844D01*
X102590890Y-117030678D01*
X102569170Y-117040267D01*
X102545671Y-117055970D01*
X102523720Y-117060336D01*
X102505775Y-117068260D01*
X102453254Y-117074352D01*
X102450000Y-117075000D01*
X101750000Y-117075000D01*
X101746758Y-117074355D01*
X101694227Y-117068261D01*
X101676278Y-117060335D01*
X101654329Y-117055970D01*
X101630830Y-117040268D01*
X101609109Y-117030678D01*
X101594273Y-117015842D01*
X101573223Y-117001777D01*
X101559157Y-116980726D01*
X101544321Y-116965890D01*
X101534729Y-116944166D01*
X101519030Y-116920671D01*
X101514664Y-116898724D01*
X101506739Y-116880775D01*
X101500644Y-116828242D01*
X101500000Y-116825000D01*
X101500000Y-115525000D01*
X101500642Y-115521770D01*
X101506738Y-115469227D01*
X101514664Y-115451274D01*
X101519030Y-115429329D01*
X101534728Y-115405835D01*
X101544321Y-115384109D01*
X101559159Y-115369270D01*
X101573223Y-115348223D01*
X101594270Y-115334159D01*
X101609109Y-115319321D01*
X101630835Y-115309727D01*
X101654329Y-115294030D01*
X101676273Y-115289665D01*
X101694224Y-115281739D01*
X101746759Y-115275644D01*
X101750000Y-115275000D01*
X102450000Y-115275000D01*
X102453231Y-115275642D01*
G37*
G36*
X106053231Y-115275642D02*
G01*
X106105772Y-115281738D01*
X106123723Y-115289664D01*
X106145671Y-115294030D01*
X106169166Y-115309729D01*
X106190890Y-115319321D01*
X106205726Y-115334157D01*
X106226777Y-115348223D01*
X106240842Y-115369273D01*
X106255678Y-115384109D01*
X106265269Y-115405830D01*
X106280970Y-115429329D01*
X106285335Y-115451277D01*
X106293260Y-115469224D01*
X106299352Y-115521747D01*
X106300000Y-115525000D01*
X106300000Y-116825000D01*
X106299354Y-116828243D01*
X106293261Y-116880772D01*
X106285336Y-116898719D01*
X106280970Y-116920671D01*
X106265267Y-116944171D01*
X106255678Y-116965890D01*
X106240844Y-116980723D01*
X106226777Y-117001777D01*
X106205723Y-117015844D01*
X106190890Y-117030678D01*
X106169170Y-117040267D01*
X106145671Y-117055970D01*
X106123720Y-117060336D01*
X106105775Y-117068260D01*
X106053254Y-117074352D01*
X106050000Y-117075000D01*
X105350000Y-117075000D01*
X105346758Y-117074355D01*
X105294227Y-117068261D01*
X105276278Y-117060335D01*
X105254329Y-117055970D01*
X105230830Y-117040268D01*
X105209109Y-117030678D01*
X105194273Y-117015842D01*
X105173223Y-117001777D01*
X105159157Y-116980726D01*
X105144321Y-116965890D01*
X105134729Y-116944166D01*
X105119030Y-116920671D01*
X105114664Y-116898724D01*
X105106739Y-116880775D01*
X105100644Y-116828242D01*
X105100000Y-116825000D01*
X105100000Y-115525000D01*
X105100642Y-115521770D01*
X105106738Y-115469227D01*
X105114664Y-115451274D01*
X105119030Y-115429329D01*
X105134728Y-115405835D01*
X105144321Y-115384109D01*
X105159159Y-115369270D01*
X105173223Y-115348223D01*
X105194270Y-115334159D01*
X105209109Y-115319321D01*
X105230835Y-115309727D01*
X105254329Y-115294030D01*
X105276273Y-115289665D01*
X105294224Y-115281739D01*
X105346759Y-115275644D01*
X105350000Y-115275000D01*
X106050000Y-115275000D01*
X106053231Y-115275642D01*
G37*
G36*
X92553536Y-113646464D02*
G01*
X92555000Y-113650000D01*
X92555000Y-114150000D01*
X92553536Y-114153536D01*
X92550627Y-114154739D01*
X92549911Y-114158345D01*
X92549911Y-114221157D01*
X92549708Y-114222566D01*
X92509613Y-114359117D01*
X92509022Y-114360411D01*
X92432081Y-114480133D01*
X92431149Y-114481209D01*
X92323594Y-114574406D01*
X92322397Y-114575175D01*
X92319792Y-114576364D01*
X92319790Y-114576366D01*
X92195548Y-114633105D01*
X92195544Y-114633106D01*
X92192943Y-114634294D01*
X92191578Y-114634695D01*
X92050712Y-114654949D01*
X92050000Y-114655000D01*
X92048573Y-114655000D01*
X91551427Y-114655000D01*
X91550000Y-114655000D01*
X91549288Y-114654949D01*
X91408422Y-114634695D01*
X91407057Y-114634294D01*
X91404457Y-114633106D01*
X91404451Y-114633105D01*
X91280209Y-114576366D01*
X91280204Y-114576362D01*
X91277603Y-114575175D01*
X91276406Y-114574406D01*
X91274242Y-114572531D01*
X91171012Y-114483082D01*
X91171010Y-114483080D01*
X91168851Y-114481209D01*
X91167919Y-114480133D01*
X91166373Y-114477727D01*
X91166370Y-114477724D01*
X91092525Y-114362820D01*
X91092522Y-114362813D01*
X91090978Y-114360411D01*
X91090387Y-114359117D01*
X91057863Y-114248352D01*
X91051097Y-114225310D01*
X91051096Y-114225305D01*
X91050292Y-114222566D01*
X91050089Y-114221157D01*
X91050089Y-114158345D01*
X91049372Y-114154739D01*
X91046464Y-114153536D01*
X91045000Y-114150000D01*
X91045000Y-113650000D01*
X91046464Y-113646464D01*
X91050000Y-113645000D01*
X92550000Y-113645000D01*
X92553536Y-113646464D01*
G37*
G36*
X92050712Y-112345051D02*
G01*
X92052113Y-112345252D01*
X92052120Y-112345253D01*
X92188748Y-112364898D01*
X92191578Y-112365305D01*
X92192943Y-112365706D01*
X92195537Y-112366891D01*
X92195548Y-112366894D01*
X92319790Y-112423633D01*
X92319797Y-112423637D01*
X92322397Y-112424825D01*
X92323594Y-112425594D01*
X92325755Y-112427467D01*
X92325757Y-112427468D01*
X92428987Y-112516917D01*
X92428989Y-112516919D01*
X92431149Y-112518791D01*
X92432081Y-112519867D01*
X92433627Y-112522272D01*
X92433629Y-112522275D01*
X92507474Y-112637179D01*
X92507476Y-112637183D01*
X92509022Y-112639589D01*
X92509613Y-112640883D01*
X92549708Y-112777434D01*
X92549911Y-112778843D01*
X92549911Y-112781705D01*
X92549911Y-112841654D01*
X92550628Y-112845260D01*
X92553536Y-112846464D01*
X92555000Y-112850000D01*
X92555000Y-113350000D01*
X92553536Y-113353536D01*
X92550000Y-113355000D01*
X92542044Y-113355000D01*
X91057956Y-113355000D01*
X91050000Y-113355000D01*
X91046464Y-113353536D01*
X91045000Y-113350000D01*
X91045000Y-112850000D01*
X91046464Y-112846464D01*
X91049371Y-112845260D01*
X91050089Y-112841654D01*
X91050089Y-112781705D01*
X91050089Y-112778843D01*
X91050292Y-112777434D01*
X91051096Y-112774695D01*
X91051097Y-112774689D01*
X91089581Y-112643626D01*
X91089582Y-112643622D01*
X91090387Y-112640883D01*
X91090978Y-112639589D01*
X91092520Y-112637188D01*
X91092525Y-112637179D01*
X91166370Y-112522275D01*
X91166375Y-112522268D01*
X91167919Y-112519867D01*
X91168851Y-112518791D01*
X91171006Y-112516922D01*
X91171012Y-112516917D01*
X91274242Y-112427468D01*
X91274246Y-112427464D01*
X91276406Y-112425594D01*
X91277603Y-112424825D01*
X91280198Y-112423639D01*
X91280209Y-112423633D01*
X91404451Y-112366894D01*
X91404463Y-112366890D01*
X91407057Y-112365706D01*
X91408422Y-112365305D01*
X91411249Y-112364898D01*
X91411251Y-112364898D01*
X91547879Y-112345253D01*
X91547887Y-112345252D01*
X91549288Y-112345051D01*
X91550000Y-112345000D01*
X92050000Y-112345000D01*
X92050712Y-112345051D01*
G37*
G36*
X95807403Y-111536418D02*
G01*
X95856066Y-111568934D01*
X95888582Y-111617597D01*
X95900000Y-111675000D01*
X95900000Y-112925000D01*
X95888582Y-112982403D01*
X95856066Y-113031066D01*
X95807403Y-113063582D01*
X95750000Y-113075000D01*
X95450000Y-113075000D01*
X95392597Y-113063582D01*
X95343934Y-113031066D01*
X95311418Y-112982403D01*
X95300000Y-112925000D01*
X95300000Y-111675000D01*
X95311418Y-111617597D01*
X95343934Y-111568934D01*
X95392597Y-111536418D01*
X95450000Y-111525000D01*
X95750000Y-111525000D01*
X95807403Y-111536418D01*
G37*
G36*
X96807403Y-111536418D02*
G01*
X96856066Y-111568934D01*
X96888582Y-111617597D01*
X96900000Y-111675000D01*
X96900000Y-112925000D01*
X96888582Y-112982403D01*
X96856066Y-113031066D01*
X96807403Y-113063582D01*
X96750000Y-113075000D01*
X96450000Y-113075000D01*
X96392597Y-113063582D01*
X96343934Y-113031066D01*
X96311418Y-112982403D01*
X96300000Y-112925000D01*
X96300000Y-111675000D01*
X96311418Y-111617597D01*
X96343934Y-111568934D01*
X96392597Y-111536418D01*
X96450000Y-111525000D01*
X96750000Y-111525000D01*
X96807403Y-111536418D01*
G37*
G36*
X97807403Y-111536418D02*
G01*
X97856066Y-111568934D01*
X97888582Y-111617597D01*
X97900000Y-111675000D01*
X97900000Y-112925000D01*
X97888582Y-112982403D01*
X97856066Y-113031066D01*
X97807403Y-113063582D01*
X97750000Y-113075000D01*
X97450000Y-113075000D01*
X97392597Y-113063582D01*
X97343934Y-113031066D01*
X97311418Y-112982403D01*
X97300000Y-112925000D01*
X97300000Y-111675000D01*
X97311418Y-111617597D01*
X97343934Y-111568934D01*
X97392597Y-111536418D01*
X97450000Y-111525000D01*
X97750000Y-111525000D01*
X97807403Y-111536418D01*
G37*
G36*
X98807403Y-111536418D02*
G01*
X98856066Y-111568934D01*
X98888582Y-111617597D01*
X98900000Y-111675000D01*
X98900000Y-112925000D01*
X98888582Y-112982403D01*
X98856066Y-113031066D01*
X98807403Y-113063582D01*
X98750000Y-113075000D01*
X98450000Y-113075000D01*
X98392597Y-113063582D01*
X98343934Y-113031066D01*
X98311418Y-112982403D01*
X98300000Y-112925000D01*
X98300000Y-111675000D01*
X98311418Y-111617597D01*
X98343934Y-111568934D01*
X98392597Y-111536418D01*
X98450000Y-111525000D01*
X98750000Y-111525000D01*
X98807403Y-111536418D01*
G37*
G36*
X103607403Y-111536418D02*
G01*
X103656066Y-111568934D01*
X103688582Y-111617597D01*
X103700000Y-111675000D01*
X103700000Y-112925000D01*
X103688582Y-112982403D01*
X103656066Y-113031066D01*
X103607403Y-113063582D01*
X103550000Y-113075000D01*
X103250000Y-113075000D01*
X103192597Y-113063582D01*
X103143934Y-113031066D01*
X103111418Y-112982403D01*
X103100000Y-112925000D01*
X103100000Y-111675000D01*
X103111418Y-111617597D01*
X103143934Y-111568934D01*
X103192597Y-111536418D01*
X103250000Y-111525000D01*
X103550000Y-111525000D01*
X103607403Y-111536418D01*
G37*
G36*
X104607403Y-111536418D02*
G01*
X104656066Y-111568934D01*
X104688582Y-111617597D01*
X104700000Y-111675000D01*
X104700000Y-112925000D01*
X104688582Y-112982403D01*
X104656066Y-113031066D01*
X104607403Y-113063582D01*
X104550000Y-113075000D01*
X104250000Y-113075000D01*
X104192597Y-113063582D01*
X104143934Y-113031066D01*
X104111418Y-112982403D01*
X104100000Y-112925000D01*
X104100000Y-111675000D01*
X104111418Y-111617597D01*
X104143934Y-111568934D01*
X104192597Y-111536418D01*
X104250000Y-111525000D01*
X104550000Y-111525000D01*
X104607403Y-111536418D01*
G37*
G36*
X95326537Y-110115224D02*
G01*
X95391421Y-110158579D01*
X95434776Y-110223463D01*
X95450000Y-110300000D01*
X95450000Y-110700000D01*
X95434776Y-110776537D01*
X95391421Y-110841421D01*
X95326537Y-110884776D01*
X95250000Y-110900000D01*
X94650000Y-110900000D01*
X94573463Y-110884776D01*
X94508579Y-110841421D01*
X94465224Y-110776537D01*
X94450000Y-110700000D01*
X94450000Y-110300000D01*
X94465224Y-110223463D01*
X94508579Y-110158579D01*
X94573463Y-110115224D01*
X94650000Y-110100000D01*
X95250000Y-110100000D01*
X95326537Y-110115224D01*
G37*
G36*
X102626537Y-110115224D02*
G01*
X102691421Y-110158579D01*
X102734776Y-110223463D01*
X102750000Y-110300000D01*
X102750000Y-110700000D01*
X102734776Y-110776537D01*
X102691421Y-110841421D01*
X102626537Y-110884776D01*
X102550000Y-110900000D01*
X101950000Y-110900000D01*
X101873463Y-110884776D01*
X101808579Y-110841421D01*
X101765224Y-110776537D01*
X101750000Y-110700000D01*
X101750000Y-110300000D01*
X101765224Y-110223463D01*
X101808579Y-110158579D01*
X101873463Y-110115224D01*
X101950000Y-110100000D01*
X102550000Y-110100000D01*
X102626537Y-110115224D01*
G37*
G36*
X92436662Y-109650276D02*
G01*
X92480459Y-109679541D01*
X92509724Y-109723338D01*
X92520000Y-109775000D01*
X92520000Y-110045000D01*
X92509724Y-110096662D01*
X92480459Y-110140459D01*
X92436662Y-110169724D01*
X92385000Y-110180000D01*
X92015000Y-110180000D01*
X91963338Y-110169724D01*
X91919541Y-110140459D01*
X91890276Y-110096662D01*
X91880000Y-110045000D01*
X91880000Y-109775000D01*
X91890276Y-109723338D01*
X91919541Y-109679541D01*
X91963338Y-109650276D01*
X92015000Y-109640000D01*
X92385000Y-109640000D01*
X92436662Y-109650276D01*
G37*
G36*
X92436662Y-108630276D02*
G01*
X92480459Y-108659541D01*
X92509724Y-108703338D01*
X92520000Y-108755000D01*
X92520000Y-109025000D01*
X92509724Y-109076662D01*
X92480459Y-109120459D01*
X92436662Y-109149724D01*
X92385000Y-109160000D01*
X92015000Y-109160000D01*
X91963338Y-109149724D01*
X91919541Y-109120459D01*
X91890276Y-109076662D01*
X91880000Y-109025000D01*
X91880000Y-108755000D01*
X91890276Y-108703338D01*
X91919541Y-108659541D01*
X91963338Y-108630276D01*
X92015000Y-108620000D01*
X92385000Y-108620000D01*
X92436662Y-108630276D01*
G37*
G36*
X95326537Y-107915224D02*
G01*
X95391421Y-107958579D01*
X95434776Y-108023463D01*
X95450000Y-108100000D01*
X95450000Y-108500000D01*
X95434776Y-108576537D01*
X95391421Y-108641421D01*
X95326537Y-108684776D01*
X95250000Y-108700000D01*
X94650000Y-108700000D01*
X94573463Y-108684776D01*
X94508579Y-108641421D01*
X94465224Y-108576537D01*
X94450000Y-108500000D01*
X94450000Y-108100000D01*
X94465224Y-108023463D01*
X94508579Y-107958579D01*
X94573463Y-107915224D01*
X94650000Y-107900000D01*
X95250000Y-107900000D01*
X95326537Y-107915224D01*
G37*
G36*
X102626537Y-107915224D02*
G01*
X102691421Y-107958579D01*
X102734776Y-108023463D01*
X102750000Y-108100000D01*
X102750000Y-108500000D01*
X102734776Y-108576537D01*
X102691421Y-108641421D01*
X102626537Y-108684776D01*
X102550000Y-108700000D01*
X101950000Y-108700000D01*
X101873463Y-108684776D01*
X101808579Y-108641421D01*
X101765224Y-108576537D01*
X101750000Y-108500000D01*
X101750000Y-108100000D01*
X101765224Y-108023463D01*
X101808579Y-107958579D01*
X101873463Y-107915224D01*
X101950000Y-107900000D01*
X102550000Y-107900000D01*
X102626537Y-107915224D01*
G37*
G36*
X96626537Y-106815224D02*
G01*
X96691421Y-106858579D01*
X96734776Y-106923463D01*
X96750000Y-107000000D01*
X96750000Y-108200000D01*
X96734776Y-108276537D01*
X96691421Y-108341421D01*
X96626537Y-108384776D01*
X96550000Y-108400000D01*
X96150000Y-108400000D01*
X96073463Y-108384776D01*
X96008579Y-108341421D01*
X95965224Y-108276537D01*
X95950000Y-108200000D01*
X95950000Y-107000000D01*
X95965224Y-106923463D01*
X96008579Y-106858579D01*
X96073463Y-106815224D01*
X96150000Y-106800000D01*
X96550000Y-106800000D01*
X96626537Y-106815224D01*
G37*
G36*
X99626537Y-106815224D02*
G01*
X99691421Y-106858579D01*
X99734776Y-106923463D01*
X99750000Y-107000000D01*
X99750000Y-108200000D01*
X99734776Y-108276537D01*
X99691421Y-108341421D01*
X99626537Y-108384776D01*
X99550000Y-108400000D01*
X99150000Y-108400000D01*
X99073463Y-108384776D01*
X99008579Y-108341421D01*
X98965224Y-108276537D01*
X98950000Y-108200000D01*
X98950000Y-107000000D01*
X98965224Y-106923463D01*
X99008579Y-106858579D01*
X99073463Y-106815224D01*
X99150000Y-106800000D01*
X99550000Y-106800000D01*
X99626537Y-106815224D01*
G37*
G36*
X101126537Y-106815224D02*
G01*
X101191421Y-106858579D01*
X101234776Y-106923463D01*
X101250000Y-107000000D01*
X101250000Y-108200000D01*
X101234776Y-108276537D01*
X101191421Y-108341421D01*
X101126537Y-108384776D01*
X101050000Y-108400000D01*
X100650000Y-108400000D01*
X100573463Y-108384776D01*
X100508579Y-108341421D01*
X100465224Y-108276537D01*
X100450000Y-108200000D01*
X100450000Y-107000000D01*
X100465224Y-106923463D01*
X100508579Y-106858579D01*
X100573463Y-106815224D01*
X100650000Y-106800000D01*
X101050000Y-106800000D01*
X101126537Y-106815224D01*
G37*
G36*
X107776662Y-107290276D02*
G01*
X107820459Y-107319541D01*
X107849724Y-107363338D01*
X107860000Y-107415000D01*
X107860000Y-107785000D01*
X107849724Y-107836662D01*
X107820459Y-107880459D01*
X107776662Y-107909724D01*
X107725000Y-107920000D01*
X107455000Y-107920000D01*
X107403338Y-107909724D01*
X107359541Y-107880459D01*
X107330276Y-107836662D01*
X107320000Y-107785000D01*
X107320000Y-107415000D01*
X107330276Y-107363338D01*
X107359541Y-107319541D01*
X107403338Y-107290276D01*
X107455000Y-107280000D01*
X107725000Y-107280000D01*
X107776662Y-107290276D01*
G37*
G36*
X108796662Y-107290276D02*
G01*
X108840459Y-107319541D01*
X108869724Y-107363338D01*
X108880000Y-107415000D01*
X108880000Y-107785000D01*
X108869724Y-107836662D01*
X108840459Y-107880459D01*
X108796662Y-107909724D01*
X108745000Y-107920000D01*
X108475000Y-107920000D01*
X108423338Y-107909724D01*
X108379541Y-107880459D01*
X108350276Y-107836662D01*
X108340000Y-107785000D01*
X108340000Y-107415000D01*
X108350276Y-107363338D01*
X108379541Y-107319541D01*
X108423338Y-107290276D01*
X108475000Y-107280000D01*
X108745000Y-107280000D01*
X108796662Y-107290276D01*
G37*
G36*
X88228946Y-107301228D02*
G01*
X88276798Y-107333202D01*
X88308772Y-107381054D01*
X88320000Y-107437500D01*
X88320000Y-107732500D01*
X88308772Y-107788946D01*
X88276798Y-107836798D01*
X88228946Y-107868772D01*
X88172500Y-107880000D01*
X87827500Y-107880000D01*
X87771054Y-107868772D01*
X87723202Y-107836798D01*
X87691228Y-107788946D01*
X87680000Y-107732500D01*
X87680000Y-107437500D01*
X87691228Y-107381054D01*
X87723202Y-107333202D01*
X87771054Y-107301228D01*
X87827500Y-107290000D01*
X88172500Y-107290000D01*
X88228946Y-107301228D01*
G37*
G36*
X85535670Y-106549741D02*
G01*
X85570489Y-106549741D01*
X85598788Y-106558050D01*
X85628105Y-106561910D01*
X85667487Y-106578222D01*
X85705755Y-106589459D01*
X85725953Y-106602439D01*
X85747477Y-106611355D01*
X85786917Y-106641618D01*
X85824353Y-106665677D01*
X85836420Y-106679603D01*
X85849986Y-106690013D01*
X85885157Y-106735850D01*
X85916673Y-106772221D01*
X85921976Y-106783833D01*
X85928644Y-106792523D01*
X85954969Y-106856078D01*
X85975237Y-106900458D01*
X85976239Y-106907428D01*
X85978089Y-106911894D01*
X85991198Y-107011472D01*
X85995300Y-107040000D01*
X85991198Y-107068529D01*
X85978089Y-107168105D01*
X85976239Y-107172570D01*
X85975237Y-107179542D01*
X85954966Y-107223927D01*
X85928644Y-107287477D01*
X85921976Y-107296166D01*
X85916673Y-107307779D01*
X85885153Y-107344154D01*
X85849986Y-107389986D01*
X85836423Y-107400393D01*
X85824353Y-107414323D01*
X85786909Y-107438386D01*
X85747477Y-107468644D01*
X85725958Y-107477557D01*
X85705755Y-107490541D01*
X85667478Y-107501779D01*
X85628105Y-107518089D01*
X85598794Y-107521947D01*
X85570489Y-107530259D01*
X85535663Y-107530259D01*
X85500000Y-107534954D01*
X85464337Y-107530259D01*
X85429511Y-107530259D01*
X85401206Y-107521947D01*
X85371894Y-107518089D01*
X85332517Y-107501778D01*
X85294245Y-107490541D01*
X85274043Y-107477558D01*
X85252522Y-107468644D01*
X85213084Y-107438382D01*
X85175647Y-107414323D01*
X85163578Y-107400395D01*
X85150013Y-107389986D01*
X85114837Y-107344144D01*
X85083327Y-107307779D01*
X85078025Y-107296169D01*
X85071355Y-107287477D01*
X85045022Y-107223903D01*
X85024763Y-107179542D01*
X85023761Y-107172574D01*
X85021910Y-107168105D01*
X85008790Y-107068447D01*
X85004700Y-107040000D01*
X85008789Y-107011555D01*
X85021910Y-106911894D01*
X85023761Y-106907424D01*
X85024763Y-106900458D01*
X85045019Y-106856101D01*
X85071355Y-106792523D01*
X85078025Y-106783829D01*
X85083327Y-106772221D01*
X85114833Y-106735860D01*
X85150013Y-106690013D01*
X85163581Y-106679601D01*
X85175647Y-106665677D01*
X85213080Y-106641620D01*
X85252523Y-106611355D01*
X85274046Y-106602439D01*
X85294245Y-106589459D01*
X85332510Y-106578223D01*
X85371894Y-106561910D01*
X85401212Y-106558050D01*
X85429511Y-106549741D01*
X85464329Y-106549741D01*
X85500000Y-106545045D01*
X85535670Y-106549741D01*
G37*
G36*
X91413576Y-106890657D02*
G01*
X91458995Y-106921005D01*
X91489343Y-106966424D01*
X91500000Y-107020000D01*
X91500000Y-107360000D01*
X91489343Y-107413576D01*
X91458995Y-107458995D01*
X91413576Y-107489343D01*
X91360000Y-107500000D01*
X91080000Y-107500000D01*
X91026424Y-107489343D01*
X90981005Y-107458995D01*
X90950657Y-107413576D01*
X90940000Y-107360000D01*
X90940000Y-107020000D01*
X90950657Y-106966424D01*
X90981005Y-106921005D01*
X91026424Y-106890657D01*
X91080000Y-106880000D01*
X91360000Y-106880000D01*
X91413576Y-106890657D01*
G37*
G36*
X92373576Y-106890657D02*
G01*
X92418995Y-106921005D01*
X92449343Y-106966424D01*
X92460000Y-107020000D01*
X92460000Y-107360000D01*
X92449343Y-107413576D01*
X92418995Y-107458995D01*
X92373576Y-107489343D01*
X92320000Y-107500000D01*
X92040000Y-107500000D01*
X91986424Y-107489343D01*
X91941005Y-107458995D01*
X91910657Y-107413576D01*
X91900000Y-107360000D01*
X91900000Y-107020000D01*
X91910657Y-106966424D01*
X91941005Y-106921005D01*
X91986424Y-106890657D01*
X92040000Y-106880000D01*
X92320000Y-106880000D01*
X92373576Y-106890657D01*
G37*
G36*
X88228946Y-106331228D02*
G01*
X88276798Y-106363202D01*
X88308772Y-106411054D01*
X88320000Y-106467500D01*
X88320000Y-106762500D01*
X88308772Y-106818946D01*
X88276798Y-106866798D01*
X88228946Y-106898772D01*
X88172500Y-106910000D01*
X87827500Y-106910000D01*
X87771054Y-106898772D01*
X87723202Y-106866798D01*
X87691228Y-106818946D01*
X87680000Y-106762500D01*
X87680000Y-106467500D01*
X87691228Y-106411054D01*
X87723202Y-106363202D01*
X87771054Y-106331228D01*
X87827500Y-106320000D01*
X88172500Y-106320000D01*
X88228946Y-106331228D01*
G37*
G36*
X91353701Y-104905709D02*
G01*
X91378033Y-104921967D01*
X91394291Y-104946299D01*
X91400000Y-104975000D01*
X91400000Y-106375000D01*
X91394291Y-106403701D01*
X91378033Y-106428033D01*
X91353701Y-106444291D01*
X91325000Y-106450000D01*
X91175000Y-106450000D01*
X91146299Y-106444291D01*
X91121967Y-106428033D01*
X91105709Y-106403701D01*
X91100000Y-106375000D01*
X91100000Y-104975000D01*
X91105709Y-104946299D01*
X91121967Y-104921967D01*
X91146299Y-104905709D01*
X91175000Y-104900000D01*
X91325000Y-104900000D01*
X91353701Y-104905709D01*
G37*
G36*
X91853701Y-104905709D02*
G01*
X91878033Y-104921967D01*
X91894291Y-104946299D01*
X91900000Y-104975000D01*
X91900000Y-106375000D01*
X91894291Y-106403701D01*
X91878033Y-106428033D01*
X91853701Y-106444291D01*
X91825000Y-106450000D01*
X91675000Y-106450000D01*
X91646299Y-106444291D01*
X91621967Y-106428033D01*
X91605709Y-106403701D01*
X91600000Y-106375000D01*
X91600000Y-104975000D01*
X91605709Y-104946299D01*
X91621967Y-104921967D01*
X91646299Y-104905709D01*
X91675000Y-104900000D01*
X91825000Y-104900000D01*
X91853701Y-104905709D01*
G37*
G36*
X92353701Y-104905709D02*
G01*
X92378033Y-104921967D01*
X92394291Y-104946299D01*
X92400000Y-104975000D01*
X92400000Y-106375000D01*
X92394291Y-106403701D01*
X92378033Y-106428033D01*
X92353701Y-106444291D01*
X92325000Y-106450000D01*
X92175000Y-106450000D01*
X92146299Y-106444291D01*
X92121967Y-106428033D01*
X92105709Y-106403701D01*
X92100000Y-106375000D01*
X92100000Y-104975000D01*
X92105709Y-104946299D01*
X92121967Y-104921967D01*
X92146299Y-104905709D01*
X92175000Y-104900000D01*
X92325000Y-104900000D01*
X92353701Y-104905709D01*
G37*
G36*
X92853701Y-104905709D02*
G01*
X92878033Y-104921967D01*
X92894291Y-104946299D01*
X92900000Y-104975000D01*
X92900000Y-106375000D01*
X92894291Y-106403701D01*
X92878033Y-106428033D01*
X92853701Y-106444291D01*
X92825000Y-106450000D01*
X92675000Y-106450000D01*
X92646299Y-106444291D01*
X92621967Y-106428033D01*
X92605709Y-106403701D01*
X92600000Y-106375000D01*
X92600000Y-104975000D01*
X92605709Y-104946299D01*
X92621967Y-104921967D01*
X92646299Y-104905709D01*
X92675000Y-104900000D01*
X92825000Y-104900000D01*
X92853701Y-104905709D01*
G37*
G36*
X93353701Y-104905709D02*
G01*
X93378033Y-104921967D01*
X93394291Y-104946299D01*
X93400000Y-104975000D01*
X93400000Y-106375000D01*
X93394291Y-106403701D01*
X93378033Y-106428033D01*
X93353701Y-106444291D01*
X93325000Y-106450000D01*
X93175000Y-106450000D01*
X93146299Y-106444291D01*
X93121967Y-106428033D01*
X93105709Y-106403701D01*
X93100000Y-106375000D01*
X93100000Y-104975000D01*
X93105709Y-104946299D01*
X93121967Y-104921967D01*
X93146299Y-104905709D01*
X93175000Y-104900000D01*
X93325000Y-104900000D01*
X93353701Y-104905709D01*
G37*
G36*
X93853701Y-104905709D02*
G01*
X93878033Y-104921967D01*
X93894291Y-104946299D01*
X93900000Y-104975000D01*
X93900000Y-106375000D01*
X93894291Y-106403701D01*
X93878033Y-106428033D01*
X93853701Y-106444291D01*
X93825000Y-106450000D01*
X93675000Y-106450000D01*
X93646299Y-106444291D01*
X93621967Y-106428033D01*
X93605709Y-106403701D01*
X93600000Y-106375000D01*
X93600000Y-104975000D01*
X93605709Y-104946299D01*
X93621967Y-104921967D01*
X93646299Y-104905709D01*
X93675000Y-104900000D01*
X93825000Y-104900000D01*
X93853701Y-104905709D01*
G37*
G36*
X94353701Y-104905709D02*
G01*
X94378033Y-104921967D01*
X94394291Y-104946299D01*
X94400000Y-104975000D01*
X94400000Y-106375000D01*
X94394291Y-106403701D01*
X94378033Y-106428033D01*
X94353701Y-106444291D01*
X94325000Y-106450000D01*
X94175000Y-106450000D01*
X94146299Y-106444291D01*
X94121967Y-106428033D01*
X94105709Y-106403701D01*
X94100000Y-106375000D01*
X94100000Y-104975000D01*
X94105709Y-104946299D01*
X94121967Y-104921967D01*
X94146299Y-104905709D01*
X94175000Y-104900000D01*
X94325000Y-104900000D01*
X94353701Y-104905709D01*
G37*
G36*
X94853701Y-104905709D02*
G01*
X94878033Y-104921967D01*
X94894291Y-104946299D01*
X94900000Y-104975000D01*
X94900000Y-106375000D01*
X94894291Y-106403701D01*
X94878033Y-106428033D01*
X94853701Y-106444291D01*
X94825000Y-106450000D01*
X94675000Y-106450000D01*
X94646299Y-106444291D01*
X94621967Y-106428033D01*
X94605709Y-106403701D01*
X94600000Y-106375000D01*
X94600000Y-104975000D01*
X94605709Y-104946299D01*
X94621967Y-104921967D01*
X94646299Y-104905709D01*
X94675000Y-104900000D01*
X94825000Y-104900000D01*
X94853701Y-104905709D01*
G37*
G36*
X95353701Y-104905709D02*
G01*
X95378033Y-104921967D01*
X95394291Y-104946299D01*
X95400000Y-104975000D01*
X95400000Y-106375000D01*
X95394291Y-106403701D01*
X95378033Y-106428033D01*
X95353701Y-106444291D01*
X95325000Y-106450000D01*
X95175000Y-106450000D01*
X95146299Y-106444291D01*
X95121967Y-106428033D01*
X95105709Y-106403701D01*
X95100000Y-106375000D01*
X95100000Y-104975000D01*
X95105709Y-104946299D01*
X95121967Y-104921967D01*
X95146299Y-104905709D01*
X95175000Y-104900000D01*
X95325000Y-104900000D01*
X95353701Y-104905709D01*
G37*
G36*
X95853701Y-104905709D02*
G01*
X95878033Y-104921967D01*
X95894291Y-104946299D01*
X95900000Y-104975000D01*
X95900000Y-106375000D01*
X95894291Y-106403701D01*
X95878033Y-106428033D01*
X95853701Y-106444291D01*
X95825000Y-106450000D01*
X95675000Y-106450000D01*
X95646299Y-106444291D01*
X95621967Y-106428033D01*
X95605709Y-106403701D01*
X95600000Y-106375000D01*
X95600000Y-104975000D01*
X95605709Y-104946299D01*
X95621967Y-104921967D01*
X95646299Y-104905709D01*
X95675000Y-104900000D01*
X95825000Y-104900000D01*
X95853701Y-104905709D01*
G37*
G36*
X96353701Y-104905709D02*
G01*
X96378033Y-104921967D01*
X96394291Y-104946299D01*
X96400000Y-104975000D01*
X96400000Y-106375000D01*
X96394291Y-106403701D01*
X96378033Y-106428033D01*
X96353701Y-106444291D01*
X96325000Y-106450000D01*
X96175000Y-106450000D01*
X96146299Y-106444291D01*
X96121967Y-106428033D01*
X96105709Y-106403701D01*
X96100000Y-106375000D01*
X96100000Y-104975000D01*
X96105709Y-104946299D01*
X96121967Y-104921967D01*
X96146299Y-104905709D01*
X96175000Y-104900000D01*
X96325000Y-104900000D01*
X96353701Y-104905709D01*
G37*
G36*
X96853701Y-104905709D02*
G01*
X96878033Y-104921967D01*
X96894291Y-104946299D01*
X96900000Y-104975000D01*
X96900000Y-106375000D01*
X96894291Y-106403701D01*
X96878033Y-106428033D01*
X96853701Y-106444291D01*
X96825000Y-106450000D01*
X96675000Y-106450000D01*
X96646299Y-106444291D01*
X96621967Y-106428033D01*
X96605709Y-106403701D01*
X96600000Y-106375000D01*
X96600000Y-104975000D01*
X96605709Y-104946299D01*
X96621967Y-104921967D01*
X96646299Y-104905709D01*
X96675000Y-104900000D01*
X96825000Y-104900000D01*
X96853701Y-104905709D01*
G37*
G36*
X97353701Y-104905709D02*
G01*
X97378033Y-104921967D01*
X97394291Y-104946299D01*
X97400000Y-104975000D01*
X97400000Y-106375000D01*
X97394291Y-106403701D01*
X97378033Y-106428033D01*
X97353701Y-106444291D01*
X97325000Y-106450000D01*
X97175000Y-106450000D01*
X97146299Y-106444291D01*
X97121967Y-106428033D01*
X97105709Y-106403701D01*
X97100000Y-106375000D01*
X97100000Y-104975000D01*
X97105709Y-104946299D01*
X97121967Y-104921967D01*
X97146299Y-104905709D01*
X97175000Y-104900000D01*
X97325000Y-104900000D01*
X97353701Y-104905709D01*
G37*
G36*
X97853701Y-104905709D02*
G01*
X97878033Y-104921967D01*
X97894291Y-104946299D01*
X97900000Y-104975000D01*
X97900000Y-106375000D01*
X97894291Y-106403701D01*
X97878033Y-106428033D01*
X97853701Y-106444291D01*
X97825000Y-106450000D01*
X97675000Y-106450000D01*
X97646299Y-106444291D01*
X97621967Y-106428033D01*
X97605709Y-106403701D01*
X97600000Y-106375000D01*
X97600000Y-104975000D01*
X97605709Y-104946299D01*
X97621967Y-104921967D01*
X97646299Y-104905709D01*
X97675000Y-104900000D01*
X97825000Y-104900000D01*
X97853701Y-104905709D01*
G37*
G36*
X98353701Y-104905709D02*
G01*
X98378033Y-104921967D01*
X98394291Y-104946299D01*
X98400000Y-104975000D01*
X98400000Y-106375000D01*
X98394291Y-106403701D01*
X98378033Y-106428033D01*
X98353701Y-106444291D01*
X98325000Y-106450000D01*
X98175000Y-106450000D01*
X98146299Y-106444291D01*
X98121967Y-106428033D01*
X98105709Y-106403701D01*
X98100000Y-106375000D01*
X98100000Y-104975000D01*
X98105709Y-104946299D01*
X98121967Y-104921967D01*
X98146299Y-104905709D01*
X98175000Y-104900000D01*
X98325000Y-104900000D01*
X98353701Y-104905709D01*
G37*
G36*
X98853701Y-104905709D02*
G01*
X98878033Y-104921967D01*
X98894291Y-104946299D01*
X98900000Y-104975000D01*
X98900000Y-106375000D01*
X98894291Y-106403701D01*
X98878033Y-106428033D01*
X98853701Y-106444291D01*
X98825000Y-106450000D01*
X98675000Y-106450000D01*
X98646299Y-106444291D01*
X98621967Y-106428033D01*
X98605709Y-106403701D01*
X98600000Y-106375000D01*
X98600000Y-104975000D01*
X98605709Y-104946299D01*
X98621967Y-104921967D01*
X98646299Y-104905709D01*
X98675000Y-104900000D01*
X98825000Y-104900000D01*
X98853701Y-104905709D01*
G37*
G36*
X104625000Y-106375000D02*
G01*
X103625000Y-106375000D01*
X103625000Y-104925000D01*
X104625000Y-104925000D01*
X104625000Y-106375000D01*
G37*
G36*
X106375000Y-106375000D02*
G01*
X104875000Y-106375000D01*
X104875000Y-105575000D01*
X106375000Y-105575000D01*
X106375000Y-106375000D01*
G37*
G36*
X113975000Y-106375000D02*
G01*
X112475000Y-106375000D01*
X112475000Y-105075000D01*
X113975000Y-105075000D01*
X113975000Y-106375000D01*
G37*
G36*
X84892869Y-105380714D02*
G01*
X84920970Y-105380714D01*
X84953877Y-105390376D01*
X84986660Y-105395569D01*
X85007197Y-105406033D01*
X85028379Y-105412253D01*
X85062729Y-105434328D01*
X85096411Y-105451490D01*
X85108958Y-105464037D01*
X85122548Y-105472771D01*
X85154067Y-105509146D01*
X85183510Y-105538589D01*
X85189120Y-105549599D01*
X85195856Y-105557373D01*
X85219841Y-105609894D01*
X85239431Y-105648340D01*
X85240509Y-105655149D01*
X85242357Y-105659195D01*
X85254233Y-105741798D01*
X85258700Y-105770000D01*
X85254232Y-105798204D01*
X85242357Y-105880804D01*
X85240509Y-105884848D01*
X85239431Y-105891660D01*
X85219837Y-105930114D01*
X85195856Y-105982626D01*
X85189121Y-105990398D01*
X85183510Y-106001411D01*
X85154061Y-106030859D01*
X85122548Y-106067228D01*
X85108961Y-106075959D01*
X85096411Y-106088510D01*
X85062721Y-106105675D01*
X85028379Y-106127746D01*
X85007201Y-106133964D01*
X84986660Y-106144431D01*
X84953875Y-106149623D01*
X84920970Y-106159286D01*
X84892869Y-106159286D01*
X84865000Y-106163700D01*
X84837131Y-106159286D01*
X84809030Y-106159286D01*
X84776124Y-106149623D01*
X84743340Y-106144431D01*
X84722799Y-106133965D01*
X84701620Y-106127746D01*
X84667273Y-106105673D01*
X84633589Y-106088510D01*
X84621040Y-106075961D01*
X84607451Y-106067228D01*
X84575931Y-106030852D01*
X84546490Y-106001411D01*
X84540880Y-105990401D01*
X84534143Y-105982626D01*
X84510152Y-105930095D01*
X84490569Y-105891660D01*
X84489490Y-105884852D01*
X84487642Y-105880804D01*
X84475756Y-105798135D01*
X84471300Y-105770000D01*
X84475755Y-105741866D01*
X84487642Y-105659195D01*
X84489490Y-105655146D01*
X84490569Y-105648340D01*
X84510148Y-105609913D01*
X84534143Y-105557373D01*
X84540881Y-105549596D01*
X84546490Y-105538589D01*
X84575924Y-105509154D01*
X84607451Y-105472771D01*
X84621042Y-105464036D01*
X84633589Y-105451490D01*
X84667266Y-105434330D01*
X84701620Y-105412253D01*
X84722803Y-105406032D01*
X84743340Y-105395569D01*
X84776121Y-105390376D01*
X84809030Y-105380714D01*
X84837131Y-105380714D01*
X84865000Y-105376300D01*
X84892869Y-105380714D01*
G37*
G36*
X86162869Y-105380714D02*
G01*
X86190970Y-105380714D01*
X86223877Y-105390376D01*
X86256660Y-105395569D01*
X86277197Y-105406033D01*
X86298379Y-105412253D01*
X86332729Y-105434328D01*
X86366411Y-105451490D01*
X86378958Y-105464037D01*
X86392548Y-105472771D01*
X86424067Y-105509146D01*
X86453510Y-105538589D01*
X86459120Y-105549599D01*
X86465856Y-105557373D01*
X86489841Y-105609894D01*
X86509431Y-105648340D01*
X86510509Y-105655149D01*
X86512357Y-105659195D01*
X86524233Y-105741798D01*
X86528700Y-105770000D01*
X86524232Y-105798204D01*
X86512357Y-105880804D01*
X86510509Y-105884848D01*
X86509431Y-105891660D01*
X86489837Y-105930114D01*
X86465856Y-105982626D01*
X86459121Y-105990398D01*
X86453510Y-106001411D01*
X86424061Y-106030859D01*
X86392548Y-106067228D01*
X86378961Y-106075959D01*
X86366411Y-106088510D01*
X86332721Y-106105675D01*
X86298379Y-106127746D01*
X86277201Y-106133964D01*
X86256660Y-106144431D01*
X86223875Y-106149623D01*
X86190970Y-106159286D01*
X86162869Y-106159286D01*
X86135000Y-106163700D01*
X86107131Y-106159286D01*
X86079030Y-106159286D01*
X86046124Y-106149623D01*
X86013340Y-106144431D01*
X85992799Y-106133965D01*
X85971620Y-106127746D01*
X85937273Y-106105673D01*
X85903589Y-106088510D01*
X85891040Y-106075961D01*
X85877451Y-106067228D01*
X85845931Y-106030852D01*
X85816490Y-106001411D01*
X85810880Y-105990401D01*
X85804143Y-105982626D01*
X85780152Y-105930095D01*
X85760569Y-105891660D01*
X85759490Y-105884852D01*
X85757642Y-105880804D01*
X85745756Y-105798135D01*
X85741300Y-105770000D01*
X85745755Y-105741866D01*
X85757642Y-105659195D01*
X85759490Y-105655146D01*
X85760569Y-105648340D01*
X85780148Y-105609913D01*
X85804143Y-105557373D01*
X85810881Y-105549596D01*
X85816490Y-105538589D01*
X85845924Y-105509154D01*
X85877451Y-105472771D01*
X85891042Y-105464036D01*
X85903589Y-105451490D01*
X85937266Y-105434330D01*
X85971620Y-105412253D01*
X85992803Y-105406032D01*
X86013340Y-105395569D01*
X86046121Y-105390376D01*
X86079030Y-105380714D01*
X86107131Y-105380714D01*
X86135000Y-105376300D01*
X86162869Y-105380714D01*
G37*
G36*
X99813576Y-105490657D02*
G01*
X99858995Y-105521005D01*
X99889343Y-105566424D01*
X99900000Y-105620000D01*
X99900000Y-105960000D01*
X99889343Y-106013576D01*
X99858995Y-106058995D01*
X99813576Y-106089343D01*
X99760000Y-106100000D01*
X99480000Y-106100000D01*
X99426424Y-106089343D01*
X99381005Y-106058995D01*
X99350657Y-106013576D01*
X99340000Y-105960000D01*
X99340000Y-105620000D01*
X99350657Y-105566424D01*
X99381005Y-105521005D01*
X99426424Y-105490657D01*
X99480000Y-105480000D01*
X99760000Y-105480000D01*
X99813576Y-105490657D01*
G37*
G36*
X100773576Y-105490657D02*
G01*
X100818995Y-105521005D01*
X100849343Y-105566424D01*
X100860000Y-105620000D01*
X100860000Y-105960000D01*
X100849343Y-106013576D01*
X100818995Y-106058995D01*
X100773576Y-106089343D01*
X100720000Y-106100000D01*
X100440000Y-106100000D01*
X100386424Y-106089343D01*
X100341005Y-106058995D01*
X100310657Y-106013576D01*
X100300000Y-105960000D01*
X100300000Y-105620000D01*
X100310657Y-105566424D01*
X100341005Y-105521005D01*
X100386424Y-105490657D01*
X100440000Y-105480000D01*
X100720000Y-105480000D01*
X100773576Y-105490657D01*
G37*
G36*
X88228946Y-105401228D02*
G01*
X88276798Y-105433202D01*
X88308772Y-105481054D01*
X88320000Y-105537500D01*
X88320000Y-105832500D01*
X88308772Y-105888946D01*
X88276798Y-105936798D01*
X88228946Y-105968772D01*
X88172500Y-105980000D01*
X87827500Y-105980000D01*
X87771054Y-105968772D01*
X87723202Y-105936798D01*
X87691228Y-105888946D01*
X87680000Y-105832500D01*
X87680000Y-105537500D01*
X87691228Y-105481054D01*
X87723202Y-105433202D01*
X87771054Y-105401228D01*
X87827500Y-105390000D01*
X88172500Y-105390000D01*
X88228946Y-105401228D01*
G37*
G36*
X89223576Y-105410657D02*
G01*
X89268995Y-105441005D01*
X89299343Y-105486424D01*
X89310000Y-105540000D01*
X89310000Y-105820000D01*
X89299343Y-105873576D01*
X89268995Y-105918995D01*
X89223576Y-105949343D01*
X89170000Y-105960000D01*
X88830000Y-105960000D01*
X88776424Y-105949343D01*
X88731005Y-105918995D01*
X88700657Y-105873576D01*
X88690000Y-105820000D01*
X88690000Y-105540000D01*
X88700657Y-105486424D01*
X88731005Y-105441005D01*
X88776424Y-105410657D01*
X88830000Y-105400000D01*
X89170000Y-105400000D01*
X89223576Y-105410657D01*
G37*
G36*
X88228946Y-104431228D02*
G01*
X88276798Y-104463202D01*
X88308772Y-104511054D01*
X88320000Y-104567500D01*
X88320000Y-104862500D01*
X88308772Y-104918946D01*
X88276798Y-104966798D01*
X88228946Y-104998772D01*
X88172500Y-105010000D01*
X87827500Y-105010000D01*
X87771054Y-104998772D01*
X87723202Y-104966798D01*
X87691228Y-104918946D01*
X87680000Y-104862500D01*
X87680000Y-104567500D01*
X87691228Y-104511054D01*
X87723202Y-104463202D01*
X87771054Y-104431228D01*
X87827500Y-104420000D01*
X88172500Y-104420000D01*
X88228946Y-104431228D01*
G37*
G36*
X89223576Y-104450657D02*
G01*
X89268995Y-104481005D01*
X89299343Y-104526424D01*
X89310000Y-104580000D01*
X89310000Y-104860000D01*
X89299343Y-104913576D01*
X89268995Y-104958995D01*
X89223576Y-104989343D01*
X89170000Y-105000000D01*
X88830000Y-105000000D01*
X88776424Y-104989343D01*
X88731005Y-104958995D01*
X88700657Y-104913576D01*
X88690000Y-104860000D01*
X88690000Y-104580000D01*
X88700657Y-104526424D01*
X88731005Y-104481005D01*
X88776424Y-104450657D01*
X88830000Y-104440000D01*
X89170000Y-104440000D01*
X89223576Y-104450657D01*
G37*
G36*
X84892869Y-104110714D02*
G01*
X84920970Y-104110714D01*
X84953877Y-104120376D01*
X84986660Y-104125569D01*
X85007197Y-104136033D01*
X85028379Y-104142253D01*
X85062729Y-104164328D01*
X85096411Y-104181490D01*
X85108958Y-104194037D01*
X85122548Y-104202771D01*
X85154067Y-104239146D01*
X85183510Y-104268589D01*
X85189120Y-104279599D01*
X85195856Y-104287373D01*
X85219841Y-104339894D01*
X85239431Y-104378340D01*
X85240509Y-104385149D01*
X85242357Y-104389195D01*
X85254233Y-104471798D01*
X85258700Y-104500000D01*
X85254232Y-104528204D01*
X85242357Y-104610804D01*
X85240509Y-104614848D01*
X85239431Y-104621660D01*
X85219837Y-104660114D01*
X85195856Y-104712626D01*
X85189121Y-104720398D01*
X85183510Y-104731411D01*
X85154061Y-104760859D01*
X85122548Y-104797228D01*
X85108961Y-104805959D01*
X85096411Y-104818510D01*
X85062721Y-104835675D01*
X85028379Y-104857746D01*
X85007201Y-104863964D01*
X84986660Y-104874431D01*
X84953875Y-104879623D01*
X84920970Y-104889286D01*
X84892869Y-104889286D01*
X84865000Y-104893700D01*
X84837131Y-104889286D01*
X84809030Y-104889286D01*
X84776124Y-104879623D01*
X84743340Y-104874431D01*
X84722799Y-104863965D01*
X84701620Y-104857746D01*
X84667273Y-104835673D01*
X84633589Y-104818510D01*
X84621040Y-104805961D01*
X84607451Y-104797228D01*
X84575931Y-104760852D01*
X84546490Y-104731411D01*
X84540880Y-104720401D01*
X84534143Y-104712626D01*
X84510152Y-104660095D01*
X84490569Y-104621660D01*
X84489490Y-104614852D01*
X84487642Y-104610804D01*
X84475756Y-104528135D01*
X84471300Y-104500000D01*
X84475755Y-104471866D01*
X84487642Y-104389195D01*
X84489490Y-104385146D01*
X84490569Y-104378340D01*
X84510148Y-104339913D01*
X84534143Y-104287373D01*
X84540881Y-104279596D01*
X84546490Y-104268589D01*
X84575924Y-104239154D01*
X84607451Y-104202771D01*
X84621042Y-104194036D01*
X84633589Y-104181490D01*
X84667266Y-104164330D01*
X84701620Y-104142253D01*
X84722803Y-104136032D01*
X84743340Y-104125569D01*
X84776121Y-104120376D01*
X84809030Y-104110714D01*
X84837131Y-104110714D01*
X84865000Y-104106300D01*
X84892869Y-104110714D01*
G37*
G36*
X86162869Y-104110714D02*
G01*
X86190970Y-104110714D01*
X86223877Y-104120376D01*
X86256660Y-104125569D01*
X86277197Y-104136033D01*
X86298379Y-104142253D01*
X86332729Y-104164328D01*
X86366411Y-104181490D01*
X86378958Y-104194037D01*
X86392548Y-104202771D01*
X86424067Y-104239146D01*
X86453510Y-104268589D01*
X86459120Y-104279599D01*
X86465856Y-104287373D01*
X86489841Y-104339894D01*
X86509431Y-104378340D01*
X86510509Y-104385149D01*
X86512357Y-104389195D01*
X86524233Y-104471798D01*
X86528700Y-104500000D01*
X86524232Y-104528204D01*
X86512357Y-104610804D01*
X86510509Y-104614848D01*
X86509431Y-104621660D01*
X86489837Y-104660114D01*
X86465856Y-104712626D01*
X86459121Y-104720398D01*
X86453510Y-104731411D01*
X86424061Y-104760859D01*
X86392548Y-104797228D01*
X86378961Y-104805959D01*
X86366411Y-104818510D01*
X86332721Y-104835675D01*
X86298379Y-104857746D01*
X86277201Y-104863964D01*
X86256660Y-104874431D01*
X86223875Y-104879623D01*
X86190970Y-104889286D01*
X86162869Y-104889286D01*
X86135000Y-104893700D01*
X86107131Y-104889286D01*
X86079030Y-104889286D01*
X86046124Y-104879623D01*
X86013340Y-104874431D01*
X85992799Y-104863965D01*
X85971620Y-104857746D01*
X85937273Y-104835673D01*
X85903589Y-104818510D01*
X85891040Y-104805961D01*
X85877451Y-104797228D01*
X85845931Y-104760852D01*
X85816490Y-104731411D01*
X85810880Y-104720401D01*
X85804143Y-104712626D01*
X85780152Y-104660095D01*
X85760569Y-104621660D01*
X85759490Y-104614852D01*
X85757642Y-104610804D01*
X85745756Y-104528135D01*
X85741300Y-104500000D01*
X85745755Y-104471866D01*
X85757642Y-104389195D01*
X85759490Y-104385146D01*
X85760569Y-104378340D01*
X85780148Y-104339913D01*
X85804143Y-104287373D01*
X85810881Y-104279596D01*
X85816490Y-104268589D01*
X85845924Y-104239154D01*
X85877451Y-104202771D01*
X85891042Y-104194036D01*
X85903589Y-104181490D01*
X85937266Y-104164330D01*
X85971620Y-104142253D01*
X85992803Y-104136032D01*
X86013340Y-104125569D01*
X86046121Y-104120376D01*
X86079030Y-104110714D01*
X86107131Y-104110714D01*
X86135000Y-104106300D01*
X86162869Y-104110714D01*
G37*
G36*
X114225000Y-104875000D02*
G01*
X112475000Y-104875000D01*
X112475000Y-104175000D01*
X114225000Y-104175000D01*
X114225000Y-104875000D01*
G37*
G36*
X90053701Y-103605709D02*
G01*
X90078033Y-103621967D01*
X90094291Y-103646299D01*
X90100000Y-103675000D01*
X90100000Y-103825000D01*
X90094291Y-103853701D01*
X90078033Y-103878033D01*
X90053701Y-103894291D01*
X90025000Y-103900000D01*
X88625000Y-103900000D01*
X88596299Y-103894291D01*
X88571967Y-103878033D01*
X88555709Y-103853701D01*
X88550000Y-103825000D01*
X88550000Y-103675000D01*
X88555709Y-103646299D01*
X88571967Y-103621967D01*
X88596299Y-103605709D01*
X88625000Y-103600000D01*
X90025000Y-103600000D01*
X90053701Y-103605709D01*
G37*
G36*
X101403701Y-103605709D02*
G01*
X101428033Y-103621967D01*
X101444291Y-103646299D01*
X101450000Y-103675000D01*
X101450000Y-103825000D01*
X101444291Y-103853701D01*
X101428033Y-103878033D01*
X101403701Y-103894291D01*
X101375000Y-103900000D01*
X99975000Y-103900000D01*
X99946299Y-103894291D01*
X99921967Y-103878033D01*
X99905709Y-103853701D01*
X99900000Y-103825000D01*
X99900000Y-103675000D01*
X99905709Y-103646299D01*
X99921967Y-103621967D01*
X99946299Y-103605709D01*
X99975000Y-103600000D01*
X101375000Y-103600000D01*
X101403701Y-103605709D01*
G37*
G36*
X114225000Y-103775000D02*
G01*
X112475000Y-103775000D01*
X112475000Y-103075000D01*
X114225000Y-103075000D01*
X114225000Y-103775000D01*
G37*
G36*
X84892869Y-102840714D02*
G01*
X84920970Y-102840714D01*
X84953877Y-102850376D01*
X84986660Y-102855569D01*
X85007197Y-102866033D01*
X85028379Y-102872253D01*
X85062729Y-102894328D01*
X85096411Y-102911490D01*
X85108958Y-102924037D01*
X85122548Y-102932771D01*
X85154067Y-102969146D01*
X85183510Y-102998589D01*
X85189120Y-103009599D01*
X85195856Y-103017373D01*
X85219841Y-103069894D01*
X85239431Y-103108340D01*
X85240509Y-103115149D01*
X85242357Y-103119195D01*
X85254233Y-103201798D01*
X85258700Y-103230000D01*
X85254232Y-103258204D01*
X85242357Y-103340804D01*
X85240509Y-103344848D01*
X85239431Y-103351660D01*
X85219837Y-103390114D01*
X85195856Y-103442626D01*
X85189121Y-103450398D01*
X85183510Y-103461411D01*
X85154061Y-103490859D01*
X85122548Y-103527228D01*
X85108961Y-103535959D01*
X85096411Y-103548510D01*
X85062721Y-103565675D01*
X85028379Y-103587746D01*
X85007201Y-103593964D01*
X84986660Y-103604431D01*
X84953875Y-103609623D01*
X84920970Y-103619286D01*
X84892869Y-103619286D01*
X84865000Y-103623700D01*
X84837131Y-103619286D01*
X84809030Y-103619286D01*
X84776124Y-103609623D01*
X84743340Y-103604431D01*
X84722799Y-103593965D01*
X84701620Y-103587746D01*
X84667273Y-103565673D01*
X84633589Y-103548510D01*
X84621040Y-103535961D01*
X84607451Y-103527228D01*
X84575931Y-103490852D01*
X84546490Y-103461411D01*
X84540880Y-103450401D01*
X84534143Y-103442626D01*
X84510152Y-103390095D01*
X84490569Y-103351660D01*
X84489490Y-103344852D01*
X84487642Y-103340804D01*
X84475756Y-103258135D01*
X84471300Y-103230000D01*
X84475755Y-103201866D01*
X84487642Y-103119195D01*
X84489490Y-103115146D01*
X84490569Y-103108340D01*
X84510148Y-103069913D01*
X84534143Y-103017373D01*
X84540881Y-103009596D01*
X84546490Y-102998589D01*
X84575924Y-102969154D01*
X84607451Y-102932771D01*
X84621042Y-102924036D01*
X84633589Y-102911490D01*
X84667266Y-102894330D01*
X84701620Y-102872253D01*
X84722803Y-102866032D01*
X84743340Y-102855569D01*
X84776121Y-102850376D01*
X84809030Y-102840714D01*
X84837131Y-102840714D01*
X84865000Y-102836300D01*
X84892869Y-102840714D01*
G37*
G36*
X86162869Y-102840714D02*
G01*
X86190970Y-102840714D01*
X86223877Y-102850376D01*
X86256660Y-102855569D01*
X86277197Y-102866033D01*
X86298379Y-102872253D01*
X86332729Y-102894328D01*
X86366411Y-102911490D01*
X86378958Y-102924037D01*
X86392548Y-102932771D01*
X86424067Y-102969146D01*
X86453510Y-102998589D01*
X86459120Y-103009599D01*
X86465856Y-103017373D01*
X86489841Y-103069894D01*
X86509431Y-103108340D01*
X86510509Y-103115149D01*
X86512357Y-103119195D01*
X86524233Y-103201798D01*
X86528700Y-103230000D01*
X86524232Y-103258204D01*
X86512357Y-103340804D01*
X86510509Y-103344848D01*
X86509431Y-103351660D01*
X86489837Y-103390114D01*
X86465856Y-103442626D01*
X86459121Y-103450398D01*
X86453510Y-103461411D01*
X86424061Y-103490859D01*
X86392548Y-103527228D01*
X86378961Y-103535959D01*
X86366411Y-103548510D01*
X86332721Y-103565675D01*
X86298379Y-103587746D01*
X86277201Y-103593964D01*
X86256660Y-103604431D01*
X86223875Y-103609623D01*
X86190970Y-103619286D01*
X86162869Y-103619286D01*
X86135000Y-103623700D01*
X86107131Y-103619286D01*
X86079030Y-103619286D01*
X86046124Y-103609623D01*
X86013340Y-103604431D01*
X85992799Y-103593965D01*
X85971620Y-103587746D01*
X85937273Y-103565673D01*
X85903589Y-103548510D01*
X85891040Y-103535961D01*
X85877451Y-103527228D01*
X85845931Y-103490852D01*
X85816490Y-103461411D01*
X85810880Y-103450401D01*
X85804143Y-103442626D01*
X85780152Y-103390095D01*
X85760569Y-103351660D01*
X85759490Y-103344852D01*
X85757642Y-103340804D01*
X85745756Y-103258135D01*
X85741300Y-103230000D01*
X85745755Y-103201866D01*
X85757642Y-103119195D01*
X85759490Y-103115146D01*
X85760569Y-103108340D01*
X85780148Y-103069913D01*
X85804143Y-103017373D01*
X85810881Y-103009596D01*
X85816490Y-102998589D01*
X85845924Y-102969154D01*
X85877451Y-102932771D01*
X85891042Y-102924036D01*
X85903589Y-102911490D01*
X85937266Y-102894330D01*
X85971620Y-102872253D01*
X85992803Y-102866032D01*
X86013340Y-102855569D01*
X86046121Y-102850376D01*
X86079030Y-102840714D01*
X86107131Y-102840714D01*
X86135000Y-102836300D01*
X86162869Y-102840714D01*
G37*
G36*
X90053701Y-103105709D02*
G01*
X90078033Y-103121967D01*
X90094291Y-103146299D01*
X90100000Y-103175000D01*
X90100000Y-103325000D01*
X90094291Y-103353701D01*
X90078033Y-103378033D01*
X90053701Y-103394291D01*
X90025000Y-103400000D01*
X88625000Y-103400000D01*
X88596299Y-103394291D01*
X88571967Y-103378033D01*
X88555709Y-103353701D01*
X88550000Y-103325000D01*
X88550000Y-103175000D01*
X88555709Y-103146299D01*
X88571967Y-103121967D01*
X88596299Y-103105709D01*
X88625000Y-103100000D01*
X90025000Y-103100000D01*
X90053701Y-103105709D01*
G37*
G36*
X101403701Y-103105709D02*
G01*
X101428033Y-103121967D01*
X101444291Y-103146299D01*
X101450000Y-103175000D01*
X101450000Y-103325000D01*
X101444291Y-103353701D01*
X101428033Y-103378033D01*
X101403701Y-103394291D01*
X101375000Y-103400000D01*
X99975000Y-103400000D01*
X99946299Y-103394291D01*
X99921967Y-103378033D01*
X99905709Y-103353701D01*
X99900000Y-103325000D01*
X99900000Y-103175000D01*
X99905709Y-103146299D01*
X99921967Y-103121967D01*
X99946299Y-103105709D01*
X99975000Y-103100000D01*
X101375000Y-103100000D01*
X101403701Y-103105709D01*
G37*
G36*
X90053701Y-102605709D02*
G01*
X90078033Y-102621967D01*
X90094291Y-102646299D01*
X90100000Y-102675000D01*
X90100000Y-102825000D01*
X90094291Y-102853701D01*
X90078033Y-102878033D01*
X90053701Y-102894291D01*
X90025000Y-102900000D01*
X88625000Y-102900000D01*
X88596299Y-102894291D01*
X88571967Y-102878033D01*
X88555709Y-102853701D01*
X88550000Y-102825000D01*
X88550000Y-102675000D01*
X88555709Y-102646299D01*
X88571967Y-102621967D01*
X88596299Y-102605709D01*
X88625000Y-102600000D01*
X90025000Y-102600000D01*
X90053701Y-102605709D01*
G37*
G36*
X101403701Y-102605709D02*
G01*
X101428033Y-102621967D01*
X101444291Y-102646299D01*
X101450000Y-102675000D01*
X101450000Y-102825000D01*
X101444291Y-102853701D01*
X101428033Y-102878033D01*
X101403701Y-102894291D01*
X101375000Y-102900000D01*
X99975000Y-102900000D01*
X99946299Y-102894291D01*
X99921967Y-102878033D01*
X99905709Y-102853701D01*
X99900000Y-102825000D01*
X99900000Y-102675000D01*
X99905709Y-102646299D01*
X99921967Y-102621967D01*
X99946299Y-102605709D01*
X99975000Y-102600000D01*
X101375000Y-102600000D01*
X101403701Y-102605709D01*
G37*
G36*
X114225000Y-102675000D02*
G01*
X112475000Y-102675000D01*
X112475000Y-101975000D01*
X114225000Y-101975000D01*
X114225000Y-102675000D01*
G37*
G36*
X84519670Y-101469741D02*
G01*
X84554489Y-101469741D01*
X84582788Y-101478050D01*
X84612105Y-101481910D01*
X84651487Y-101498222D01*
X84689755Y-101509459D01*
X84709953Y-101522439D01*
X84731477Y-101531355D01*
X84770917Y-101561618D01*
X84808353Y-101585677D01*
X84820420Y-101599603D01*
X84833986Y-101610013D01*
X84869157Y-101655850D01*
X84900673Y-101692221D01*
X84905976Y-101703833D01*
X84912644Y-101712523D01*
X84938969Y-101776078D01*
X84959237Y-101820458D01*
X84960239Y-101827428D01*
X84962089Y-101831894D01*
X84975198Y-101931472D01*
X84979300Y-101960000D01*
X84975198Y-101988529D01*
X84962089Y-102088105D01*
X84960239Y-102092570D01*
X84959237Y-102099542D01*
X84938966Y-102143927D01*
X84912644Y-102207477D01*
X84905976Y-102216166D01*
X84900673Y-102227779D01*
X84869153Y-102264154D01*
X84833986Y-102309986D01*
X84820423Y-102320393D01*
X84808353Y-102334323D01*
X84770909Y-102358386D01*
X84731477Y-102388644D01*
X84709958Y-102397557D01*
X84689755Y-102410541D01*
X84651478Y-102421779D01*
X84612105Y-102438089D01*
X84582794Y-102441947D01*
X84554489Y-102450259D01*
X84519663Y-102450259D01*
X84484000Y-102454954D01*
X84448337Y-102450259D01*
X84413511Y-102450259D01*
X84385206Y-102441947D01*
X84355894Y-102438089D01*
X84316517Y-102421778D01*
X84278245Y-102410541D01*
X84258043Y-102397558D01*
X84236522Y-102388644D01*
X84197084Y-102358382D01*
X84159647Y-102334323D01*
X84147578Y-102320395D01*
X84134013Y-102309986D01*
X84098837Y-102264144D01*
X84067327Y-102227779D01*
X84062025Y-102216169D01*
X84055355Y-102207477D01*
X84029022Y-102143903D01*
X84008763Y-102099542D01*
X84007761Y-102092574D01*
X84005910Y-102088105D01*
X83992790Y-101988447D01*
X83988700Y-101960000D01*
X83992789Y-101931555D01*
X84005910Y-101831894D01*
X84007761Y-101827424D01*
X84008763Y-101820458D01*
X84029019Y-101776101D01*
X84055355Y-101712523D01*
X84062025Y-101703829D01*
X84067327Y-101692221D01*
X84098833Y-101655860D01*
X84134013Y-101610013D01*
X84147581Y-101599601D01*
X84159647Y-101585677D01*
X84197080Y-101561620D01*
X84236523Y-101531355D01*
X84258046Y-101522439D01*
X84278245Y-101509459D01*
X84316510Y-101498223D01*
X84355894Y-101481910D01*
X84385212Y-101478050D01*
X84413511Y-101469741D01*
X84448329Y-101469741D01*
X84484000Y-101465045D01*
X84519670Y-101469741D01*
G37*
G36*
X86551670Y-101469741D02*
G01*
X86586489Y-101469741D01*
X86614788Y-101478050D01*
X86644105Y-101481910D01*
X86683487Y-101498222D01*
X86721755Y-101509459D01*
X86741953Y-101522439D01*
X86763477Y-101531355D01*
X86802917Y-101561618D01*
X86840353Y-101585677D01*
X86852420Y-101599603D01*
X86865986Y-101610013D01*
X86901157Y-101655850D01*
X86932673Y-101692221D01*
X86937976Y-101703833D01*
X86944644Y-101712523D01*
X86970969Y-101776078D01*
X86991237Y-101820458D01*
X86992239Y-101827428D01*
X86994089Y-101831894D01*
X87007198Y-101931472D01*
X87011300Y-101960000D01*
X87007198Y-101988529D01*
X86994089Y-102088105D01*
X86992239Y-102092570D01*
X86991237Y-102099542D01*
X86970966Y-102143927D01*
X86944644Y-102207477D01*
X86937976Y-102216166D01*
X86932673Y-102227779D01*
X86901153Y-102264154D01*
X86865986Y-102309986D01*
X86852423Y-102320393D01*
X86840353Y-102334323D01*
X86802909Y-102358386D01*
X86763477Y-102388644D01*
X86741958Y-102397557D01*
X86721755Y-102410541D01*
X86683478Y-102421779D01*
X86644105Y-102438089D01*
X86614794Y-102441947D01*
X86586489Y-102450259D01*
X86551663Y-102450259D01*
X86516000Y-102454954D01*
X86480337Y-102450259D01*
X86445511Y-102450259D01*
X86417206Y-102441947D01*
X86387894Y-102438089D01*
X86348517Y-102421778D01*
X86310245Y-102410541D01*
X86290043Y-102397558D01*
X86268522Y-102388644D01*
X86229084Y-102358382D01*
X86191647Y-102334323D01*
X86179578Y-102320395D01*
X86166013Y-102309986D01*
X86130837Y-102264144D01*
X86099327Y-102227779D01*
X86094025Y-102216169D01*
X86087355Y-102207477D01*
X86061022Y-102143903D01*
X86040763Y-102099542D01*
X86039761Y-102092574D01*
X86037910Y-102088105D01*
X86024790Y-101988447D01*
X86020700Y-101960000D01*
X86024789Y-101931555D01*
X86037910Y-101831894D01*
X86039761Y-101827424D01*
X86040763Y-101820458D01*
X86061019Y-101776101D01*
X86087355Y-101712523D01*
X86094025Y-101703829D01*
X86099327Y-101692221D01*
X86130833Y-101655860D01*
X86166013Y-101610013D01*
X86179581Y-101599601D01*
X86191647Y-101585677D01*
X86229080Y-101561620D01*
X86268523Y-101531355D01*
X86290046Y-101522439D01*
X86310245Y-101509459D01*
X86348510Y-101498223D01*
X86387894Y-101481910D01*
X86417212Y-101478050D01*
X86445511Y-101469741D01*
X86480329Y-101469741D01*
X86516000Y-101465045D01*
X86551670Y-101469741D01*
G37*
G36*
X90053701Y-102105709D02*
G01*
X90078033Y-102121967D01*
X90094291Y-102146299D01*
X90100000Y-102175000D01*
X90100000Y-102325000D01*
X90094291Y-102353701D01*
X90078033Y-102378033D01*
X90053701Y-102394291D01*
X90025000Y-102400000D01*
X88625000Y-102400000D01*
X88596299Y-102394291D01*
X88571967Y-102378033D01*
X88555709Y-102353701D01*
X88550000Y-102325000D01*
X88550000Y-102175000D01*
X88555709Y-102146299D01*
X88571967Y-102121967D01*
X88596299Y-102105709D01*
X88625000Y-102100000D01*
X90025000Y-102100000D01*
X90053701Y-102105709D01*
G37*
G36*
X101403701Y-102105709D02*
G01*
X101428033Y-102121967D01*
X101444291Y-102146299D01*
X101450000Y-102175000D01*
X101450000Y-102325000D01*
X101444291Y-102353701D01*
X101428033Y-102378033D01*
X101403701Y-102394291D01*
X101375000Y-102400000D01*
X99975000Y-102400000D01*
X99946299Y-102394291D01*
X99921967Y-102378033D01*
X99905709Y-102353701D01*
X99900000Y-102325000D01*
X99900000Y-102175000D01*
X99905709Y-102146299D01*
X99921967Y-102121967D01*
X99946299Y-102105709D01*
X99975000Y-102100000D01*
X101375000Y-102100000D01*
X101403701Y-102105709D01*
G37*
G36*
X90053701Y-101605709D02*
G01*
X90078033Y-101621967D01*
X90094291Y-101646299D01*
X90100000Y-101675000D01*
X90100000Y-101825000D01*
X90094291Y-101853701D01*
X90078033Y-101878033D01*
X90053701Y-101894291D01*
X90025000Y-101900000D01*
X88625000Y-101900000D01*
X88596299Y-101894291D01*
X88571967Y-101878033D01*
X88555709Y-101853701D01*
X88550000Y-101825000D01*
X88550000Y-101675000D01*
X88555709Y-101646299D01*
X88571967Y-101621967D01*
X88596299Y-101605709D01*
X88625000Y-101600000D01*
X90025000Y-101600000D01*
X90053701Y-101605709D01*
G37*
G36*
X101403701Y-101605709D02*
G01*
X101428033Y-101621967D01*
X101444291Y-101646299D01*
X101450000Y-101675000D01*
X101450000Y-101825000D01*
X101444291Y-101853701D01*
X101428033Y-101878033D01*
X101403701Y-101894291D01*
X101375000Y-101900000D01*
X99975000Y-101900000D01*
X99946299Y-101894291D01*
X99921967Y-101878033D01*
X99905709Y-101853701D01*
X99900000Y-101825000D01*
X99900000Y-101675000D01*
X99905709Y-101646299D01*
X99921967Y-101621967D01*
X99946299Y-101605709D01*
X99975000Y-101600000D01*
X101375000Y-101600000D01*
X101403701Y-101605709D01*
G37*
G36*
X114225000Y-101575000D02*
G01*
X112475000Y-101575000D01*
X112475000Y-100875000D01*
X114225000Y-100875000D01*
X114225000Y-101575000D01*
G37*
G36*
X90053701Y-101105709D02*
G01*
X90078033Y-101121967D01*
X90094291Y-101146299D01*
X90100000Y-101175000D01*
X90100000Y-101325000D01*
X90094291Y-101353701D01*
X90078033Y-101378033D01*
X90053701Y-101394291D01*
X90025000Y-101400000D01*
X88625000Y-101400000D01*
X88596299Y-101394291D01*
X88571967Y-101378033D01*
X88555709Y-101353701D01*
X88550000Y-101325000D01*
X88550000Y-101175000D01*
X88555709Y-101146299D01*
X88571967Y-101121967D01*
X88596299Y-101105709D01*
X88625000Y-101100000D01*
X90025000Y-101100000D01*
X90053701Y-101105709D01*
G37*
G36*
X101403701Y-101105709D02*
G01*
X101428033Y-101121967D01*
X101444291Y-101146299D01*
X101450000Y-101175000D01*
X101450000Y-101325000D01*
X101444291Y-101353701D01*
X101428033Y-101378033D01*
X101403701Y-101394291D01*
X101375000Y-101400000D01*
X99975000Y-101400000D01*
X99946299Y-101394291D01*
X99921967Y-101378033D01*
X99905709Y-101353701D01*
X99900000Y-101325000D01*
X99900000Y-101175000D01*
X99905709Y-101146299D01*
X99921967Y-101121967D01*
X99946299Y-101105709D01*
X99975000Y-101100000D01*
X101375000Y-101100000D01*
X101403701Y-101105709D01*
G37*
G36*
X90053701Y-100605709D02*
G01*
X90078033Y-100621967D01*
X90094291Y-100646299D01*
X90100000Y-100675000D01*
X90100000Y-100825000D01*
X90094291Y-100853701D01*
X90078033Y-100878033D01*
X90053701Y-100894291D01*
X90025000Y-100900000D01*
X88625000Y-100900000D01*
X88596299Y-100894291D01*
X88571967Y-100878033D01*
X88555709Y-100853701D01*
X88550000Y-100825000D01*
X88550000Y-100675000D01*
X88555709Y-100646299D01*
X88571967Y-100621967D01*
X88596299Y-100605709D01*
X88625000Y-100600000D01*
X90025000Y-100600000D01*
X90053701Y-100605709D01*
G37*
G36*
X101403701Y-100605709D02*
G01*
X101428033Y-100621967D01*
X101444291Y-100646299D01*
X101450000Y-100675000D01*
X101450000Y-100825000D01*
X101444291Y-100853701D01*
X101428033Y-100878033D01*
X101403701Y-100894291D01*
X101375000Y-100900000D01*
X99975000Y-100900000D01*
X99946299Y-100894291D01*
X99921967Y-100878033D01*
X99905709Y-100853701D01*
X99900000Y-100825000D01*
X99900000Y-100675000D01*
X99905709Y-100646299D01*
X99921967Y-100621967D01*
X99946299Y-100605709D01*
X99975000Y-100600000D01*
X101375000Y-100600000D01*
X101403701Y-100605709D01*
G37*
G36*
X114225000Y-100475000D02*
G01*
X112475000Y-100475000D01*
X112475000Y-99775000D01*
X114225000Y-99775000D01*
X114225000Y-100475000D01*
G37*
G36*
X90053701Y-100105709D02*
G01*
X90078033Y-100121967D01*
X90094291Y-100146299D01*
X90100000Y-100175000D01*
X90100000Y-100325000D01*
X90094291Y-100353701D01*
X90078033Y-100378033D01*
X90053701Y-100394291D01*
X90025000Y-100400000D01*
X88625000Y-100400000D01*
X88596299Y-100394291D01*
X88571967Y-100378033D01*
X88555709Y-100353701D01*
X88550000Y-100325000D01*
X88550000Y-100175000D01*
X88555709Y-100146299D01*
X88571967Y-100121967D01*
X88596299Y-100105709D01*
X88625000Y-100100000D01*
X90025000Y-100100000D01*
X90053701Y-100105709D01*
G37*
G36*
X101403701Y-100105709D02*
G01*
X101428033Y-100121967D01*
X101444291Y-100146299D01*
X101450000Y-100175000D01*
X101450000Y-100325000D01*
X101444291Y-100353701D01*
X101428033Y-100378033D01*
X101403701Y-100394291D01*
X101375000Y-100400000D01*
X99975000Y-100400000D01*
X99946299Y-100394291D01*
X99921967Y-100378033D01*
X99905709Y-100353701D01*
X99900000Y-100325000D01*
X99900000Y-100175000D01*
X99905709Y-100146299D01*
X99921967Y-100121967D01*
X99946299Y-100105709D01*
X99975000Y-100100000D01*
X101375000Y-100100000D01*
X101403701Y-100105709D01*
G37*
G36*
X85776662Y-99590276D02*
G01*
X85820459Y-99619541D01*
X85849724Y-99663338D01*
X85860000Y-99715000D01*
X85860000Y-100085000D01*
X85849724Y-100136662D01*
X85820459Y-100180459D01*
X85776662Y-100209724D01*
X85725000Y-100220000D01*
X85455000Y-100220000D01*
X85403338Y-100209724D01*
X85359541Y-100180459D01*
X85330276Y-100136662D01*
X85320000Y-100085000D01*
X85320000Y-99715000D01*
X85330276Y-99663338D01*
X85359541Y-99619541D01*
X85403338Y-99590276D01*
X85455000Y-99580000D01*
X85725000Y-99580000D01*
X85776662Y-99590276D01*
G37*
G36*
X86796662Y-99590276D02*
G01*
X86840459Y-99619541D01*
X86869724Y-99663338D01*
X86880000Y-99715000D01*
X86880000Y-100085000D01*
X86869724Y-100136662D01*
X86840459Y-100180459D01*
X86796662Y-100209724D01*
X86745000Y-100220000D01*
X86475000Y-100220000D01*
X86423338Y-100209724D01*
X86379541Y-100180459D01*
X86350276Y-100136662D01*
X86340000Y-100085000D01*
X86340000Y-99715000D01*
X86350276Y-99663338D01*
X86379541Y-99619541D01*
X86423338Y-99590276D01*
X86475000Y-99580000D01*
X86745000Y-99580000D01*
X86796662Y-99590276D01*
G37*
G36*
X83913576Y-99600657D02*
G01*
X83958995Y-99631005D01*
X83989343Y-99676424D01*
X84000000Y-99730000D01*
X84000000Y-100070000D01*
X83989343Y-100123576D01*
X83958995Y-100168995D01*
X83913576Y-100199343D01*
X83860000Y-100210000D01*
X83580000Y-100210000D01*
X83526424Y-100199343D01*
X83481005Y-100168995D01*
X83450657Y-100123576D01*
X83440000Y-100070000D01*
X83440000Y-99730000D01*
X83450657Y-99676424D01*
X83481005Y-99631005D01*
X83526424Y-99600657D01*
X83580000Y-99590000D01*
X83860000Y-99590000D01*
X83913576Y-99600657D01*
G37*
G36*
X84873576Y-99600657D02*
G01*
X84918995Y-99631005D01*
X84949343Y-99676424D01*
X84960000Y-99730000D01*
X84960000Y-100070000D01*
X84949343Y-100123576D01*
X84918995Y-100168995D01*
X84873576Y-100199343D01*
X84820000Y-100210000D01*
X84540000Y-100210000D01*
X84486424Y-100199343D01*
X84441005Y-100168995D01*
X84410657Y-100123576D01*
X84400000Y-100070000D01*
X84400000Y-99730000D01*
X84410657Y-99676424D01*
X84441005Y-99631005D01*
X84486424Y-99600657D01*
X84540000Y-99590000D01*
X84820000Y-99590000D01*
X84873576Y-99600657D01*
G37*
G36*
X90053701Y-99605709D02*
G01*
X90078033Y-99621967D01*
X90094291Y-99646299D01*
X90100000Y-99675000D01*
X90100000Y-99825000D01*
X90094291Y-99853701D01*
X90078033Y-99878033D01*
X90053701Y-99894291D01*
X90025000Y-99900000D01*
X88625000Y-99900000D01*
X88596299Y-99894291D01*
X88571967Y-99878033D01*
X88555709Y-99853701D01*
X88550000Y-99825000D01*
X88550000Y-99675000D01*
X88555709Y-99646299D01*
X88571967Y-99621967D01*
X88596299Y-99605709D01*
X88625000Y-99600000D01*
X90025000Y-99600000D01*
X90053701Y-99605709D01*
G37*
G36*
X101403701Y-99605709D02*
G01*
X101428033Y-99621967D01*
X101444291Y-99646299D01*
X101450000Y-99675000D01*
X101450000Y-99825000D01*
X101444291Y-99853701D01*
X101428033Y-99878033D01*
X101403701Y-99894291D01*
X101375000Y-99900000D01*
X99975000Y-99900000D01*
X99946299Y-99894291D01*
X99921967Y-99878033D01*
X99905709Y-99853701D01*
X99900000Y-99825000D01*
X99900000Y-99675000D01*
X99905709Y-99646299D01*
X99921967Y-99621967D01*
X99946299Y-99605709D01*
X99975000Y-99600000D01*
X101375000Y-99600000D01*
X101403701Y-99605709D01*
G37*
G36*
X90053701Y-99105709D02*
G01*
X90078033Y-99121967D01*
X90094291Y-99146299D01*
X90100000Y-99175000D01*
X90100000Y-99325000D01*
X90094291Y-99353701D01*
X90078033Y-99378033D01*
X90053701Y-99394291D01*
X90025000Y-99400000D01*
X88625000Y-99400000D01*
X88596299Y-99394291D01*
X88571967Y-99378033D01*
X88555709Y-99353701D01*
X88550000Y-99325000D01*
X88550000Y-99175000D01*
X88555709Y-99146299D01*
X88571967Y-99121967D01*
X88596299Y-99105709D01*
X88625000Y-99100000D01*
X90025000Y-99100000D01*
X90053701Y-99105709D01*
G37*
G36*
X101403701Y-99105709D02*
G01*
X101428033Y-99121967D01*
X101444291Y-99146299D01*
X101450000Y-99175000D01*
X101450000Y-99325000D01*
X101444291Y-99353701D01*
X101428033Y-99378033D01*
X101403701Y-99394291D01*
X101375000Y-99400000D01*
X99975000Y-99400000D01*
X99946299Y-99394291D01*
X99921967Y-99378033D01*
X99905709Y-99353701D01*
X99900000Y-99325000D01*
X99900000Y-99175000D01*
X99905709Y-99146299D01*
X99921967Y-99121967D01*
X99946299Y-99105709D01*
X99975000Y-99100000D01*
X101375000Y-99100000D01*
X101403701Y-99105709D01*
G37*
G36*
X114225000Y-99375000D02*
G01*
X112475000Y-99375000D01*
X112475000Y-98675000D01*
X114225000Y-98675000D01*
X114225000Y-99375000D01*
G37*
G36*
X84700000Y-99050000D02*
G01*
X83300000Y-99050000D01*
X83300000Y-97850000D01*
X84700000Y-97850000D01*
X84700000Y-99050000D01*
G37*
G36*
X86900000Y-99050000D02*
G01*
X85500000Y-99050000D01*
X85500000Y-97850000D01*
X86900000Y-97850000D01*
X86900000Y-99050000D01*
G37*
G36*
X90053701Y-98605709D02*
G01*
X90078033Y-98621967D01*
X90094291Y-98646299D01*
X90100000Y-98675000D01*
X90100000Y-98825000D01*
X90094291Y-98853701D01*
X90078033Y-98878033D01*
X90053701Y-98894291D01*
X90025000Y-98900000D01*
X88625000Y-98900000D01*
X88596299Y-98894291D01*
X88571967Y-98878033D01*
X88555709Y-98853701D01*
X88550000Y-98825000D01*
X88550000Y-98675000D01*
X88555709Y-98646299D01*
X88571967Y-98621967D01*
X88596299Y-98605709D01*
X88625000Y-98600000D01*
X90025000Y-98600000D01*
X90053701Y-98605709D01*
G37*
G36*
X101403701Y-98605709D02*
G01*
X101428033Y-98621967D01*
X101444291Y-98646299D01*
X101450000Y-98675000D01*
X101450000Y-98825000D01*
X101444291Y-98853701D01*
X101428033Y-98878033D01*
X101403701Y-98894291D01*
X101375000Y-98900000D01*
X99975000Y-98900000D01*
X99946299Y-98894291D01*
X99921967Y-98878033D01*
X99905709Y-98853701D01*
X99900000Y-98825000D01*
X99900000Y-98675000D01*
X99905709Y-98646299D01*
X99921967Y-98621967D01*
X99946299Y-98605709D01*
X99975000Y-98600000D01*
X101375000Y-98600000D01*
X101403701Y-98605709D01*
G37*
G36*
X90053701Y-98105709D02*
G01*
X90078033Y-98121967D01*
X90094291Y-98146299D01*
X90100000Y-98175000D01*
X90100000Y-98325000D01*
X90094291Y-98353701D01*
X90078033Y-98378033D01*
X90053701Y-98394291D01*
X90025000Y-98400000D01*
X88625000Y-98400000D01*
X88596299Y-98394291D01*
X88571967Y-98378033D01*
X88555709Y-98353701D01*
X88550000Y-98325000D01*
X88550000Y-98175000D01*
X88555709Y-98146299D01*
X88571967Y-98121967D01*
X88596299Y-98105709D01*
X88625000Y-98100000D01*
X90025000Y-98100000D01*
X90053701Y-98105709D01*
G37*
G36*
X101403701Y-98105709D02*
G01*
X101428033Y-98121967D01*
X101444291Y-98146299D01*
X101450000Y-98175000D01*
X101450000Y-98325000D01*
X101444291Y-98353701D01*
X101428033Y-98378033D01*
X101403701Y-98394291D01*
X101375000Y-98400000D01*
X99975000Y-98400000D01*
X99946299Y-98394291D01*
X99921967Y-98378033D01*
X99905709Y-98353701D01*
X99900000Y-98325000D01*
X99900000Y-98175000D01*
X99905709Y-98146299D01*
X99921967Y-98121967D01*
X99946299Y-98105709D01*
X99975000Y-98100000D01*
X101375000Y-98100000D01*
X101403701Y-98105709D01*
G37*
G36*
X114225000Y-98275000D02*
G01*
X112475000Y-98275000D01*
X112475000Y-97575000D01*
X114225000Y-97575000D01*
X114225000Y-98275000D01*
G37*
G36*
X90053701Y-97605709D02*
G01*
X90078033Y-97621967D01*
X90094291Y-97646299D01*
X90100000Y-97675000D01*
X90100000Y-97825000D01*
X90094291Y-97853701D01*
X90078033Y-97878033D01*
X90053701Y-97894291D01*
X90025000Y-97900000D01*
X88625000Y-97900000D01*
X88596299Y-97894291D01*
X88571967Y-97878033D01*
X88555709Y-97853701D01*
X88550000Y-97825000D01*
X88550000Y-97675000D01*
X88555709Y-97646299D01*
X88571967Y-97621967D01*
X88596299Y-97605709D01*
X88625000Y-97600000D01*
X90025000Y-97600000D01*
X90053701Y-97605709D01*
G37*
G36*
X101403701Y-97605709D02*
G01*
X101428033Y-97621967D01*
X101444291Y-97646299D01*
X101450000Y-97675000D01*
X101450000Y-97825000D01*
X101444291Y-97853701D01*
X101428033Y-97878033D01*
X101403701Y-97894291D01*
X101375000Y-97900000D01*
X99975000Y-97900000D01*
X99946299Y-97894291D01*
X99921967Y-97878033D01*
X99905709Y-97853701D01*
X99900000Y-97825000D01*
X99900000Y-97675000D01*
X99905709Y-97646299D01*
X99921967Y-97621967D01*
X99946299Y-97605709D01*
X99975000Y-97600000D01*
X101375000Y-97600000D01*
X101403701Y-97605709D01*
G37*
G36*
X90053701Y-97105709D02*
G01*
X90078033Y-97121967D01*
X90094291Y-97146299D01*
X90100000Y-97175000D01*
X90100000Y-97325000D01*
X90094291Y-97353701D01*
X90078033Y-97378033D01*
X90053701Y-97394291D01*
X90025000Y-97400000D01*
X88625000Y-97400000D01*
X88596299Y-97394291D01*
X88571967Y-97378033D01*
X88555709Y-97353701D01*
X88550000Y-97325000D01*
X88550000Y-97175000D01*
X88555709Y-97146299D01*
X88571967Y-97121967D01*
X88596299Y-97105709D01*
X88625000Y-97100000D01*
X90025000Y-97100000D01*
X90053701Y-97105709D01*
G37*
G36*
X101403701Y-97105709D02*
G01*
X101428033Y-97121967D01*
X101444291Y-97146299D01*
X101450000Y-97175000D01*
X101450000Y-97325000D01*
X101444291Y-97353701D01*
X101428033Y-97378033D01*
X101403701Y-97394291D01*
X101375000Y-97400000D01*
X99975000Y-97400000D01*
X99946299Y-97394291D01*
X99921967Y-97378033D01*
X99905709Y-97353701D01*
X99900000Y-97325000D01*
X99900000Y-97175000D01*
X99905709Y-97146299D01*
X99921967Y-97121967D01*
X99946299Y-97105709D01*
X99975000Y-97100000D01*
X101375000Y-97100000D01*
X101403701Y-97105709D01*
G37*
G36*
X84700000Y-97350000D02*
G01*
X83300000Y-97350000D01*
X83300000Y-96150000D01*
X84700000Y-96150000D01*
X84700000Y-97350000D01*
G37*
G36*
X86900000Y-97350000D02*
G01*
X85500000Y-97350000D01*
X85500000Y-96150000D01*
X86900000Y-96150000D01*
X86900000Y-97350000D01*
G37*
G36*
X114225000Y-97175000D02*
G01*
X112475000Y-97175000D01*
X112475000Y-96475000D01*
X114225000Y-96475000D01*
X114225000Y-97175000D01*
G37*
G36*
X90053701Y-96605709D02*
G01*
X90078033Y-96621967D01*
X90094291Y-96646299D01*
X90100000Y-96675000D01*
X90100000Y-96825000D01*
X90094291Y-96853701D01*
X90078033Y-96878033D01*
X90053701Y-96894291D01*
X90025000Y-96900000D01*
X88625000Y-96900000D01*
X88596299Y-96894291D01*
X88571967Y-96878033D01*
X88555709Y-96853701D01*
X88550000Y-96825000D01*
X88550000Y-96675000D01*
X88555709Y-96646299D01*
X88571967Y-96621967D01*
X88596299Y-96605709D01*
X88625000Y-96600000D01*
X90025000Y-96600000D01*
X90053701Y-96605709D01*
G37*
G36*
X101403701Y-96605709D02*
G01*
X101428033Y-96621967D01*
X101444291Y-96646299D01*
X101450000Y-96675000D01*
X101450000Y-96825000D01*
X101444291Y-96853701D01*
X101428033Y-96878033D01*
X101403701Y-96894291D01*
X101375000Y-96900000D01*
X99975000Y-96900000D01*
X99946299Y-96894291D01*
X99921967Y-96878033D01*
X99905709Y-96853701D01*
X99900000Y-96825000D01*
X99900000Y-96675000D01*
X99905709Y-96646299D01*
X99921967Y-96621967D01*
X99946299Y-96605709D01*
X99975000Y-96600000D01*
X101375000Y-96600000D01*
X101403701Y-96605709D01*
G37*
G36*
X90053701Y-96105709D02*
G01*
X90078033Y-96121967D01*
X90094291Y-96146299D01*
X90100000Y-96175000D01*
X90100000Y-96325000D01*
X90094291Y-96353701D01*
X90078033Y-96378033D01*
X90053701Y-96394291D01*
X90025000Y-96400000D01*
X88625000Y-96400000D01*
X88596299Y-96394291D01*
X88571967Y-96378033D01*
X88555709Y-96353701D01*
X88550000Y-96325000D01*
X88550000Y-96175000D01*
X88555709Y-96146299D01*
X88571967Y-96121967D01*
X88596299Y-96105709D01*
X88625000Y-96100000D01*
X90025000Y-96100000D01*
X90053701Y-96105709D01*
G37*
G36*
X101403701Y-96105709D02*
G01*
X101428033Y-96121967D01*
X101444291Y-96146299D01*
X101450000Y-96175000D01*
X101450000Y-96325000D01*
X101444291Y-96353701D01*
X101428033Y-96378033D01*
X101403701Y-96394291D01*
X101375000Y-96400000D01*
X99975000Y-96400000D01*
X99946299Y-96394291D01*
X99921967Y-96378033D01*
X99905709Y-96353701D01*
X99900000Y-96325000D01*
X99900000Y-96175000D01*
X99905709Y-96146299D01*
X99921967Y-96121967D01*
X99946299Y-96105709D01*
X99975000Y-96100000D01*
X101375000Y-96100000D01*
X101403701Y-96105709D01*
G37*
G36*
X89423576Y-95110657D02*
G01*
X89468995Y-95141005D01*
X89499343Y-95186424D01*
X89510000Y-95240000D01*
X89510000Y-95520000D01*
X89499343Y-95573576D01*
X89468995Y-95618995D01*
X89423576Y-95649343D01*
X89370000Y-95660000D01*
X89030000Y-95660000D01*
X88976424Y-95649343D01*
X88931005Y-95618995D01*
X88900657Y-95573576D01*
X88890000Y-95520000D01*
X88890000Y-95240000D01*
X88900657Y-95186424D01*
X88931005Y-95141005D01*
X88976424Y-95110657D01*
X89030000Y-95100000D01*
X89370000Y-95100000D01*
X89423576Y-95110657D01*
G37*
G36*
X84813576Y-94900657D02*
G01*
X84858995Y-94931005D01*
X84889343Y-94976424D01*
X84900000Y-95030000D01*
X84900000Y-95370000D01*
X84889343Y-95423576D01*
X84858995Y-95468995D01*
X84813576Y-95499343D01*
X84760000Y-95510000D01*
X84480000Y-95510000D01*
X84426424Y-95499343D01*
X84381005Y-95468995D01*
X84350657Y-95423576D01*
X84340000Y-95370000D01*
X84340000Y-95030000D01*
X84350657Y-94976424D01*
X84381005Y-94931005D01*
X84426424Y-94900657D01*
X84480000Y-94890000D01*
X84760000Y-94890000D01*
X84813576Y-94900657D01*
G37*
G36*
X85773576Y-94900657D02*
G01*
X85818995Y-94931005D01*
X85849343Y-94976424D01*
X85860000Y-95030000D01*
X85860000Y-95370000D01*
X85849343Y-95423576D01*
X85818995Y-95468995D01*
X85773576Y-95499343D01*
X85720000Y-95510000D01*
X85440000Y-95510000D01*
X85386424Y-95499343D01*
X85341005Y-95468995D01*
X85310657Y-95423576D01*
X85300000Y-95370000D01*
X85300000Y-95030000D01*
X85310657Y-94976424D01*
X85341005Y-94931005D01*
X85386424Y-94900657D01*
X85440000Y-94890000D01*
X85720000Y-94890000D01*
X85773576Y-94900657D01*
G37*
G36*
X113975000Y-95125000D02*
G01*
X112475000Y-95125000D01*
X112475000Y-93625000D01*
X113975000Y-93625000D01*
X113975000Y-95125000D01*
G37*
G36*
X91353701Y-93555709D02*
G01*
X91378033Y-93571967D01*
X91394291Y-93596299D01*
X91400000Y-93625000D01*
X91400000Y-95025000D01*
X91394291Y-95053701D01*
X91378033Y-95078033D01*
X91353701Y-95094291D01*
X91325000Y-95100000D01*
X91175000Y-95100000D01*
X91146299Y-95094291D01*
X91121967Y-95078033D01*
X91105709Y-95053701D01*
X91100000Y-95025000D01*
X91100000Y-93625000D01*
X91105709Y-93596299D01*
X91121967Y-93571967D01*
X91146299Y-93555709D01*
X91175000Y-93550000D01*
X91325000Y-93550000D01*
X91353701Y-93555709D01*
G37*
G36*
X91853701Y-93555709D02*
G01*
X91878033Y-93571967D01*
X91894291Y-93596299D01*
X91900000Y-93625000D01*
X91900000Y-95025000D01*
X91894291Y-95053701D01*
X91878033Y-95078033D01*
X91853701Y-95094291D01*
X91825000Y-95100000D01*
X91675000Y-95100000D01*
X91646299Y-95094291D01*
X91621967Y-95078033D01*
X91605709Y-95053701D01*
X91600000Y-95025000D01*
X91600000Y-93625000D01*
X91605709Y-93596299D01*
X91621967Y-93571967D01*
X91646299Y-93555709D01*
X91675000Y-93550000D01*
X91825000Y-93550000D01*
X91853701Y-93555709D01*
G37*
G36*
X92353701Y-93555709D02*
G01*
X92378033Y-93571967D01*
X92394291Y-93596299D01*
X92400000Y-93625000D01*
X92400000Y-95025000D01*
X92394291Y-95053701D01*
X92378033Y-95078033D01*
X92353701Y-95094291D01*
X92325000Y-95100000D01*
X92175000Y-95100000D01*
X92146299Y-95094291D01*
X92121967Y-95078033D01*
X92105709Y-95053701D01*
X92100000Y-95025000D01*
X92100000Y-93625000D01*
X92105709Y-93596299D01*
X92121967Y-93571967D01*
X92146299Y-93555709D01*
X92175000Y-93550000D01*
X92325000Y-93550000D01*
X92353701Y-93555709D01*
G37*
G36*
X92853701Y-93555709D02*
G01*
X92878033Y-93571967D01*
X92894291Y-93596299D01*
X92900000Y-93625000D01*
X92900000Y-95025000D01*
X92894291Y-95053701D01*
X92878033Y-95078033D01*
X92853701Y-95094291D01*
X92825000Y-95100000D01*
X92675000Y-95100000D01*
X92646299Y-95094291D01*
X92621967Y-95078033D01*
X92605709Y-95053701D01*
X92600000Y-95025000D01*
X92600000Y-93625000D01*
X92605709Y-93596299D01*
X92621967Y-93571967D01*
X92646299Y-93555709D01*
X92675000Y-93550000D01*
X92825000Y-93550000D01*
X92853701Y-93555709D01*
G37*
G36*
X93353701Y-93555709D02*
G01*
X93378033Y-93571967D01*
X93394291Y-93596299D01*
X93400000Y-93625000D01*
X93400000Y-95025000D01*
X93394291Y-95053701D01*
X93378033Y-95078033D01*
X93353701Y-95094291D01*
X93325000Y-95100000D01*
X93175000Y-95100000D01*
X93146299Y-95094291D01*
X93121967Y-95078033D01*
X93105709Y-95053701D01*
X93100000Y-95025000D01*
X93100000Y-93625000D01*
X93105709Y-93596299D01*
X93121967Y-93571967D01*
X93146299Y-93555709D01*
X93175000Y-93550000D01*
X93325000Y-93550000D01*
X93353701Y-93555709D01*
G37*
G36*
X93853701Y-93555709D02*
G01*
X93878033Y-93571967D01*
X93894291Y-93596299D01*
X93900000Y-93625000D01*
X93900000Y-95025000D01*
X93894291Y-95053701D01*
X93878033Y-95078033D01*
X93853701Y-95094291D01*
X93825000Y-95100000D01*
X93675000Y-95100000D01*
X93646299Y-95094291D01*
X93621967Y-95078033D01*
X93605709Y-95053701D01*
X93600000Y-95025000D01*
X93600000Y-93625000D01*
X93605709Y-93596299D01*
X93621967Y-93571967D01*
X93646299Y-93555709D01*
X93675000Y-93550000D01*
X93825000Y-93550000D01*
X93853701Y-93555709D01*
G37*
G36*
X94353701Y-93555709D02*
G01*
X94378033Y-93571967D01*
X94394291Y-93596299D01*
X94400000Y-93625000D01*
X94400000Y-95025000D01*
X94394291Y-95053701D01*
X94378033Y-95078033D01*
X94353701Y-95094291D01*
X94325000Y-95100000D01*
X94175000Y-95100000D01*
X94146299Y-95094291D01*
X94121967Y-95078033D01*
X94105709Y-95053701D01*
X94100000Y-95025000D01*
X94100000Y-93625000D01*
X94105709Y-93596299D01*
X94121967Y-93571967D01*
X94146299Y-93555709D01*
X94175000Y-93550000D01*
X94325000Y-93550000D01*
X94353701Y-93555709D01*
G37*
G36*
X94853701Y-93555709D02*
G01*
X94878033Y-93571967D01*
X94894291Y-93596299D01*
X94900000Y-93625000D01*
X94900000Y-95025000D01*
X94894291Y-95053701D01*
X94878033Y-95078033D01*
X94853701Y-95094291D01*
X94825000Y-95100000D01*
X94675000Y-95100000D01*
X94646299Y-95094291D01*
X94621967Y-95078033D01*
X94605709Y-95053701D01*
X94600000Y-95025000D01*
X94600000Y-93625000D01*
X94605709Y-93596299D01*
X94621967Y-93571967D01*
X94646299Y-93555709D01*
X94675000Y-93550000D01*
X94825000Y-93550000D01*
X94853701Y-93555709D01*
G37*
G36*
X95353701Y-93555709D02*
G01*
X95378033Y-93571967D01*
X95394291Y-93596299D01*
X95400000Y-93625000D01*
X95400000Y-95025000D01*
X95394291Y-95053701D01*
X95378033Y-95078033D01*
X95353701Y-95094291D01*
X95325000Y-95100000D01*
X95175000Y-95100000D01*
X95146299Y-95094291D01*
X95121967Y-95078033D01*
X95105709Y-95053701D01*
X95100000Y-95025000D01*
X95100000Y-93625000D01*
X95105709Y-93596299D01*
X95121967Y-93571967D01*
X95146299Y-93555709D01*
X95175000Y-93550000D01*
X95325000Y-93550000D01*
X95353701Y-93555709D01*
G37*
G36*
X95853701Y-93555709D02*
G01*
X95878033Y-93571967D01*
X95894291Y-93596299D01*
X95900000Y-93625000D01*
X95900000Y-95025000D01*
X95894291Y-95053701D01*
X95878033Y-95078033D01*
X95853701Y-95094291D01*
X95825000Y-95100000D01*
X95675000Y-95100000D01*
X95646299Y-95094291D01*
X95621967Y-95078033D01*
X95605709Y-95053701D01*
X95600000Y-95025000D01*
X95600000Y-93625000D01*
X95605709Y-93596299D01*
X95621967Y-93571967D01*
X95646299Y-93555709D01*
X95675000Y-93550000D01*
X95825000Y-93550000D01*
X95853701Y-93555709D01*
G37*
G36*
X96353701Y-93555709D02*
G01*
X96378033Y-93571967D01*
X96394291Y-93596299D01*
X96400000Y-93625000D01*
X96400000Y-95025000D01*
X96394291Y-95053701D01*
X96378033Y-95078033D01*
X96353701Y-95094291D01*
X96325000Y-95100000D01*
X96175000Y-95100000D01*
X96146299Y-95094291D01*
X96121967Y-95078033D01*
X96105709Y-95053701D01*
X96100000Y-95025000D01*
X96100000Y-93625000D01*
X96105709Y-93596299D01*
X96121967Y-93571967D01*
X96146299Y-93555709D01*
X96175000Y-93550000D01*
X96325000Y-93550000D01*
X96353701Y-93555709D01*
G37*
G36*
X96853701Y-93555709D02*
G01*
X96878033Y-93571967D01*
X96894291Y-93596299D01*
X96900000Y-93625000D01*
X96900000Y-95025000D01*
X96894291Y-95053701D01*
X96878033Y-95078033D01*
X96853701Y-95094291D01*
X96825000Y-95100000D01*
X96675000Y-95100000D01*
X96646299Y-95094291D01*
X96621967Y-95078033D01*
X96605709Y-95053701D01*
X96600000Y-95025000D01*
X96600000Y-93625000D01*
X96605709Y-93596299D01*
X96621967Y-93571967D01*
X96646299Y-93555709D01*
X96675000Y-93550000D01*
X96825000Y-93550000D01*
X96853701Y-93555709D01*
G37*
G36*
X97353701Y-93555709D02*
G01*
X97378033Y-93571967D01*
X97394291Y-93596299D01*
X97400000Y-93625000D01*
X97400000Y-95025000D01*
X97394291Y-95053701D01*
X97378033Y-95078033D01*
X97353701Y-95094291D01*
X97325000Y-95100000D01*
X97175000Y-95100000D01*
X97146299Y-95094291D01*
X97121967Y-95078033D01*
X97105709Y-95053701D01*
X97100000Y-95025000D01*
X97100000Y-93625000D01*
X97105709Y-93596299D01*
X97121967Y-93571967D01*
X97146299Y-93555709D01*
X97175000Y-93550000D01*
X97325000Y-93550000D01*
X97353701Y-93555709D01*
G37*
G36*
X97853701Y-93555709D02*
G01*
X97878033Y-93571967D01*
X97894291Y-93596299D01*
X97900000Y-93625000D01*
X97900000Y-95025000D01*
X97894291Y-95053701D01*
X97878033Y-95078033D01*
X97853701Y-95094291D01*
X97825000Y-95100000D01*
X97675000Y-95100000D01*
X97646299Y-95094291D01*
X97621967Y-95078033D01*
X97605709Y-95053701D01*
X97600000Y-95025000D01*
X97600000Y-93625000D01*
X97605709Y-93596299D01*
X97621967Y-93571967D01*
X97646299Y-93555709D01*
X97675000Y-93550000D01*
X97825000Y-93550000D01*
X97853701Y-93555709D01*
G37*
G36*
X98353701Y-93555709D02*
G01*
X98378033Y-93571967D01*
X98394291Y-93596299D01*
X98400000Y-93625000D01*
X98400000Y-95025000D01*
X98394291Y-95053701D01*
X98378033Y-95078033D01*
X98353701Y-95094291D01*
X98325000Y-95100000D01*
X98175000Y-95100000D01*
X98146299Y-95094291D01*
X98121967Y-95078033D01*
X98105709Y-95053701D01*
X98100000Y-95025000D01*
X98100000Y-93625000D01*
X98105709Y-93596299D01*
X98121967Y-93571967D01*
X98146299Y-93555709D01*
X98175000Y-93550000D01*
X98325000Y-93550000D01*
X98353701Y-93555709D01*
G37*
G36*
X98853701Y-93555709D02*
G01*
X98878033Y-93571967D01*
X98894291Y-93596299D01*
X98900000Y-93625000D01*
X98900000Y-95025000D01*
X98894291Y-95053701D01*
X98878033Y-95078033D01*
X98853701Y-95094291D01*
X98825000Y-95100000D01*
X98675000Y-95100000D01*
X98646299Y-95094291D01*
X98621967Y-95078033D01*
X98605709Y-95053701D01*
X98600000Y-95025000D01*
X98600000Y-93625000D01*
X98605709Y-93596299D01*
X98621967Y-93571967D01*
X98646299Y-93555709D01*
X98675000Y-93550000D01*
X98825000Y-93550000D01*
X98853701Y-93555709D01*
G37*
G36*
X103325000Y-94925000D02*
G01*
X101775000Y-94925000D01*
X101775000Y-93925000D01*
X103325000Y-93925000D01*
X103325000Y-94925000D01*
G37*
G36*
X89423576Y-94150657D02*
G01*
X89468995Y-94181005D01*
X89499343Y-94226424D01*
X89510000Y-94280000D01*
X89510000Y-94560000D01*
X89499343Y-94613576D01*
X89468995Y-94658995D01*
X89423576Y-94689343D01*
X89370000Y-94700000D01*
X89030000Y-94700000D01*
X88976424Y-94689343D01*
X88931005Y-94658995D01*
X88900657Y-94613576D01*
X88890000Y-94560000D01*
X88890000Y-94280000D01*
X88900657Y-94226424D01*
X88931005Y-94181005D01*
X88976424Y-94150657D01*
X89030000Y-94140000D01*
X89370000Y-94140000D01*
X89423576Y-94150657D01*
G37*
G36*
X90523576Y-94010657D02*
G01*
X90568995Y-94041005D01*
X90599343Y-94086424D01*
X90610000Y-94140000D01*
X90610000Y-94420000D01*
X90599343Y-94473576D01*
X90568995Y-94518995D01*
X90523576Y-94549343D01*
X90470000Y-94560000D01*
X90130000Y-94560000D01*
X90076424Y-94549343D01*
X90031005Y-94518995D01*
X90000657Y-94473576D01*
X89990000Y-94420000D01*
X89990000Y-94140000D01*
X90000657Y-94086424D01*
X90031005Y-94041005D01*
X90076424Y-94010657D01*
X90130000Y-94000000D01*
X90470000Y-94000000D01*
X90523576Y-94010657D01*
G37*
G36*
X105675000Y-94425000D02*
G01*
X104275000Y-94425000D01*
X104275000Y-93625000D01*
X105675000Y-93625000D01*
X105675000Y-94425000D01*
G37*
G36*
X87836104Y-92742127D02*
G01*
X87909099Y-92790901D01*
X87957873Y-92863896D01*
X87975000Y-92950000D01*
X87975000Y-93450000D01*
X87957873Y-93536104D01*
X87909099Y-93609099D01*
X87836104Y-93657873D01*
X87750000Y-93675000D01*
X87300000Y-93675000D01*
X87213896Y-93657873D01*
X87140901Y-93609099D01*
X87092127Y-93536104D01*
X87075000Y-93450000D01*
X87075000Y-92950000D01*
X87092127Y-92863896D01*
X87140901Y-92790901D01*
X87213896Y-92742127D01*
X87300000Y-92725000D01*
X87750000Y-92725000D01*
X87836104Y-92742127D01*
G37*
G36*
X89386104Y-92742127D02*
G01*
X89459099Y-92790901D01*
X89507873Y-92863896D01*
X89525000Y-92950000D01*
X89525000Y-93450000D01*
X89507873Y-93536104D01*
X89459099Y-93609099D01*
X89386104Y-93657873D01*
X89300000Y-93675000D01*
X88850000Y-93675000D01*
X88763896Y-93657873D01*
X88690901Y-93609099D01*
X88642127Y-93536104D01*
X88625000Y-93450000D01*
X88625000Y-92950000D01*
X88642127Y-92863896D01*
X88690901Y-92790901D01*
X88763896Y-92742127D01*
X88850000Y-92725000D01*
X89300000Y-92725000D01*
X89386104Y-92742127D01*
G37*
G36*
X90523576Y-93050657D02*
G01*
X90568995Y-93081005D01*
X90599343Y-93126424D01*
X90610000Y-93180000D01*
X90610000Y-93460000D01*
X90599343Y-93513576D01*
X90568995Y-93558995D01*
X90523576Y-93589343D01*
X90470000Y-93600000D01*
X90130000Y-93600000D01*
X90076424Y-93589343D01*
X90031005Y-93558995D01*
X90000657Y-93513576D01*
X89990000Y-93460000D01*
X89990000Y-93180000D01*
X90000657Y-93126424D01*
X90031005Y-93081005D01*
X90076424Y-93050657D01*
X90130000Y-93040000D01*
X90470000Y-93040000D01*
X90523576Y-93050657D01*
G37*
G36*
X93776662Y-92290276D02*
G01*
X93820459Y-92319541D01*
X93849724Y-92363338D01*
X93860000Y-92415000D01*
X93860000Y-92785000D01*
X93849724Y-92836662D01*
X93820459Y-92880459D01*
X93776662Y-92909724D01*
X93725000Y-92920000D01*
X93455000Y-92920000D01*
X93403338Y-92909724D01*
X93359541Y-92880459D01*
X93330276Y-92836662D01*
X93320000Y-92785000D01*
X93320000Y-92415000D01*
X93330276Y-92363338D01*
X93359541Y-92319541D01*
X93403338Y-92290276D01*
X93455000Y-92280000D01*
X93725000Y-92280000D01*
X93776662Y-92290276D01*
G37*
G36*
X94796662Y-92290276D02*
G01*
X94840459Y-92319541D01*
X94869724Y-92363338D01*
X94880000Y-92415000D01*
X94880000Y-92785000D01*
X94869724Y-92836662D01*
X94840459Y-92880459D01*
X94796662Y-92909724D01*
X94745000Y-92920000D01*
X94475000Y-92920000D01*
X94423338Y-92909724D01*
X94379541Y-92880459D01*
X94350276Y-92836662D01*
X94340000Y-92785000D01*
X94340000Y-92415000D01*
X94350276Y-92363338D01*
X94379541Y-92319541D01*
X94423338Y-92290276D01*
X94475000Y-92280000D01*
X94745000Y-92280000D01*
X94796662Y-92290276D01*
G37*
G36*
X105076662Y-92290276D02*
G01*
X105120459Y-92319541D01*
X105149724Y-92363338D01*
X105160000Y-92415000D01*
X105160000Y-92785000D01*
X105149724Y-92836662D01*
X105120459Y-92880459D01*
X105076662Y-92909724D01*
X105025000Y-92920000D01*
X104755000Y-92920000D01*
X104703338Y-92909724D01*
X104659541Y-92880459D01*
X104630276Y-92836662D01*
X104620000Y-92785000D01*
X104620000Y-92415000D01*
X104630276Y-92363338D01*
X104659541Y-92319541D01*
X104703338Y-92290276D01*
X104755000Y-92280000D01*
X105025000Y-92280000D01*
X105076662Y-92290276D01*
G37*
G36*
X106096662Y-92290276D02*
G01*
X106140459Y-92319541D01*
X106169724Y-92363338D01*
X106180000Y-92415000D01*
X106180000Y-92785000D01*
X106169724Y-92836662D01*
X106140459Y-92880459D01*
X106096662Y-92909724D01*
X106045000Y-92920000D01*
X105775000Y-92920000D01*
X105723338Y-92909724D01*
X105679541Y-92880459D01*
X105650276Y-92836662D01*
X105640000Y-92785000D01*
X105640000Y-92415000D01*
X105650276Y-92363338D01*
X105679541Y-92319541D01*
X105723338Y-92290276D01*
X105775000Y-92280000D01*
X106045000Y-92280000D01*
X106096662Y-92290276D01*
G37*
G36*
X99257403Y-90886418D02*
G01*
X99306066Y-90918934D01*
X99338582Y-90967597D01*
X99350000Y-91025000D01*
X99350000Y-92050000D01*
X99338582Y-92107403D01*
X99306066Y-92156066D01*
X99257403Y-92188582D01*
X99200000Y-92200000D01*
X98900000Y-92200000D01*
X98842597Y-92188582D01*
X98793934Y-92156066D01*
X98761418Y-92107403D01*
X98750000Y-92050000D01*
X98750000Y-91025000D01*
X98761418Y-90967597D01*
X98793934Y-90918934D01*
X98842597Y-90886418D01*
X98900000Y-90875000D01*
X99200000Y-90875000D01*
X99257403Y-90886418D01*
G37*
G36*
X100207403Y-90886418D02*
G01*
X100256066Y-90918934D01*
X100288582Y-90967597D01*
X100300000Y-91025000D01*
X100300000Y-92050000D01*
X100288582Y-92107403D01*
X100256066Y-92156066D01*
X100207403Y-92188582D01*
X100150000Y-92200000D01*
X99850000Y-92200000D01*
X99792597Y-92188582D01*
X99743934Y-92156066D01*
X99711418Y-92107403D01*
X99700000Y-92050000D01*
X99700000Y-91025000D01*
X99711418Y-90967597D01*
X99743934Y-90918934D01*
X99792597Y-90886418D01*
X99850000Y-90875000D01*
X100150000Y-90875000D01*
X100207403Y-90886418D01*
G37*
G36*
X101157403Y-90886418D02*
G01*
X101206066Y-90918934D01*
X101238582Y-90967597D01*
X101250000Y-91025000D01*
X101250000Y-92050000D01*
X101238582Y-92107403D01*
X101206066Y-92156066D01*
X101157403Y-92188582D01*
X101100000Y-92200000D01*
X100800000Y-92200000D01*
X100742597Y-92188582D01*
X100693934Y-92156066D01*
X100661418Y-92107403D01*
X100650000Y-92050000D01*
X100650000Y-91025000D01*
X100661418Y-90967597D01*
X100693934Y-90918934D01*
X100742597Y-90886418D01*
X100800000Y-90875000D01*
X101100000Y-90875000D01*
X101157403Y-90886418D01*
G37*
G36*
X106314962Y-90841651D02*
G01*
X106385930Y-90889070D01*
X106433349Y-90960038D01*
X106450000Y-91043750D01*
X106450000Y-91556250D01*
X106433349Y-91639962D01*
X106385930Y-91710930D01*
X106314962Y-91758349D01*
X106231250Y-91775000D01*
X105793750Y-91775000D01*
X105710038Y-91758349D01*
X105639070Y-91710930D01*
X105591651Y-91639962D01*
X105575000Y-91556250D01*
X105575000Y-91043750D01*
X105591651Y-90960038D01*
X105639070Y-90889070D01*
X105710038Y-90841651D01*
X105793750Y-90825000D01*
X106231250Y-90825000D01*
X106314962Y-90841651D01*
G37*
G36*
X107889962Y-90841651D02*
G01*
X107960930Y-90889070D01*
X108008349Y-90960038D01*
X108025000Y-91043750D01*
X108025000Y-91556250D01*
X108008349Y-91639962D01*
X107960930Y-91710930D01*
X107889962Y-91758349D01*
X107806250Y-91775000D01*
X107368750Y-91775000D01*
X107285038Y-91758349D01*
X107214070Y-91710930D01*
X107166651Y-91639962D01*
X107150000Y-91556250D01*
X107150000Y-91043750D01*
X107166651Y-90960038D01*
X107214070Y-90889070D01*
X107285038Y-90841651D01*
X107368750Y-90825000D01*
X107806250Y-90825000D01*
X107889962Y-90841651D01*
G37*
G36*
X91876537Y-89315224D02*
G01*
X91941421Y-89358579D01*
X91984776Y-89423463D01*
X92000000Y-89500000D01*
X92000000Y-91100000D01*
X91984776Y-91176537D01*
X91941421Y-91241421D01*
X91876537Y-91284776D01*
X91800000Y-91300000D01*
X91400000Y-91300000D01*
X91323463Y-91284776D01*
X91258579Y-91241421D01*
X91215224Y-91176537D01*
X91200000Y-91100000D01*
X91200000Y-89500000D01*
X91215224Y-89423463D01*
X91258579Y-89358579D01*
X91323463Y-89315224D01*
X91400000Y-89300000D01*
X91800000Y-89300000D01*
X91876537Y-89315224D01*
G37*
G36*
X96076537Y-89315224D02*
G01*
X96141421Y-89358579D01*
X96184776Y-89423463D01*
X96200000Y-89500000D01*
X96200000Y-91100000D01*
X96184776Y-91176537D01*
X96141421Y-91241421D01*
X96076537Y-91284776D01*
X96000000Y-91300000D01*
X95600000Y-91300000D01*
X95523463Y-91284776D01*
X95458579Y-91241421D01*
X95415224Y-91176537D01*
X95400000Y-91100000D01*
X95400000Y-89500000D01*
X95415224Y-89423463D01*
X95458579Y-89358579D01*
X95523463Y-89315224D01*
X95600000Y-89300000D01*
X96000000Y-89300000D01*
X96076537Y-89315224D01*
G37*
G36*
X106314962Y-89341651D02*
G01*
X106385930Y-89389070D01*
X106433349Y-89460038D01*
X106450000Y-89543750D01*
X106450000Y-90056250D01*
X106433349Y-90139962D01*
X106385930Y-90210930D01*
X106314962Y-90258349D01*
X106231250Y-90275000D01*
X105793750Y-90275000D01*
X105710038Y-90258349D01*
X105639070Y-90210930D01*
X105591651Y-90139962D01*
X105575000Y-90056250D01*
X105575000Y-89543750D01*
X105591651Y-89460038D01*
X105639070Y-89389070D01*
X105710038Y-89341651D01*
X105793750Y-89325000D01*
X106231250Y-89325000D01*
X106314962Y-89341651D01*
G37*
G36*
X107889962Y-89341651D02*
G01*
X107960930Y-89389070D01*
X108008349Y-89460038D01*
X108025000Y-89543750D01*
X108025000Y-90056250D01*
X108008349Y-90139962D01*
X107960930Y-90210930D01*
X107889962Y-90258349D01*
X107806250Y-90275000D01*
X107368750Y-90275000D01*
X107285038Y-90258349D01*
X107214070Y-90210930D01*
X107166651Y-90139962D01*
X107150000Y-90056250D01*
X107150000Y-89543750D01*
X107166651Y-89460038D01*
X107214070Y-89389070D01*
X107285038Y-89341651D01*
X107368750Y-89325000D01*
X107806250Y-89325000D01*
X107889962Y-89341651D01*
G37*
G36*
X102413576Y-89500657D02*
G01*
X102458995Y-89531005D01*
X102489343Y-89576424D01*
X102500000Y-89630000D01*
X102500000Y-89970000D01*
X102489343Y-90023576D01*
X102458995Y-90068995D01*
X102413576Y-90099343D01*
X102360000Y-90110000D01*
X102080000Y-90110000D01*
X102026424Y-90099343D01*
X101981005Y-90068995D01*
X101950657Y-90023576D01*
X101940000Y-89970000D01*
X101940000Y-89630000D01*
X101950657Y-89576424D01*
X101981005Y-89531005D01*
X102026424Y-89500657D01*
X102080000Y-89490000D01*
X102360000Y-89490000D01*
X102413576Y-89500657D01*
G37*
G36*
X103373576Y-89500657D02*
G01*
X103418995Y-89531005D01*
X103449343Y-89576424D01*
X103460000Y-89630000D01*
X103460000Y-89970000D01*
X103449343Y-90023576D01*
X103418995Y-90068995D01*
X103373576Y-90099343D01*
X103320000Y-90110000D01*
X103040000Y-90110000D01*
X102986424Y-90099343D01*
X102941005Y-90068995D01*
X102910657Y-90023576D01*
X102900000Y-89970000D01*
X102900000Y-89630000D01*
X102910657Y-89576424D01*
X102941005Y-89531005D01*
X102986424Y-89500657D01*
X103040000Y-89490000D01*
X103320000Y-89490000D01*
X103373576Y-89500657D01*
G37*
G36*
X99257403Y-88611418D02*
G01*
X99306066Y-88643934D01*
X99338582Y-88692597D01*
X99350000Y-88750000D01*
X99350000Y-89775000D01*
X99338582Y-89832403D01*
X99306066Y-89881066D01*
X99257403Y-89913582D01*
X99200000Y-89925000D01*
X98900000Y-89925000D01*
X98842597Y-89913582D01*
X98793934Y-89881066D01*
X98761418Y-89832403D01*
X98750000Y-89775000D01*
X98750000Y-88750000D01*
X98761418Y-88692597D01*
X98793934Y-88643934D01*
X98842597Y-88611418D01*
X98900000Y-88600000D01*
X99200000Y-88600000D01*
X99257403Y-88611418D01*
G37*
G36*
X100207403Y-88611418D02*
G01*
X100256066Y-88643934D01*
X100288582Y-88692597D01*
X100300000Y-88750000D01*
X100300000Y-89775000D01*
X100288582Y-89832403D01*
X100256066Y-89881066D01*
X100207403Y-89913582D01*
X100150000Y-89925000D01*
X99850000Y-89925000D01*
X99792597Y-89913582D01*
X99743934Y-89881066D01*
X99711418Y-89832403D01*
X99700000Y-89775000D01*
X99700000Y-88750000D01*
X99711418Y-88692597D01*
X99743934Y-88643934D01*
X99792597Y-88611418D01*
X99850000Y-88600000D01*
X100150000Y-88600000D01*
X100207403Y-88611418D01*
G37*
G36*
X101157403Y-88611418D02*
G01*
X101206066Y-88643934D01*
X101238582Y-88692597D01*
X101250000Y-88750000D01*
X101250000Y-89775000D01*
X101238582Y-89832403D01*
X101206066Y-89881066D01*
X101157403Y-89913582D01*
X101100000Y-89925000D01*
X100800000Y-89925000D01*
X100742597Y-89913582D01*
X100693934Y-89881066D01*
X100661418Y-89832403D01*
X100650000Y-89775000D01*
X100650000Y-88750000D01*
X100661418Y-88692597D01*
X100693934Y-88643934D01*
X100742597Y-88611418D01*
X100800000Y-88600000D01*
X101100000Y-88600000D01*
X101157403Y-88611418D01*
G37*
G36*
X102418946Y-88491228D02*
G01*
X102466798Y-88523202D01*
X102498772Y-88571054D01*
X102510000Y-88627500D01*
X102510000Y-88972500D01*
X102498772Y-89028946D01*
X102466798Y-89076798D01*
X102418946Y-89108772D01*
X102362500Y-89120000D01*
X102067500Y-89120000D01*
X102011054Y-89108772D01*
X101963202Y-89076798D01*
X101931228Y-89028946D01*
X101920000Y-88972500D01*
X101920000Y-88627500D01*
X101931228Y-88571054D01*
X101963202Y-88523202D01*
X102011054Y-88491228D01*
X102067500Y-88480000D01*
X102362500Y-88480000D01*
X102418946Y-88491228D01*
G37*
G36*
X103388946Y-88491228D02*
G01*
X103436798Y-88523202D01*
X103468772Y-88571054D01*
X103480000Y-88627500D01*
X103480000Y-88972500D01*
X103468772Y-89028946D01*
X103436798Y-89076798D01*
X103388946Y-89108772D01*
X103332500Y-89120000D01*
X103037500Y-89120000D01*
X102981054Y-89108772D01*
X102933202Y-89076798D01*
X102901228Y-89028946D01*
X102890000Y-88972500D01*
X102890000Y-88627500D01*
X102901228Y-88571054D01*
X102933202Y-88523202D01*
X102981054Y-88491228D01*
X103037500Y-88480000D01*
X103332500Y-88480000D01*
X103388946Y-88491228D01*
G37*
G36*
X106314962Y-87841651D02*
G01*
X106385930Y-87889070D01*
X106433349Y-87960038D01*
X106450000Y-88043750D01*
X106450000Y-88556250D01*
X106433349Y-88639962D01*
X106385930Y-88710930D01*
X106314962Y-88758349D01*
X106231250Y-88775000D01*
X105793750Y-88775000D01*
X105710038Y-88758349D01*
X105639070Y-88710930D01*
X105591651Y-88639962D01*
X105575000Y-88556250D01*
X105575000Y-88043750D01*
X105591651Y-87960038D01*
X105639070Y-87889070D01*
X105710038Y-87841651D01*
X105793750Y-87825000D01*
X106231250Y-87825000D01*
X106314962Y-87841651D01*
G37*
G36*
X107889962Y-87841651D02*
G01*
X107960930Y-87889070D01*
X108008349Y-87960038D01*
X108025000Y-88043750D01*
X108025000Y-88556250D01*
X108008349Y-88639962D01*
X107960930Y-88710930D01*
X107889962Y-88758349D01*
X107806250Y-88775000D01*
X107368750Y-88775000D01*
X107285038Y-88758349D01*
X107214070Y-88710930D01*
X107166651Y-88639962D01*
X107150000Y-88556250D01*
X107150000Y-88043750D01*
X107166651Y-87960038D01*
X107214070Y-87889070D01*
X107285038Y-87841651D01*
X107368750Y-87825000D01*
X107806250Y-87825000D01*
X107889962Y-87841651D01*
G37*
G36*
X93276662Y-87690276D02*
G01*
X93320459Y-87719541D01*
X93349724Y-87763338D01*
X93360000Y-87815000D01*
X93360000Y-88185000D01*
X93349724Y-88236662D01*
X93320459Y-88280459D01*
X93276662Y-88309724D01*
X93225000Y-88320000D01*
X92955000Y-88320000D01*
X92903338Y-88309724D01*
X92859541Y-88280459D01*
X92830276Y-88236662D01*
X92820000Y-88185000D01*
X92820000Y-87815000D01*
X92830276Y-87763338D01*
X92859541Y-87719541D01*
X92903338Y-87690276D01*
X92955000Y-87680000D01*
X93225000Y-87680000D01*
X93276662Y-87690276D01*
G37*
G36*
X94296662Y-87690276D02*
G01*
X94340459Y-87719541D01*
X94369724Y-87763338D01*
X94380000Y-87815000D01*
X94380000Y-88185000D01*
X94369724Y-88236662D01*
X94340459Y-88280459D01*
X94296662Y-88309724D01*
X94245000Y-88320000D01*
X93975000Y-88320000D01*
X93923338Y-88309724D01*
X93879541Y-88280459D01*
X93850276Y-88236662D01*
X93840000Y-88185000D01*
X93840000Y-87815000D01*
X93850276Y-87763338D01*
X93879541Y-87719541D01*
X93923338Y-87690276D01*
X93975000Y-87680000D01*
X94245000Y-87680000D01*
X94296662Y-87690276D01*
G37*
G36*
X97805493Y-86192239D02*
G01*
X97944242Y-86265060D01*
X98061532Y-86368970D01*
X98150546Y-86497930D01*
X98206112Y-86644445D01*
X98225000Y-86800000D01*
X98206112Y-86955555D01*
X98150546Y-87102070D01*
X98061532Y-87231030D01*
X97944242Y-87334940D01*
X97805493Y-87407761D01*
X97653349Y-87445261D01*
X97496651Y-87445261D01*
X97344507Y-87407761D01*
X97205758Y-87334940D01*
X97088468Y-87231030D01*
X96999454Y-87102070D01*
X96943888Y-86955555D01*
X96925000Y-86800000D01*
X96943888Y-86644445D01*
X96999454Y-86497930D01*
X97088468Y-86368970D01*
X97205758Y-86265060D01*
X97344507Y-86192239D01*
X97496651Y-86154739D01*
X97653349Y-86154739D01*
X97805493Y-86192239D01*
G37*
G36*
X102655493Y-86192239D02*
G01*
X102794242Y-86265060D01*
X102911532Y-86368970D01*
X103000546Y-86497930D01*
X103056112Y-86644445D01*
X103075000Y-86800000D01*
X103056112Y-86955555D01*
X103000546Y-87102070D01*
X102911532Y-87231030D01*
X102794242Y-87334940D01*
X102655493Y-87407761D01*
X102503349Y-87445261D01*
X102346651Y-87445261D01*
X102194507Y-87407761D01*
X102055758Y-87334940D01*
X101938468Y-87231030D01*
X101849454Y-87102070D01*
X101793888Y-86955555D01*
X101775000Y-86800000D01*
X101793888Y-86644445D01*
X101849454Y-86497930D01*
X101938468Y-86368970D01*
X102055758Y-86265060D01*
X102194507Y-86192239D01*
X102346651Y-86154739D01*
X102503349Y-86154739D01*
X102655493Y-86192239D01*
G37*
G36*
X98900000Y-87425000D02*
G01*
X98500000Y-87425000D01*
X98500000Y-86175000D01*
X98900000Y-86175000D01*
X98900000Y-87425000D01*
G37*
G36*
X99550000Y-87425000D02*
G01*
X99150000Y-87425000D01*
X99150000Y-86175000D01*
X99550000Y-86175000D01*
X99550000Y-87425000D01*
G37*
G36*
X100200000Y-87425000D02*
G01*
X99800000Y-87425000D01*
X99800000Y-86175000D01*
X100200000Y-86175000D01*
X100200000Y-87425000D01*
G37*
G36*
X100850000Y-87425000D02*
G01*
X100450000Y-87425000D01*
X100450000Y-86175000D01*
X100850000Y-86175000D01*
X100850000Y-87425000D01*
G37*
G36*
X101500000Y-87425000D02*
G01*
X101100000Y-87425000D01*
X101100000Y-86175000D01*
X101500000Y-86175000D01*
X101500000Y-87425000D01*
G37*
G36*
X106314962Y-86341651D02*
G01*
X106385930Y-86389070D01*
X106433349Y-86460038D01*
X106450000Y-86543750D01*
X106450000Y-87056250D01*
X106433349Y-87139962D01*
X106385930Y-87210930D01*
X106314962Y-87258349D01*
X106231250Y-87275000D01*
X105793750Y-87275000D01*
X105710038Y-87258349D01*
X105639070Y-87210930D01*
X105591651Y-87139962D01*
X105575000Y-87056250D01*
X105575000Y-86543750D01*
X105591651Y-86460038D01*
X105639070Y-86389070D01*
X105710038Y-86341651D01*
X105793750Y-86325000D01*
X106231250Y-86325000D01*
X106314962Y-86341651D01*
G37*
G36*
X107889962Y-86341651D02*
G01*
X107960930Y-86389070D01*
X108008349Y-86460038D01*
X108025000Y-86543750D01*
X108025000Y-87056250D01*
X108008349Y-87139962D01*
X107960930Y-87210930D01*
X107889962Y-87258349D01*
X107806250Y-87275000D01*
X107368750Y-87275000D01*
X107285038Y-87258349D01*
X107214070Y-87210930D01*
X107166651Y-87139962D01*
X107150000Y-87056250D01*
X107150000Y-86543750D01*
X107166651Y-86460038D01*
X107214070Y-86389070D01*
X107285038Y-86341651D01*
X107368750Y-86325000D01*
X107806250Y-86325000D01*
X107889962Y-86341651D01*
G37*
G36*
X92653536Y-85446464D02*
G01*
X92655000Y-85450000D01*
X92655000Y-86950000D01*
X92653536Y-86953536D01*
X92650000Y-86955000D01*
X92642044Y-86955000D01*
X92157956Y-86955000D01*
X92150000Y-86955000D01*
X92146464Y-86953536D01*
X92145260Y-86950628D01*
X92141654Y-86949911D01*
X92078843Y-86949911D01*
X92077434Y-86949708D01*
X91940883Y-86909613D01*
X91939589Y-86909022D01*
X91937183Y-86907476D01*
X91937179Y-86907474D01*
X91822275Y-86833629D01*
X91822272Y-86833627D01*
X91819867Y-86832081D01*
X91818791Y-86831149D01*
X91816919Y-86828989D01*
X91816917Y-86828987D01*
X91727468Y-86725757D01*
X91727467Y-86725755D01*
X91725594Y-86723594D01*
X91724825Y-86722397D01*
X91723637Y-86719797D01*
X91723633Y-86719790D01*
X91666894Y-86595548D01*
X91666891Y-86595537D01*
X91665706Y-86592943D01*
X91665305Y-86591578D01*
X91655687Y-86524687D01*
X91645253Y-86452120D01*
X91645252Y-86452113D01*
X91645051Y-86450712D01*
X91645000Y-86450000D01*
X91645000Y-85950000D01*
X91645051Y-85949288D01*
X91645252Y-85947887D01*
X91645253Y-85947879D01*
X91664898Y-85811251D01*
X91664898Y-85811249D01*
X91665305Y-85808422D01*
X91665706Y-85807057D01*
X91666890Y-85804463D01*
X91666894Y-85804451D01*
X91723633Y-85680209D01*
X91723639Y-85680198D01*
X91724825Y-85677603D01*
X91725594Y-85676406D01*
X91727464Y-85674246D01*
X91727468Y-85674242D01*
X91816917Y-85571012D01*
X91816922Y-85571006D01*
X91818791Y-85568851D01*
X91819867Y-85567919D01*
X91822268Y-85566375D01*
X91822275Y-85566370D01*
X91937179Y-85492525D01*
X91937188Y-85492520D01*
X91939589Y-85490978D01*
X91940883Y-85490387D01*
X91943622Y-85489582D01*
X91943626Y-85489581D01*
X92074689Y-85451097D01*
X92074695Y-85451096D01*
X92077434Y-85450292D01*
X92078843Y-85450089D01*
X92141654Y-85450089D01*
X92145260Y-85449371D01*
X92146464Y-85446464D01*
X92150000Y-85445000D01*
X92650000Y-85445000D01*
X92653536Y-85446464D01*
G37*
G36*
X93453536Y-85446464D02*
G01*
X93454739Y-85449371D01*
X93458346Y-85450089D01*
X93518294Y-85450089D01*
X93521157Y-85450089D01*
X93522566Y-85450292D01*
X93525305Y-85451096D01*
X93525310Y-85451097D01*
X93656373Y-85489581D01*
X93656374Y-85489581D01*
X93659117Y-85490387D01*
X93660411Y-85490978D01*
X93662813Y-85492522D01*
X93662820Y-85492525D01*
X93777724Y-85566370D01*
X93777727Y-85566373D01*
X93780133Y-85567919D01*
X93781209Y-85568851D01*
X93874406Y-85676406D01*
X93875175Y-85677603D01*
X93876362Y-85680204D01*
X93876366Y-85680209D01*
X93933105Y-85804451D01*
X93933106Y-85804457D01*
X93934294Y-85807057D01*
X93934695Y-85808422D01*
X93954949Y-85949288D01*
X93955000Y-85950000D01*
X93955000Y-86450000D01*
X93954949Y-86450712D01*
X93934695Y-86591578D01*
X93934294Y-86592943D01*
X93933106Y-86595544D01*
X93933105Y-86595548D01*
X93885303Y-86700220D01*
X93875175Y-86722397D01*
X93874406Y-86723594D01*
X93781209Y-86831149D01*
X93780133Y-86832081D01*
X93660411Y-86909022D01*
X93659117Y-86909613D01*
X93522566Y-86949708D01*
X93521157Y-86949911D01*
X93518294Y-86949911D01*
X93458346Y-86949911D01*
X93454739Y-86950628D01*
X93453536Y-86953536D01*
X93450000Y-86955000D01*
X93442044Y-86955000D01*
X92957956Y-86955000D01*
X92950000Y-86955000D01*
X92946464Y-86953536D01*
X92945000Y-86950000D01*
X92945000Y-85450000D01*
X92946464Y-85446464D01*
X92950000Y-85445000D01*
X93450000Y-85445000D01*
X93453536Y-85446464D01*
G37*
G36*
X96604736Y-83265724D02*
G01*
X96725687Y-83335556D01*
X96824444Y-83434313D01*
X96894276Y-83555264D01*
X96930423Y-83690168D01*
X96935000Y-83760000D01*
X96935000Y-84590000D01*
X96930423Y-84659832D01*
X96894276Y-84794736D01*
X96824444Y-84915687D01*
X96725687Y-85014444D01*
X96604736Y-85084276D01*
X96469832Y-85120423D01*
X96330168Y-85120423D01*
X96195264Y-85084276D01*
X96074313Y-85014444D01*
X95975556Y-84915687D01*
X95905724Y-84794736D01*
X95869577Y-84659832D01*
X95865000Y-84590000D01*
X95865000Y-83760000D01*
X95869577Y-83690168D01*
X95905724Y-83555264D01*
X95975556Y-83434313D01*
X96074313Y-83335556D01*
X96195264Y-83265724D01*
X96330168Y-83229577D01*
X96469832Y-83229577D01*
X96604736Y-83265724D01*
G37*
G36*
X103804736Y-83265724D02*
G01*
X103925687Y-83335556D01*
X104024444Y-83434313D01*
X104094276Y-83555264D01*
X104130423Y-83690168D01*
X104135000Y-83760000D01*
X104135000Y-84590000D01*
X104130423Y-84659832D01*
X104094276Y-84794736D01*
X104024444Y-84915687D01*
X103925687Y-85014444D01*
X103804736Y-85084276D01*
X103669832Y-85120423D01*
X103530168Y-85120423D01*
X103395264Y-85084276D01*
X103274313Y-85014444D01*
X103175556Y-84915687D01*
X103105724Y-84794736D01*
X103069577Y-84659832D01*
X103065000Y-84590000D01*
X103065000Y-83760000D01*
X103069577Y-83690168D01*
X103105724Y-83555264D01*
X103175556Y-83434313D01*
X103274313Y-83335556D01*
X103395264Y-83265724D01*
X103530168Y-83229577D01*
X103669832Y-83229577D01*
X103804736Y-83265724D01*
G37*
G36*
X99325000Y-84800000D02*
G01*
X98725000Y-84800000D01*
X98725000Y-83450000D01*
X99325000Y-83450000D01*
X99325000Y-84800000D01*
G37*
G36*
X101100000Y-84800000D02*
G01*
X100500000Y-84800000D01*
X100500000Y-83450000D01*
X101100000Y-83450000D01*
X101100000Y-84800000D01*
G37*
M02*
