%TF.GenerationSoftware,KiCad,Pcbnew,8.0.4*%
%TF.CreationDate,2024-12-05T11:14:02-05:00*%
%TF.ProjectId,IMpack,494d7061-636b-42e6-9b69-6361645f7063,rev?*%
%TF.SameCoordinates,Original*%
%TF.FileFunction,Legend,Top*%
%TF.FilePolarity,Positive*%
%FSLAX46Y46*%
G04 Gerber Fmt 4.6, Leading zero omitted, Abs format (unit mm)*
G04 Created by KiCad (PCBNEW 8.0.4) date 2024-12-05 11:14:02*
%MOMM*%
%LPD*%
G01*
G04 APERTURE LIST*
G04 Aperture macros list*
%AMRoundRect*
0 Rectangle with rounded corners*
0 $1 Rounding radius*
0 $2 $3 $4 $5 $6 $7 $8 $9 X,Y pos of 4 corners*
0 Add a 4 corners polygon primitive as box body*
4,1,4,$2,$3,$4,$5,$6,$7,$8,$9,$2,$3,0*
0 Add four circle primitives for the rounded corners*
1,1,$1+$1,$2,$3*
1,1,$1+$1,$4,$5*
1,1,$1+$1,$6,$7*
1,1,$1+$1,$8,$9*
0 Add four rect primitives between the rounded corners*
20,1,$1+$1,$2,$3,$4,$5,0*
20,1,$1+$1,$4,$5,$6,$7,0*
20,1,$1+$1,$6,$7,$8,$9,0*
20,1,$1+$1,$8,$9,$2,$3,0*%
%AMOutline4P*
0 Free polygon, 4 corners , with rotation*
0 The origin of the aperture is its center*
0 number of corners: always 4*
0 $1 to $8 corner X, Y*
0 $9 Rotation angle, in degrees counterclockwise*
0 create outline with 4 corners*
4,1,4,$1,$2,$3,$4,$5,$6,$7,$8,$1,$2,$9*%
%AMFreePoly0*
4,1,19,0.500000,-0.750000,0.000000,-0.750000,0.000000,-0.744911,-0.071157,-0.744911,-0.207708,-0.704816,-0.327430,-0.627875,-0.420627,-0.520320,-0.479746,-0.390866,-0.500000,-0.250000,-0.500000,0.250000,-0.479746,0.390866,-0.420627,0.520320,-0.327430,0.627875,-0.207708,0.704816,-0.071157,0.744911,0.000000,0.744911,0.000000,0.750000,0.500000,0.750000,0.500000,-0.750000,0.500000,-0.750000,
$1*%
%AMFreePoly1*
4,1,19,0.000000,0.744911,0.071157,0.744911,0.207708,0.704816,0.327430,0.627875,0.420627,0.520320,0.479746,0.390866,0.500000,0.250000,0.500000,-0.250000,0.479746,-0.390866,0.420627,-0.520320,0.327430,-0.627875,0.207708,-0.704816,0.071157,-0.744911,0.000000,-0.744911,0.000000,-0.750000,-0.500000,-0.750000,-0.500000,0.750000,0.000000,0.750000,0.000000,0.744911,0.000000,0.744911,
$1*%
%AMFreePoly2*
4,1,288,-10.746393,17.152804,-10.619479,17.114421,-10.619480,17.114421,-9.851444,16.755480,-9.100467,16.362094,-8.670211,16.111225,-8.641226,16.098531,-8.592373,16.065840,-8.368095,15.935071,-7.655832,15.475290,-6.965142,14.983695,-6.297446,14.461297,-5.654115,13.909170,-5.036473,13.328450,-4.445789,12.720329,-3.883278,12.086059,-3.350096,11.426942,-2.847339,10.744335,-2.376040,10.039640,-2.067728,9.530084,
-2.057470,9.514754,-2.057469,9.514755,-2.054889,9.508865,-1.937169,9.314305,-1.531627,8.569823,-1.160249,7.807723,-0.823798,7.029572,-0.522965,6.236971,-0.258369,5.431547,-0.030554,4.614958,0.160012,3.788881,0.312937,2.955016,0.427907,2.115076,0.504685,1.270787,0.543114,0.423886,0.543114,-0.423886,0.504685,-1.270787,0.427907,-2.115076,0.312937,-2.955016,0.160012,-3.788881,
-0.030554,-4.614958,-0.258369,-5.431547,-0.522965,-6.236971,-0.823798,-7.029572,-1.160249,-7.807723,-1.531627,-8.569823,-1.937169,-9.314305,-2.054834,-9.508774,-2.057457,-9.514762,-2.057458,-9.514761,-2.067886,-9.530344,-2.376040,-10.039640,-2.847339,-10.744335,-3.350096,-11.426942,-3.883278,-12.086059,-4.445789,-12.720329,-5.036473,-13.328450,-5.654115,-13.909170,-6.297446,-14.461297,-6.965142,-14.983695,
-7.655832,-15.475290,-8.368095,-15.935071,-8.592336,-16.065819,-8.641224,-16.098533,-8.641224,-16.098534,-8.670236,-16.111240,-9.100467,-16.362094,-9.851444,-16.755480,-10.619480,-17.114421,-10.619479,-17.114421,-10.746393,-17.152804,-10.878804,-17.159699,-11.009017,-17.134705,-11.129465,-17.079276,-11.233148,-16.996632,-11.314041,-16.891576,-11.367441,-16.770215,-11.390246,-16.639600,-11.381130,-16.507324,-11.340623,-16.381072,
-11.271079,-16.268184,-11.176540,-16.175218,-11.062501,-16.107579,-11.062501,-16.107578,-10.689941,-15.943637,-9.960769,-15.581673,-9.249112,-15.186383,-9.234464,-15.177336,-9.200752,-15.151470,-9.096442,-15.089843,-8.905695,-14.940413,-8.736083,-14.767365,-8.590510,-14.573658,-8.471466,-14.362608,-8.380988,-14.137824,-8.320624,-13.903154,-8.291407,-13.662613,-8.293837,-13.420316,-8.327872,-13.180409,-8.392930,-12.946996,
-8.487898,-12.724073,-8.549524,-12.619762,-8.549523,-12.619762,-8.602714,-12.498308,-8.625294,-12.367655,-8.615951,-12.235394,-8.575227,-12.109213,-8.505489,-11.996444,-8.410790,-11.903641,-8.296634,-11.836198,-8.169655,-11.798034,-8.037232,-11.791367,-7.907062,-11.816585,-7.786709,-11.872222,-7.683168,-11.955044,-7.602457,-12.060238,-7.602458,-12.060239,-7.450500,-12.353894,-7.332377,-12.662717,-7.249573,-12.982824,
-7.203131,-13.310189,-7.195931,-13.560701,-7.155990,-13.549999,-7.080989,-13.570095,-7.026085,-13.625000,-7.023487,-13.634692,-6.607446,-13.289902,-6.005334,-12.742022,-5.429197,-12.166891,-4.880268,-11.565736,-4.520196,-11.132796,-4.530992,-11.129904,-4.585896,-11.075000,-4.605992,-10.999999,-4.595292,-10.960067,-4.845803,-10.952870,-5.173169,-10.906429,-5.493276,-10.823626,-5.802101,-10.705503,-6.095757,-10.553546,
-6.200952,-10.472835,-6.283775,-10.369294,-6.339412,-10.248942,-6.364630,-10.118771,-6.357963,-9.986349,-6.319799,-9.859370,-6.252357,-9.745213,-6.159554,-9.650514,-6.046786,-9.580776,-5.920604,-9.540052,-5.788344,-9.530708,-5.657690,-9.553287,-5.536237,-9.606478,-5.431926,-9.668104,-5.209001,-9.763072,-4.975588,-9.828129,-4.735679,-9.862163,-4.493381,-9.864592,-4.252839,-9.835374,-4.018169,-9.775009,
-3.793385,-9.684530,-3.582334,-9.565485,-3.388627,-9.419910,-3.215579,-9.250298,-3.066150,-9.059549,-3.004523,-8.955238,-2.968599,-8.908417,-2.582646,-8.216419,-2.219410,-7.487880,-1.890246,-6.743326,-1.595858,-5.984349,-1.336876,-5.212573,-1.113854,-4.429648,-0.927269,-3.637249,-0.777519,-2.837071,-0.664926,-2.030824,-0.589730,-1.220235,-0.552092,-0.407035,-0.552092,0.407035,-0.589730,1.220235,
-0.664926,2.030824,-0.777519,2.837071,-0.927269,3.637249,-1.113854,4.429648,-1.336876,5.212573,-1.595858,5.984349,-1.890246,6.743326,-2.219410,7.487880,-2.582646,8.216419,-2.968551,8.908332,-3.004535,8.955231,-3.004536,8.955231,-3.066162,9.059541,-3.215590,9.250289,-3.388636,9.419900,-3.582342,9.565473,-3.793391,9.684518,-4.018173,9.774996,-4.252842,9.835361,-4.493382,9.864578,
-4.735678,9.862149,-4.975584,9.828115,-5.208996,9.763058,-5.431919,9.668091,-5.536229,9.606466,-5.536229,9.606467,-5.657683,9.553275,-5.788336,9.530696,-5.920597,9.540039,-6.046778,9.580764,-6.159547,9.650502,-6.252349,9.745201,-6.319792,9.859357,-6.357956,9.986336,-6.364623,10.118759,-6.339405,10.248929,-6.283768,10.369282,-6.200945,10.472822,-6.095751,10.553533,-6.095750,10.553533,
-5.802095,10.705489,-5.493272,10.823612,-5.173166,10.906415,-4.845802,10.952856,-4.595288,10.960053,-4.605992,10.999999,-4.585896,11.074999,-4.530991,11.129904,-4.520196,11.132796,-4.880268,11.565736,-5.429197,12.166891,-6.005334,12.742022,-6.607446,13.289902,-7.023487,13.634692,-7.026085,13.624999,-7.080989,13.570095,-7.155990,13.549999,-7.195934,13.560701,-7.203134,13.310190,-7.249576,12.982825,
-7.332379,12.662719,-7.450503,12.353896,-7.602460,12.060241,-7.683171,11.955046,-7.786712,11.872224,-7.907065,11.816587,-8.037235,11.791369,-8.169657,11.798036,-8.296637,11.836200,-8.410793,11.903643,-8.505492,11.996446,-8.575230,12.109215,-8.615954,12.235396,-8.625297,12.367657,-8.602717,12.498310,-8.549526,12.619763,-8.487900,12.724074,-8.392933,12.946997,-8.327875,13.180409,-8.293840,13.420316,
-8.291410,13.662613,-8.320627,13.903154,-8.380991,14.137824,-8.471469,14.362607,-8.590513,14.573657,-8.736086,14.767364,-8.905697,14.940412,-9.096444,15.089842,-9.200754,15.151468,-9.200754,15.151469,-9.234481,15.177346,-9.249112,15.186383,-9.960769,15.581673,-10.689941,15.943637,-11.062501,16.107578,-11.062501,16.107579,-11.176540,16.175218,-11.271079,16.268184,-11.340623,16.381072,-11.381130,16.507324,
-11.390246,16.639600,-11.367441,16.770215,-11.314041,16.891576,-11.233148,16.996632,-11.129465,17.079276,-11.009017,17.134705,-10.878804,17.159699,-10.746393,17.152804,-10.746393,17.152804,$1*%
G04 Aperture macros list end*
%ADD10C,0.150000*%
%ADD11C,0.125000*%
%ADD12C,0.187500*%
%ADD13C,0.120000*%
%ADD14RoundRect,0.218750X-0.218750X-0.256250X0.218750X-0.256250X0.218750X0.256250X-0.218750X0.256250X0*%
%ADD15RoundRect,0.140000X0.140000X0.170000X-0.140000X0.170000X-0.140000X-0.170000X0.140000X-0.170000X0*%
%ADD16RoundRect,0.150000X-0.150000X-0.625000X0.150000X-0.625000X0.150000X0.625000X-0.150000X0.625000X0*%
%ADD17RoundRect,0.250000X-0.350000X-0.650000X0.350000X-0.650000X0.350000X0.650000X-0.350000X0.650000X0*%
%ADD18RoundRect,0.140000X0.170000X-0.140000X0.170000X0.140000X-0.170000X0.140000X-0.170000X-0.140000X0*%
%ADD19RoundRect,0.147500X-0.147500X-0.172500X0.147500X-0.172500X0.147500X0.172500X-0.147500X0.172500X0*%
%ADD20RoundRect,0.225000X-0.225000X-0.250000X0.225000X-0.250000X0.225000X0.250000X-0.225000X0.250000X0*%
%ADD21RoundRect,0.135000X0.135000X0.185000X-0.135000X0.185000X-0.135000X-0.185000X0.135000X-0.185000X0*%
%ADD22RoundRect,0.140000X-0.140000X-0.170000X0.140000X-0.170000X0.140000X0.170000X-0.140000X0.170000X0*%
%ADD23RoundRect,0.147500X-0.172500X0.147500X-0.172500X-0.147500X0.172500X-0.147500X0.172500X0.147500X0*%
%ADD24RoundRect,0.200000X-0.200000X-0.600000X0.200000X-0.600000X0.200000X0.600000X-0.200000X0.600000X0*%
%ADD25RoundRect,0.200000X-0.300000X-0.200000X0.300000X-0.200000X0.300000X0.200000X-0.300000X0.200000X0*%
%ADD26RoundRect,0.135000X-0.135000X-0.185000X0.135000X-0.185000X0.135000X0.185000X-0.135000X0.185000X0*%
%ADD27FreePoly0,180.000000*%
%ADD28FreePoly1,180.000000*%
%ADD29RoundRect,0.075000X-0.700000X-0.075000X0.700000X-0.075000X0.700000X0.075000X-0.700000X0.075000X0*%
%ADD30RoundRect,0.075000X-0.075000X-0.700000X0.075000X-0.700000X0.075000X0.700000X-0.075000X0.700000X0*%
%ADD31RoundRect,0.140000X-0.170000X0.140000X-0.170000X-0.140000X0.170000X-0.140000X0.170000X0.140000X0*%
%ADD32C,4.400000*%
%ADD33RoundRect,0.135000X-0.185000X0.135000X-0.185000X-0.135000X0.185000X-0.135000X0.185000X0.135000X0*%
%ADD34FreePoly2,180.000000*%
%ADD35FreePoly2,0.000000*%
%ADD36RoundRect,0.150000X0.150000X-0.512500X0.150000X0.512500X-0.150000X0.512500X-0.150000X-0.512500X0*%
%ADD37C,0.990600*%
%ADD38C,0.787400*%
%ADD39FreePoly0,270.000000*%
%ADD40FreePoly1,270.000000*%
%ADD41RoundRect,0.200000X0.200000X0.800000X-0.200000X0.800000X-0.200000X-0.800000X0.200000X-0.800000X0*%
%ADD42R,1.400000X1.200000*%
%ADD43Outline4P,-0.200000X-0.625000X0.200000X-0.625000X0.200000X0.625000X-0.200000X0.625000X0.000000*%
%ADD44R,0.400000X1.250000*%
%ADD45O,1.070000X1.900000*%
%ADD46C,1.300000*%
%ADD47Outline4P,-0.300000X-0.675000X0.300000X-0.675000X0.300000X0.675000X-0.300000X0.675000X0.000000*%
%ADD48R,1.750000X0.700000*%
%ADD49R,1.000000X1.450000*%
%ADD50R,1.550000X1.000000*%
%ADD51R,1.500000X0.800000*%
%ADD52R,1.500000X1.300000*%
%ADD53R,1.500000X1.500000*%
%ADD54R,1.400000X0.800000*%
G04 APERTURE END LIST*
D10*
X108900000Y-111000000D02*
X108318297Y-110420737D01*
X108898780Y-110419518D02*
X108319517Y-111001221D01*
X108611237Y-112711707D02*
X108611237Y-111135971D01*
X108186973Y-110711707D02*
X106611237Y-110711707D01*
X109035501Y-110711707D02*
G75*
G02*
X108186973Y-110711707I-424264J0D01*
G01*
X108186973Y-110711707D02*
G75*
G02*
X109035501Y-110711707I424264J0D01*
G01*
G36*
X91147976Y-110814581D02*
G01*
X91981821Y-110814581D01*
X91981821Y-111049054D01*
X91459874Y-111049054D01*
X91459874Y-111189738D01*
X91944208Y-111189738D01*
X91944208Y-111392948D01*
X91459874Y-111392948D01*
X91459874Y-111580526D01*
X91996964Y-111580526D01*
X91996964Y-111815000D01*
X91147976Y-111815000D01*
X91147976Y-110814581D01*
G37*
G36*
X92089532Y-110814581D02*
G01*
X92432205Y-110814581D01*
X92610991Y-111122327D01*
X92783915Y-110814581D01*
X93123412Y-110814581D01*
X92810049Y-111299159D01*
X93152966Y-111815000D01*
X92803210Y-111815000D01*
X92604641Y-111493576D01*
X92405583Y-111815000D01*
X92057781Y-111815000D01*
X92405583Y-111293541D01*
X92089532Y-110814581D01*
G37*
G36*
X93813827Y-110816519D02*
G01*
X93869239Y-110823961D01*
X93918676Y-110836984D01*
X93968798Y-110859231D01*
X94010786Y-110889076D01*
X94016120Y-110893960D01*
X94048953Y-110931890D01*
X94073722Y-110976226D01*
X94090427Y-111026966D01*
X94098327Y-111075555D01*
X94100384Y-111119640D01*
X94097155Y-111173833D01*
X94087469Y-111223390D01*
X94068008Y-111275345D01*
X94039758Y-111320990D01*
X94008548Y-111355090D01*
X93963849Y-111388114D01*
X93918168Y-111409964D01*
X93865686Y-111425855D01*
X93816757Y-111434545D01*
X93763104Y-111439098D01*
X93728646Y-111439842D01*
X93558409Y-111439842D01*
X93558409Y-111815000D01*
X93245778Y-111815000D01*
X93245778Y-111236632D01*
X93558409Y-111236632D01*
X93634613Y-111236632D01*
X93685694Y-111233675D01*
X93736409Y-111220987D01*
X93761130Y-111206346D01*
X93790557Y-111166590D01*
X93797523Y-111128189D01*
X93786329Y-111078365D01*
X93765771Y-111050031D01*
X93720342Y-111025851D01*
X93667998Y-111018295D01*
X93647069Y-111017791D01*
X93558409Y-111017791D01*
X93558409Y-111236632D01*
X93245778Y-111236632D01*
X93245778Y-110814581D01*
X93763084Y-110814581D01*
X93813827Y-110816519D01*
G37*
D11*
G36*
X96431665Y-91797500D02*
G01*
X96431665Y-91040738D01*
X96619243Y-91040738D01*
X96619243Y-91294556D01*
X97232000Y-91294556D01*
X97232000Y-91543488D01*
X96619243Y-91543488D01*
X96619243Y-91797500D01*
X96431665Y-91797500D01*
G37*
G36*
X97232000Y-90418408D02*
G01*
X96987170Y-90551276D01*
X96951983Y-90572417D01*
X96925426Y-90596412D01*
X96909474Y-90632865D01*
X96906863Y-90657375D01*
X96906863Y-90679454D01*
X97232000Y-90679454D01*
X97232000Y-90929364D01*
X96431665Y-90929364D01*
X96431665Y-90570034D01*
X96594233Y-90570034D01*
X96594233Y-90679454D01*
X96756801Y-90679454D01*
X96756801Y-90574528D01*
X96751148Y-90533458D01*
X96745859Y-90508484D01*
X96726765Y-90473147D01*
X96720848Y-90468038D01*
X96683957Y-90452956D01*
X96674344Y-90452406D01*
X96634739Y-90461155D01*
X96614944Y-90477221D01*
X96598784Y-90515677D01*
X96594415Y-90557630D01*
X96594233Y-90570034D01*
X96431665Y-90570034D01*
X96431665Y-90514542D01*
X96432358Y-90473154D01*
X96434922Y-90429713D01*
X96440164Y-90386454D01*
X96449010Y-90345934D01*
X96451399Y-90338101D01*
X96468827Y-90298982D01*
X96494243Y-90265451D01*
X96524281Y-90239817D01*
X96559769Y-90220034D01*
X96599798Y-90207577D01*
X96639707Y-90202631D01*
X96653828Y-90202302D01*
X96693678Y-90205107D01*
X96733369Y-90214672D01*
X96768720Y-90231025D01*
X96802361Y-90255443D01*
X96830892Y-90285906D01*
X96847073Y-90309573D01*
X96864561Y-90347333D01*
X96876324Y-90386717D01*
X96878727Y-90396914D01*
X96893723Y-90358422D01*
X96908622Y-90332043D01*
X96936612Y-90304603D01*
X96951609Y-90292378D01*
X96983620Y-90268425D01*
X97002020Y-90257403D01*
X97232000Y-90137040D01*
X97232000Y-90418408D01*
G37*
G36*
X96431665Y-90052043D02*
G01*
X96431665Y-89802720D01*
X97232000Y-89802720D01*
X97232000Y-90052043D01*
X96431665Y-90052043D01*
G37*
G36*
X96969390Y-89221618D02*
G01*
X96781811Y-89221618D01*
X96781811Y-88837082D01*
X97106556Y-88837082D01*
X97130341Y-88870961D01*
X97155584Y-88909979D01*
X97177227Y-88947210D01*
X97195270Y-88982656D01*
X97211772Y-89021752D01*
X97215586Y-89032476D01*
X97226854Y-89071101D01*
X97235355Y-89112773D01*
X97241088Y-89157494D01*
X97243799Y-89198252D01*
X97244505Y-89233928D01*
X97243322Y-89277453D01*
X97239773Y-89318394D01*
X97232390Y-89364109D01*
X97221601Y-89406101D01*
X97207404Y-89444370D01*
X97196047Y-89467814D01*
X97172584Y-89505373D01*
X97144596Y-89539061D01*
X97112082Y-89568878D01*
X97075043Y-89594824D01*
X97051846Y-89607912D01*
X97014880Y-89624779D01*
X96975935Y-89638156D01*
X96935012Y-89648043D01*
X96892111Y-89654440D01*
X96847232Y-89657348D01*
X96831832Y-89657542D01*
X96791817Y-89656216D01*
X96746003Y-89651124D01*
X96702594Y-89642212D01*
X96661588Y-89629481D01*
X96622987Y-89612930D01*
X96604588Y-89603223D01*
X96569960Y-89581007D01*
X96538615Y-89555247D01*
X96510554Y-89525943D01*
X96485777Y-89493094D01*
X96464282Y-89456700D01*
X96457847Y-89443781D01*
X96442773Y-89405251D01*
X96431400Y-89361299D01*
X96424600Y-89319309D01*
X96420519Y-89273335D01*
X96419197Y-89231979D01*
X96419159Y-89223376D01*
X96419770Y-89183313D01*
X96422115Y-89139569D01*
X96426218Y-89100551D01*
X96433228Y-89061004D01*
X96444170Y-89023683D01*
X96462389Y-88984498D01*
X96486027Y-88949739D01*
X96515084Y-88919407D01*
X96521546Y-88913872D01*
X96553227Y-88890968D01*
X96589360Y-88871495D01*
X96629944Y-88855453D01*
X96654414Y-88848024D01*
X96694274Y-89088163D01*
X96658903Y-89106636D01*
X96630827Y-89136373D01*
X96629404Y-89138575D01*
X96613135Y-89176024D01*
X96607092Y-89215426D01*
X96606738Y-89228847D01*
X96610957Y-89272272D01*
X96623616Y-89310441D01*
X96644713Y-89343356D01*
X96660080Y-89359371D01*
X96695001Y-89382890D01*
X96734293Y-89397333D01*
X96775046Y-89404983D01*
X96814709Y-89407834D01*
X96828901Y-89408024D01*
X96872517Y-89406293D01*
X96917151Y-89399897D01*
X96955053Y-89388790D01*
X96990126Y-89370325D01*
X97004365Y-89358784D01*
X97029773Y-89328027D01*
X97046866Y-89291149D01*
X97055643Y-89248150D01*
X97056926Y-89221618D01*
X97054875Y-89180927D01*
X97048720Y-89142092D01*
X97038493Y-89104010D01*
X97024377Y-89064206D01*
X97020778Y-89055142D01*
X96969390Y-89055142D01*
X96969390Y-89221618D01*
G37*
D10*
G36*
X93746933Y-106750780D02*
G01*
X93790003Y-106755486D01*
X93830372Y-106763328D01*
X93868039Y-106774308D01*
X93903004Y-106788424D01*
X93942910Y-106810481D01*
X93978595Y-106837440D01*
X93991687Y-106849596D01*
X94021081Y-106882872D01*
X94045493Y-106920074D01*
X94064923Y-106961203D01*
X94076880Y-106996934D01*
X94085648Y-107035178D01*
X94091228Y-107075934D01*
X94093620Y-107119204D01*
X94093719Y-107130414D01*
X94092628Y-107170251D01*
X94089354Y-107207790D01*
X94082545Y-107249803D01*
X94072593Y-107288505D01*
X94059499Y-107323897D01*
X94049023Y-107345653D01*
X94027646Y-107380579D01*
X94002465Y-107411945D01*
X93973480Y-107439754D01*
X93940691Y-107464003D01*
X93920246Y-107476262D01*
X93881471Y-107494463D01*
X93845068Y-107506506D01*
X93805741Y-107515264D01*
X93763490Y-107520738D01*
X93726048Y-107522791D01*
X93710502Y-107522973D01*
X93671623Y-107521989D01*
X93634900Y-107519038D01*
X93593678Y-107512898D01*
X93555560Y-107503925D01*
X93520545Y-107492118D01*
X93498927Y-107482673D01*
X93463818Y-107462798D01*
X93431743Y-107438435D01*
X93402700Y-107409583D01*
X93376690Y-107376244D01*
X93363189Y-107355178D01*
X93345509Y-107320872D01*
X93331487Y-107283488D01*
X93321123Y-107243026D01*
X93314417Y-107199485D01*
X93311622Y-107160849D01*
X93311165Y-107136642D01*
X93544539Y-107136642D01*
X93546033Y-107176529D01*
X93551553Y-107217448D01*
X93562842Y-107256806D01*
X93581891Y-107291642D01*
X93587038Y-107298025D01*
X93616586Y-107323914D01*
X93652110Y-107340215D01*
X93689190Y-107346687D01*
X93702625Y-107347118D01*
X93742280Y-107343322D01*
X93780018Y-107330199D01*
X93811102Y-107307702D01*
X93819129Y-107299125D01*
X93839053Y-107265997D01*
X93851289Y-107226430D01*
X93857769Y-107183995D01*
X93860184Y-107141817D01*
X93860345Y-107126567D01*
X93858832Y-107089258D01*
X93853241Y-107050745D01*
X93841806Y-107013341D01*
X93822510Y-106979692D01*
X93817297Y-106973427D01*
X93787405Y-106947924D01*
X93751538Y-106931867D01*
X93714149Y-106925492D01*
X93700610Y-106925067D01*
X93663128Y-106928950D01*
X93626613Y-106942374D01*
X93595501Y-106965386D01*
X93587221Y-106974159D01*
X93566589Y-107006860D01*
X93553918Y-107044467D01*
X93547207Y-107083966D01*
X93544706Y-107122719D01*
X93544539Y-107136642D01*
X93311165Y-107136642D01*
X93312774Y-107092114D01*
X93317599Y-107050123D01*
X93325642Y-107010667D01*
X93336902Y-106973747D01*
X93351379Y-106939363D01*
X93374000Y-106899950D01*
X93401647Y-106864498D01*
X93414114Y-106851427D01*
X93448314Y-106821981D01*
X93486460Y-106797525D01*
X93519816Y-106781553D01*
X93555697Y-106768777D01*
X93594102Y-106759194D01*
X93635032Y-106752805D01*
X93678486Y-106749611D01*
X93701160Y-106749212D01*
X93746933Y-106750780D01*
G37*
G36*
X94215719Y-106760935D02*
G01*
X94792742Y-106760935D01*
X94792742Y-106936790D01*
X94450009Y-106936790D01*
X94450009Y-107054027D01*
X94742734Y-107054027D01*
X94742734Y-107206434D01*
X94450009Y-107206434D01*
X94450009Y-107511250D01*
X94215719Y-107511250D01*
X94215719Y-106760935D01*
G37*
G36*
X94915474Y-106760935D02*
G01*
X95492498Y-106760935D01*
X95492498Y-106936790D01*
X95149764Y-106936790D01*
X95149764Y-107054027D01*
X95442489Y-107054027D01*
X95442489Y-107206434D01*
X95149764Y-107206434D01*
X95149764Y-107511250D01*
X94915474Y-107511250D01*
X94915474Y-106760935D01*
G37*
G36*
X108663677Y-109080317D02*
G01*
X109340230Y-109080317D01*
X109340230Y-109240785D01*
X108971912Y-109627421D01*
X109362944Y-109627421D01*
X109362944Y-109815000D01*
X108636078Y-109815000D01*
X108636078Y-109636946D01*
X108985101Y-109267896D01*
X108663677Y-109267896D01*
X108663677Y-109080317D01*
G37*
G36*
X102309616Y-106750780D02*
G01*
X102352686Y-106755486D01*
X102393055Y-106763328D01*
X102430722Y-106774308D01*
X102465687Y-106788424D01*
X102505593Y-106810481D01*
X102541278Y-106837440D01*
X102554370Y-106849596D01*
X102583764Y-106882872D01*
X102608176Y-106920074D01*
X102627606Y-106961203D01*
X102639563Y-106996934D01*
X102648331Y-107035178D01*
X102653911Y-107075934D01*
X102656303Y-107119204D01*
X102656402Y-107130414D01*
X102655311Y-107170251D01*
X102652037Y-107207790D01*
X102645228Y-107249803D01*
X102635276Y-107288505D01*
X102622182Y-107323897D01*
X102611706Y-107345653D01*
X102590329Y-107380579D01*
X102565148Y-107411945D01*
X102536163Y-107439754D01*
X102503374Y-107464003D01*
X102482929Y-107476262D01*
X102444154Y-107494463D01*
X102407751Y-107506506D01*
X102368424Y-107515264D01*
X102326173Y-107520738D01*
X102288731Y-107522791D01*
X102273185Y-107522973D01*
X102234306Y-107521989D01*
X102197583Y-107519038D01*
X102156361Y-107512898D01*
X102118243Y-107503925D01*
X102083228Y-107492118D01*
X102061610Y-107482673D01*
X102026501Y-107462798D01*
X101994426Y-107438435D01*
X101965383Y-107409583D01*
X101939373Y-107376244D01*
X101925872Y-107355178D01*
X101908192Y-107320872D01*
X101894170Y-107283488D01*
X101883806Y-107243026D01*
X101877100Y-107199485D01*
X101874305Y-107160849D01*
X101873848Y-107136642D01*
X102107222Y-107136642D01*
X102108716Y-107176529D01*
X102114236Y-107217448D01*
X102125525Y-107256806D01*
X102144574Y-107291642D01*
X102149721Y-107298025D01*
X102179269Y-107323914D01*
X102214793Y-107340215D01*
X102251873Y-107346687D01*
X102265308Y-107347118D01*
X102304963Y-107343322D01*
X102342701Y-107330199D01*
X102373785Y-107307702D01*
X102381812Y-107299125D01*
X102401736Y-107265997D01*
X102413972Y-107226430D01*
X102420452Y-107183995D01*
X102422867Y-107141817D01*
X102423028Y-107126567D01*
X102421515Y-107089258D01*
X102415924Y-107050745D01*
X102404489Y-107013341D01*
X102385193Y-106979692D01*
X102379980Y-106973427D01*
X102350088Y-106947924D01*
X102314221Y-106931867D01*
X102276832Y-106925492D01*
X102263293Y-106925067D01*
X102225811Y-106928950D01*
X102189296Y-106942374D01*
X102158184Y-106965386D01*
X102149904Y-106974159D01*
X102129272Y-107006860D01*
X102116601Y-107044467D01*
X102109890Y-107083966D01*
X102107389Y-107122719D01*
X102107222Y-107136642D01*
X101873848Y-107136642D01*
X101875457Y-107092114D01*
X101880282Y-107050123D01*
X101888325Y-107010667D01*
X101899585Y-106973747D01*
X101914062Y-106939363D01*
X101936683Y-106899950D01*
X101964330Y-106864498D01*
X101976797Y-106851427D01*
X102010997Y-106821981D01*
X102049143Y-106797525D01*
X102082499Y-106781553D01*
X102118380Y-106768777D01*
X102156785Y-106759194D01*
X102197715Y-106752805D01*
X102241169Y-106749611D01*
X102263843Y-106749212D01*
X102309616Y-106750780D01*
G37*
G36*
X102778768Y-106760935D02*
G01*
X102996755Y-106760935D01*
X103281237Y-107183720D01*
X103281237Y-106760935D01*
X103501055Y-106760935D01*
X103501055Y-107511250D01*
X103281237Y-107511250D01*
X102998220Y-107090663D01*
X102998220Y-107511250D01*
X102778768Y-107511250D01*
X102778768Y-106760935D01*
G37*
D11*
G36*
X84439022Y-100607938D02*
G01*
X84465494Y-100610334D01*
X84492685Y-100615232D01*
X84516609Y-100622435D01*
X84524738Y-100625730D01*
X84547278Y-100637369D01*
X84567500Y-100651538D01*
X84585403Y-100668238D01*
X84594348Y-100678609D01*
X84608606Y-100698879D01*
X84620468Y-100720946D01*
X84629935Y-100744809D01*
X84634159Y-100758843D01*
X84640122Y-100784969D01*
X84644133Y-100811964D01*
X84646060Y-100836690D01*
X84646493Y-100855685D01*
X84645845Y-100884506D01*
X84643900Y-100910794D01*
X84639993Y-100938262D01*
X84634320Y-100962282D01*
X84628053Y-100980127D01*
X84616619Y-101003805D01*
X84602924Y-101025241D01*
X84586969Y-101044437D01*
X84577129Y-101054132D01*
X84556272Y-101070812D01*
X84534462Y-101083604D01*
X84511698Y-101092508D01*
X84507031Y-101093822D01*
X84482049Y-101099806D01*
X84455387Y-101104494D01*
X84430250Y-101107019D01*
X84414341Y-101107500D01*
X84183165Y-101107500D01*
X84183165Y-100990263D01*
X84338747Y-100990263D01*
X84376849Y-100990263D01*
X84402036Y-100989442D01*
X84426786Y-100986208D01*
X84446214Y-100979883D01*
X84465592Y-100964347D01*
X84478454Y-100943368D01*
X84485599Y-100919234D01*
X84489033Y-100892196D01*
X84490132Y-100866031D01*
X84490178Y-100858860D01*
X84489259Y-100831589D01*
X84485865Y-100804114D01*
X84478923Y-100778438D01*
X84467209Y-100756851D01*
X84464044Y-100753103D01*
X84444424Y-100738034D01*
X84421014Y-100729243D01*
X84395632Y-100725224D01*
X84377582Y-100724527D01*
X84338747Y-100724527D01*
X84338747Y-100990263D01*
X84183165Y-100990263D01*
X84183165Y-100607290D01*
X84414341Y-100607290D01*
X84439022Y-100607938D01*
G37*
G36*
X84724895Y-100607290D02*
G01*
X85141818Y-100607290D01*
X85141818Y-100724527D01*
X84880844Y-100724527D01*
X84880844Y-100794869D01*
X85123011Y-100794869D01*
X85123011Y-100896474D01*
X84880844Y-100896474D01*
X84880844Y-100990263D01*
X85149390Y-100990263D01*
X85149390Y-101107500D01*
X84724895Y-101107500D01*
X84724895Y-100607290D01*
G37*
G36*
X85548087Y-100608501D02*
G01*
X85575536Y-100612974D01*
X85599749Y-100620743D01*
X85623455Y-100633657D01*
X85633723Y-100641728D01*
X85650767Y-100659970D01*
X85664120Y-100682937D01*
X85671310Y-100708494D01*
X85672680Y-100726969D01*
X85669961Y-100752426D01*
X85661803Y-100775522D01*
X85648208Y-100796256D01*
X85644836Y-100800120D01*
X85625322Y-100816245D01*
X85603385Y-100827499D01*
X85590614Y-100832238D01*
X85615985Y-100840153D01*
X85640221Y-100851922D01*
X85659897Y-100866724D01*
X85670482Y-100878278D01*
X85684006Y-100900302D01*
X85692521Y-100925619D01*
X85695902Y-100951218D01*
X85696127Y-100960343D01*
X85693977Y-100987013D01*
X85687527Y-101011778D01*
X85677931Y-101032639D01*
X85663834Y-101053133D01*
X85646562Y-101070452D01*
X85628105Y-101083442D01*
X85605387Y-101093010D01*
X85580875Y-101098617D01*
X85568999Y-101100416D01*
X85542252Y-101103840D01*
X85517145Y-101106503D01*
X85499267Y-101107500D01*
X85230722Y-101107500D01*
X85230722Y-100990263D01*
X85387648Y-100990263D01*
X85467027Y-100990263D01*
X85491850Y-100988589D01*
X85515345Y-100981617D01*
X85523692Y-100976097D01*
X85537457Y-100955728D01*
X85540178Y-100937873D01*
X85533786Y-100913525D01*
X85523814Y-100902213D01*
X85501405Y-100892047D01*
X85476503Y-100888870D01*
X85466661Y-100888658D01*
X85387648Y-100888658D01*
X85387648Y-100990263D01*
X85230722Y-100990263D01*
X85230722Y-100794869D01*
X85387648Y-100794869D01*
X85455304Y-100794869D01*
X85481224Y-100793014D01*
X85505069Y-100784325D01*
X85505984Y-100783633D01*
X85519142Y-100762134D01*
X85520272Y-100750905D01*
X85512891Y-100726945D01*
X85505984Y-100720008D01*
X85483264Y-100711022D01*
X85458588Y-100708906D01*
X85456403Y-100708895D01*
X85387648Y-100708895D01*
X85387648Y-100794869D01*
X85230722Y-100794869D01*
X85230722Y-100607290D01*
X85521982Y-100607290D01*
X85548087Y-100608501D01*
G37*
G36*
X86084107Y-100607290D02*
G01*
X86239323Y-100607290D01*
X86239323Y-100904900D01*
X86238222Y-100929381D01*
X86234415Y-100955675D01*
X86227889Y-100981015D01*
X86225401Y-100988431D01*
X86215162Y-101012054D01*
X86201845Y-101033769D01*
X86185452Y-101053575D01*
X86181804Y-101057308D01*
X86162971Y-101073985D01*
X86141593Y-101088363D01*
X86119522Y-101098585D01*
X86095678Y-101105904D01*
X86069574Y-101111133D01*
X86044881Y-101113992D01*
X86018457Y-101115250D01*
X86010590Y-101115315D01*
X85984525Y-101114709D01*
X85959452Y-101113106D01*
X85933067Y-101110502D01*
X85930356Y-101110186D01*
X85904644Y-101106003D01*
X85879556Y-101099142D01*
X85857816Y-101089914D01*
X85836613Y-101076771D01*
X85816783Y-101060055D01*
X85804327Y-101046927D01*
X85789507Y-101027499D01*
X85777454Y-101005843D01*
X85771232Y-100989286D01*
X85764266Y-100963355D01*
X85759580Y-100939144D01*
X85757047Y-100914260D01*
X85756821Y-100904900D01*
X85756821Y-100607290D01*
X85912038Y-100607290D01*
X85912038Y-100911372D01*
X85914736Y-100937308D01*
X85923835Y-100960795D01*
X85934875Y-100975120D01*
X85956352Y-100989985D01*
X85981365Y-100996980D01*
X85998256Y-100998079D01*
X86023829Y-100995409D01*
X86047053Y-100986407D01*
X86061270Y-100975486D01*
X86076056Y-100954006D01*
X86083014Y-100928632D01*
X86084107Y-100911372D01*
X86084107Y-100607290D01*
G37*
G36*
X86592376Y-100943368D02*
G01*
X86592376Y-100826132D01*
X86832711Y-100826132D01*
X86832711Y-101029098D01*
X86811537Y-101043963D01*
X86787151Y-101059740D01*
X86763881Y-101073267D01*
X86741727Y-101084544D01*
X86717292Y-101094857D01*
X86710590Y-101097241D01*
X86686449Y-101104284D01*
X86660404Y-101109597D01*
X86632454Y-101113180D01*
X86606980Y-101114874D01*
X86584683Y-101115315D01*
X86557479Y-101114576D01*
X86531891Y-101112358D01*
X86503319Y-101107744D01*
X86477074Y-101101000D01*
X86453156Y-101092127D01*
X86438503Y-101085029D01*
X86415029Y-101070365D01*
X86393974Y-101052872D01*
X86375339Y-101032551D01*
X86359122Y-101009402D01*
X86350942Y-100994904D01*
X86340401Y-100971800D01*
X86332040Y-100947459D01*
X86325861Y-100921883D01*
X86321862Y-100895069D01*
X86320045Y-100867020D01*
X86319923Y-100857395D01*
X86320752Y-100832386D01*
X86323935Y-100803752D01*
X86329505Y-100776621D01*
X86337462Y-100750993D01*
X86347806Y-100726867D01*
X86353873Y-100715368D01*
X86367758Y-100693725D01*
X86383858Y-100674134D01*
X86402173Y-100656596D01*
X86422704Y-100641110D01*
X86445450Y-100627676D01*
X86453524Y-100623654D01*
X86477605Y-100614233D01*
X86505076Y-100607125D01*
X86531319Y-100602875D01*
X86560053Y-100600324D01*
X86585900Y-100599498D01*
X86591277Y-100599474D01*
X86616317Y-100599856D01*
X86643657Y-100601321D01*
X86668043Y-100603886D01*
X86692760Y-100608267D01*
X86716085Y-100615106D01*
X86740576Y-100626493D01*
X86762301Y-100641267D01*
X86781258Y-100659427D01*
X86784717Y-100663466D01*
X86799033Y-100683267D01*
X86811203Y-100705850D01*
X86821229Y-100731215D01*
X86825872Y-100746509D01*
X86675785Y-100771421D01*
X86664240Y-100749314D01*
X86645654Y-100731767D01*
X86644278Y-100730877D01*
X86620872Y-100720709D01*
X86596246Y-100716932D01*
X86587858Y-100716711D01*
X86560717Y-100719348D01*
X86536862Y-100727260D01*
X86516290Y-100740446D01*
X86506281Y-100750050D01*
X86491581Y-100771875D01*
X86482554Y-100796433D01*
X86477773Y-100821903D01*
X86475991Y-100846693D01*
X86475872Y-100855563D01*
X86476954Y-100882823D01*
X86480951Y-100910719D01*
X86487894Y-100934408D01*
X86499434Y-100956328D01*
X86506647Y-100965228D01*
X86525870Y-100981108D01*
X86548919Y-100991791D01*
X86575793Y-100997277D01*
X86592376Y-100998079D01*
X86617808Y-100996796D01*
X86642080Y-100992950D01*
X86665881Y-100986558D01*
X86690758Y-100977736D01*
X86696424Y-100975486D01*
X86696424Y-100943368D01*
X86592376Y-100943368D01*
G37*
G36*
X92472546Y-84416001D02*
G01*
X92499995Y-84420474D01*
X92524207Y-84428243D01*
X92547914Y-84441157D01*
X92558182Y-84449228D01*
X92575225Y-84467470D01*
X92588579Y-84490437D01*
X92595769Y-84515994D01*
X92597139Y-84534469D01*
X92594419Y-84559926D01*
X92586262Y-84583022D01*
X92572667Y-84603756D01*
X92569295Y-84607620D01*
X92549780Y-84623745D01*
X92527844Y-84634999D01*
X92515073Y-84639738D01*
X92540444Y-84647653D01*
X92564680Y-84659422D01*
X92584356Y-84674224D01*
X92594940Y-84685778D01*
X92608464Y-84707802D01*
X92616979Y-84733119D01*
X92620360Y-84758718D01*
X92620586Y-84767843D01*
X92618436Y-84794513D01*
X92611985Y-84819278D01*
X92602390Y-84840139D01*
X92588293Y-84860633D01*
X92571021Y-84877952D01*
X92552564Y-84890942D01*
X92529845Y-84900510D01*
X92505333Y-84906117D01*
X92493457Y-84907916D01*
X92466711Y-84911340D01*
X92441604Y-84914003D01*
X92423726Y-84915000D01*
X92155181Y-84915000D01*
X92155181Y-84797763D01*
X92312107Y-84797763D01*
X92391486Y-84797763D01*
X92416309Y-84796089D01*
X92439804Y-84789117D01*
X92448150Y-84783597D01*
X92461916Y-84763228D01*
X92464637Y-84745373D01*
X92458244Y-84721025D01*
X92448273Y-84709713D01*
X92425863Y-84699547D01*
X92400962Y-84696370D01*
X92391120Y-84696158D01*
X92312107Y-84696158D01*
X92312107Y-84797763D01*
X92155181Y-84797763D01*
X92155181Y-84602369D01*
X92312107Y-84602369D01*
X92379762Y-84602369D01*
X92405683Y-84600514D01*
X92429528Y-84591825D01*
X92430443Y-84591133D01*
X92443601Y-84569634D01*
X92444731Y-84558405D01*
X92437350Y-84534445D01*
X92430443Y-84527508D01*
X92407722Y-84518522D01*
X92383047Y-84516406D01*
X92380861Y-84516395D01*
X92312107Y-84516395D01*
X92312107Y-84602369D01*
X92155181Y-84602369D01*
X92155181Y-84414790D01*
X92446441Y-84414790D01*
X92472546Y-84416001D01*
G37*
G36*
X92969960Y-84408020D02*
G01*
X92998674Y-84411157D01*
X93025586Y-84416385D01*
X93050698Y-84423705D01*
X93074007Y-84433116D01*
X93100612Y-84447821D01*
X93124402Y-84465793D01*
X93133129Y-84473897D01*
X93152726Y-84496081D01*
X93169000Y-84520883D01*
X93181954Y-84548302D01*
X93189925Y-84572122D01*
X93195770Y-84597618D01*
X93199490Y-84624789D01*
X93201085Y-84653636D01*
X93201151Y-84661109D01*
X93200424Y-84687667D01*
X93198241Y-84712693D01*
X93193702Y-84740702D01*
X93187067Y-84766503D01*
X93178337Y-84790098D01*
X93171353Y-84804602D01*
X93157102Y-84827886D01*
X93140315Y-84848797D01*
X93120992Y-84867336D01*
X93099132Y-84883502D01*
X93085502Y-84891674D01*
X93059652Y-84903808D01*
X93035383Y-84911837D01*
X93009165Y-84917676D01*
X92980998Y-84921325D01*
X92956037Y-84922694D01*
X92945673Y-84922815D01*
X92919754Y-84922159D01*
X92895272Y-84920192D01*
X92867790Y-84916099D01*
X92842378Y-84910117D01*
X92819035Y-84902245D01*
X92804623Y-84895949D01*
X92781217Y-84882698D01*
X92759833Y-84866456D01*
X92740472Y-84847222D01*
X92723132Y-84824996D01*
X92714131Y-84810952D01*
X92702344Y-84788081D01*
X92692996Y-84763159D01*
X92686087Y-84736184D01*
X92681616Y-84707156D01*
X92679753Y-84681399D01*
X92679448Y-84665261D01*
X92835031Y-84665261D01*
X92836027Y-84691853D01*
X92839707Y-84719132D01*
X92847233Y-84745371D01*
X92859932Y-84768595D01*
X92863363Y-84772850D01*
X92883062Y-84790109D01*
X92906745Y-84800976D01*
X92931465Y-84805291D01*
X92940422Y-84805579D01*
X92966858Y-84803048D01*
X92992017Y-84794299D01*
X93012739Y-84779301D01*
X93018091Y-84773583D01*
X93031374Y-84751498D01*
X93039531Y-84725120D01*
X93043851Y-84696830D01*
X93045461Y-84668711D01*
X93045568Y-84658545D01*
X93044559Y-84633672D01*
X93040832Y-84607996D01*
X93033209Y-84583061D01*
X93020345Y-84560628D01*
X93016870Y-84556451D01*
X92996942Y-84539449D01*
X92973030Y-84528745D01*
X92948104Y-84524494D01*
X92939079Y-84524211D01*
X92914090Y-84526800D01*
X92889747Y-84535749D01*
X92869006Y-84551091D01*
X92863485Y-84556939D01*
X92849731Y-84578740D01*
X92841283Y-84603811D01*
X92836809Y-84630144D01*
X92835142Y-84655979D01*
X92835031Y-84665261D01*
X92679448Y-84665261D01*
X92680521Y-84635576D01*
X92683738Y-84607582D01*
X92689100Y-84581278D01*
X92696606Y-84556665D01*
X92706258Y-84533742D01*
X92721338Y-84507466D01*
X92739770Y-84483832D01*
X92748081Y-84475118D01*
X92770881Y-84455487D01*
X92796311Y-84439183D01*
X92818549Y-84428535D01*
X92842470Y-84420018D01*
X92868073Y-84413629D01*
X92895360Y-84409370D01*
X92924329Y-84407241D01*
X92939445Y-84406974D01*
X92969960Y-84408020D01*
G37*
G36*
X93552723Y-84408020D02*
G01*
X93581437Y-84411157D01*
X93608350Y-84416385D01*
X93633461Y-84423705D01*
X93656771Y-84433116D01*
X93683375Y-84447821D01*
X93707165Y-84465793D01*
X93715893Y-84473897D01*
X93735489Y-84496081D01*
X93751764Y-84520883D01*
X93764717Y-84548302D01*
X93772688Y-84572122D01*
X93778534Y-84597618D01*
X93782254Y-84624789D01*
X93783848Y-84653636D01*
X93783915Y-84661109D01*
X93783187Y-84687667D01*
X93781005Y-84712693D01*
X93776465Y-84740702D01*
X93769830Y-84766503D01*
X93761101Y-84790098D01*
X93754117Y-84804602D01*
X93739866Y-84827886D01*
X93723079Y-84848797D01*
X93703755Y-84867336D01*
X93681895Y-84883502D01*
X93668266Y-84891674D01*
X93642416Y-84903808D01*
X93618147Y-84911837D01*
X93591929Y-84917676D01*
X93563762Y-84921325D01*
X93538800Y-84922694D01*
X93528437Y-84922815D01*
X93502517Y-84922159D01*
X93478035Y-84920192D01*
X93450554Y-84916099D01*
X93425141Y-84910117D01*
X93401799Y-84902245D01*
X93387386Y-84895949D01*
X93363981Y-84882698D01*
X93342597Y-84866456D01*
X93323235Y-84847222D01*
X93305895Y-84824996D01*
X93296894Y-84810952D01*
X93285108Y-84788081D01*
X93275760Y-84763159D01*
X93268850Y-84736184D01*
X93264379Y-84707156D01*
X93262517Y-84681399D01*
X93262212Y-84665261D01*
X93417795Y-84665261D01*
X93418791Y-84691853D01*
X93422470Y-84719132D01*
X93429996Y-84745371D01*
X93442696Y-84768595D01*
X93446127Y-84772850D01*
X93465826Y-84790109D01*
X93489508Y-84800976D01*
X93514228Y-84805291D01*
X93523185Y-84805579D01*
X93549621Y-84803048D01*
X93574780Y-84794299D01*
X93595503Y-84779301D01*
X93600855Y-84773583D01*
X93614137Y-84751498D01*
X93622294Y-84725120D01*
X93626615Y-84696830D01*
X93628225Y-84668711D01*
X93628332Y-84658545D01*
X93627323Y-84633672D01*
X93623595Y-84607996D01*
X93615972Y-84583061D01*
X93603109Y-84560628D01*
X93599633Y-84556451D01*
X93579705Y-84539449D01*
X93555794Y-84528745D01*
X93530868Y-84524494D01*
X93521842Y-84524211D01*
X93496854Y-84526800D01*
X93472511Y-84535749D01*
X93451769Y-84551091D01*
X93446249Y-84556939D01*
X93432494Y-84578740D01*
X93424047Y-84603811D01*
X93419573Y-84630144D01*
X93417906Y-84655979D01*
X93417795Y-84665261D01*
X93262212Y-84665261D01*
X93263284Y-84635576D01*
X93266501Y-84607582D01*
X93271863Y-84581278D01*
X93279370Y-84556665D01*
X93289021Y-84533742D01*
X93304102Y-84507466D01*
X93322533Y-84483832D01*
X93330844Y-84475118D01*
X93353645Y-84455487D01*
X93379075Y-84439183D01*
X93401312Y-84428535D01*
X93425233Y-84420018D01*
X93450836Y-84413629D01*
X93478123Y-84409370D01*
X93507092Y-84407241D01*
X93522208Y-84406974D01*
X93552723Y-84408020D01*
G37*
G36*
X93811025Y-84414790D02*
G01*
X94284002Y-84414790D01*
X94284002Y-84532027D01*
X94125366Y-84532027D01*
X94125366Y-84915000D01*
X93969783Y-84915000D01*
X93969783Y-84532027D01*
X93811025Y-84532027D01*
X93811025Y-84414790D01*
G37*
D10*
G36*
X107274027Y-114303532D02*
G01*
X107323557Y-114316433D01*
X107365279Y-114335624D01*
X107406266Y-114363818D01*
X107440904Y-114398362D01*
X107466884Y-114435275D01*
X107486021Y-114480713D01*
X107497235Y-114529737D01*
X107500833Y-114553489D01*
X107507681Y-114606981D01*
X107513007Y-114657196D01*
X107515000Y-114692951D01*
X107515000Y-115230041D01*
X106514581Y-115230041D01*
X106514581Y-114778681D01*
X106717791Y-114778681D01*
X106717791Y-114916189D01*
X106889738Y-114916189D01*
X106889738Y-114780879D01*
X106888113Y-114758164D01*
X107077316Y-114758164D01*
X107077316Y-114916189D01*
X107280526Y-114916189D01*
X107280526Y-114757431D01*
X107277179Y-114707786D01*
X107263234Y-114660796D01*
X107252194Y-114644103D01*
X107211457Y-114616572D01*
X107175746Y-114611130D01*
X107127050Y-114623915D01*
X107104427Y-114643858D01*
X107084094Y-114688677D01*
X107077740Y-114738480D01*
X107077316Y-114758164D01*
X106888113Y-114758164D01*
X106886029Y-114729037D01*
X106868650Y-114681347D01*
X106867267Y-114679518D01*
X106824269Y-114653202D01*
X106801810Y-114650941D01*
X106753891Y-114665704D01*
X106740017Y-114679518D01*
X106722045Y-114724959D01*
X106717813Y-114774310D01*
X106717791Y-114778681D01*
X106514581Y-114778681D01*
X106514581Y-114647522D01*
X106517002Y-114595312D01*
X106525948Y-114540413D01*
X106541486Y-114491989D01*
X106567314Y-114444575D01*
X106583457Y-114424040D01*
X106619941Y-114389953D01*
X106665875Y-114363246D01*
X106716988Y-114348866D01*
X106753939Y-114346126D01*
X106804853Y-114351565D01*
X106851044Y-114367879D01*
X106892513Y-114395070D01*
X106900240Y-114401814D01*
X106932491Y-114440843D01*
X106954999Y-114484715D01*
X106964476Y-114510258D01*
X106980306Y-114459516D01*
X107003844Y-114411044D01*
X107033449Y-114371692D01*
X107056556Y-114350523D01*
X107100605Y-114323475D01*
X107151238Y-114306445D01*
X107202436Y-114299683D01*
X107220687Y-114299232D01*
X107274027Y-114303532D01*
G37*
G36*
X107515000Y-113496894D02*
G01*
X107343053Y-113546231D01*
X107343053Y-113900627D01*
X107515000Y-113949476D01*
X107515000Y-114267480D01*
X106514581Y-113889148D01*
X106514581Y-113722819D01*
X106770059Y-113722819D01*
X107124211Y-113833461D01*
X107124211Y-113611444D01*
X106770059Y-113722819D01*
X106514581Y-113722819D01*
X106514581Y-113549651D01*
X107515000Y-113171318D01*
X107515000Y-113496894D01*
G37*
G36*
X106514581Y-113244103D02*
G01*
X106514581Y-112298150D01*
X106749054Y-112298150D01*
X106749054Y-112615422D01*
X107515000Y-112615422D01*
X107515000Y-112926587D01*
X106749054Y-112926587D01*
X106749054Y-113244103D01*
X106514581Y-113244103D01*
G37*
D12*
X104114286Y-110951500D02*
X104685715Y-110951500D01*
X104400000Y-111237214D02*
X104400000Y-110665785D01*
X103114286Y-110951500D02*
X103685715Y-110951500D01*
D10*
G36*
X108165983Y-112892024D02*
G01*
X108497909Y-112892024D01*
X108613924Y-113096700D01*
X108748502Y-112892024D01*
X109056981Y-112892024D01*
X108808341Y-113242024D01*
X109074810Y-113626707D01*
X108748502Y-113626707D01*
X108613924Y-113390035D01*
X108455166Y-113626707D01*
X108152305Y-113626707D01*
X108417553Y-113242024D01*
X108165983Y-112892024D01*
G37*
G36*
X105687232Y-110192024D02*
G01*
X105982522Y-110192024D01*
X106132975Y-110681242D01*
X106272438Y-110192024D01*
X106547944Y-110192024D01*
X106258760Y-110977021D01*
X106240107Y-111024073D01*
X106218193Y-111071261D01*
X106192948Y-111115030D01*
X106161092Y-111154500D01*
X106157888Y-111157516D01*
X106116626Y-111186474D01*
X106065869Y-111207158D01*
X106013668Y-111218470D01*
X105963139Y-111223124D01*
X105935871Y-111223706D01*
X105886574Y-111221801D01*
X105834606Y-111217409D01*
X105779621Y-111211364D01*
X105749025Y-111207586D01*
X105727043Y-111015855D01*
X105778358Y-111028981D01*
X105829803Y-111035157D01*
X105861621Y-111036127D01*
X105911372Y-111028863D01*
X105941733Y-111013168D01*
X105974716Y-110973075D01*
X105993512Y-110930859D01*
X105687232Y-110192024D01*
G37*
D13*
%TO.C,D201*%
X105315000Y-86065000D02*
X105315000Y-87535000D01*
X105315000Y-87535000D02*
X107600000Y-87535000D01*
X107600000Y-86065000D02*
X105315000Y-86065000D01*
%TO.C,C306*%
X91807836Y-106830000D02*
X91592164Y-106830000D01*
X91807836Y-107550000D02*
X91592164Y-107550000D01*
%TO.C,C313*%
X84307836Y-99540000D02*
X84092164Y-99540000D01*
X84307836Y-100260000D02*
X84092164Y-100260000D01*
%TO.C,J701*%
X93990000Y-112515000D02*
X95040000Y-112515000D01*
X93990000Y-115015000D02*
X93990000Y-112515000D01*
X95040000Y-112515000D02*
X95040000Y-111525000D01*
X95160000Y-116985000D02*
X99040000Y-116985000D01*
X100210000Y-112515000D02*
X99160000Y-112515000D01*
X100210000Y-115015000D02*
X100210000Y-112515000D01*
%TO.C,C304*%
X88840000Y-95007836D02*
X88840000Y-94792164D01*
X89560000Y-95007836D02*
X89560000Y-94792164D01*
%TO.C,C301*%
X88159420Y-92690000D02*
X88440580Y-92690000D01*
X88159420Y-93710000D02*
X88440580Y-93710000D01*
%TO.C,R304*%
X86253641Y-99520000D02*
X85946359Y-99520000D01*
X86253641Y-100280000D02*
X85946359Y-100280000D01*
%TO.C,D301*%
X105315000Y-90565000D02*
X105315000Y-92035000D01*
X105315000Y-92035000D02*
X107600000Y-92035000D01*
X107600000Y-90565000D02*
X105315000Y-90565000D01*
%TO.C,D203*%
X105315000Y-87565000D02*
X105315000Y-89035000D01*
X105315000Y-89035000D02*
X107600000Y-89035000D01*
X107600000Y-87565000D02*
X105315000Y-87565000D01*
%TO.C,C311*%
X85207836Y-94840000D02*
X84992164Y-94840000D01*
X85207836Y-95560000D02*
X84992164Y-95560000D01*
%TO.C,C307*%
X99992164Y-105430000D02*
X100207836Y-105430000D01*
X99992164Y-106150000D02*
X100207836Y-106150000D01*
%TO.C,R303*%
X93446359Y-87620000D02*
X93753641Y-87620000D01*
X93446359Y-88380000D02*
X93753641Y-88380000D01*
%TO.C,JP301*%
X91400000Y-86500000D02*
X91400000Y-85900000D01*
X92100000Y-85200000D02*
X93500000Y-85200000D01*
X93500000Y-87200000D02*
X92100000Y-87200000D01*
X94200000Y-85900000D02*
X94200000Y-86500000D01*
X91400000Y-85900000D02*
G75*
G02*
X92100000Y-85200000I700000J0D01*
G01*
X92100000Y-87200000D02*
G75*
G02*
X91400000Y-86500000I0J700000D01*
G01*
X93500000Y-85200000D02*
G75*
G02*
X94200000Y-85900000I1J-699999D01*
G01*
X94200000Y-86500000D02*
G75*
G02*
X93500000Y-87200000I-699999J-1D01*
G01*
%TO.C,U301*%
X89890000Y-94890000D02*
X89890000Y-95840000D01*
X89890000Y-95840000D02*
X88550000Y-95840000D01*
X89890000Y-105110000D02*
X89890000Y-104160000D01*
X90840000Y-94890000D02*
X89890000Y-94890000D01*
X90840000Y-105110000D02*
X89890000Y-105110000D01*
X99160000Y-94890000D02*
X100110000Y-94890000D01*
X99160000Y-105110000D02*
X100110000Y-105110000D01*
X100110000Y-94890000D02*
X100110000Y-95840000D01*
X100110000Y-105110000D02*
X100110000Y-104160000D01*
%TO.C,C312*%
X88640000Y-105092164D02*
X88640000Y-105307836D01*
X89360000Y-105092164D02*
X89360000Y-105307836D01*
%TO.C,J201*%
X101790000Y-112515000D02*
X102840000Y-112515000D01*
X101790000Y-115015000D02*
X101790000Y-112515000D01*
X102840000Y-112515000D02*
X102840000Y-111525000D01*
X102960000Y-116985000D02*
X104840000Y-116985000D01*
X106010000Y-112515000D02*
X104960000Y-112515000D01*
X106010000Y-115015000D02*
X106010000Y-112515000D01*
%TO.C,R301*%
X105553641Y-92220000D02*
X105246359Y-92220000D01*
X105553641Y-92980000D02*
X105246359Y-92980000D01*
%TO.C,R601*%
X91820000Y-109246359D02*
X91820000Y-109553641D01*
X92580000Y-109246359D02*
X92580000Y-109553641D01*
%TO.C,U401*%
X98440000Y-90400000D02*
X98440000Y-89600000D01*
X98440000Y-90400000D02*
X98440000Y-92200000D01*
X101560000Y-90400000D02*
X101560000Y-89600000D01*
X101560000Y-90400000D02*
X101560000Y-91200000D01*
%TO.C,R302*%
X94253641Y-92220000D02*
X93946359Y-92220000D01*
X94253641Y-92980000D02*
X93946359Y-92980000D01*
%TO.C,C401*%
X102592164Y-89440000D02*
X102807836Y-89440000D01*
X102592164Y-90160000D02*
X102807836Y-90160000D01*
%TO.C,J301*%
X86770000Y-105770000D02*
X86770000Y-106405000D01*
X86770000Y-106405000D02*
X86135000Y-106405000D01*
%TO.C,JP701*%
X90800000Y-114200000D02*
X90800000Y-112800000D01*
X91500000Y-112100000D02*
X92100000Y-112100000D01*
X92100000Y-114900000D02*
X91500000Y-114900000D01*
X92800000Y-112800000D02*
X92800000Y-114200000D01*
X90800000Y-112800000D02*
G75*
G02*
X91500000Y-112100000I699999J1D01*
G01*
X91500000Y-114900000D02*
G75*
G02*
X90800000Y-114200000I0J700000D01*
G01*
X92100000Y-112100000D02*
G75*
G02*
X92800000Y-112800000I1J-699999D01*
G01*
X92800000Y-114200000D02*
G75*
G02*
X92100000Y-114900000I-700000J0D01*
G01*
%TO.C,SW301*%
X91630000Y-88730000D02*
X95770000Y-88730000D01*
X91630000Y-89030000D02*
X91630000Y-88730000D01*
X91630000Y-91870000D02*
X91630000Y-91570000D01*
X95770000Y-88730000D02*
X95770000Y-89030000D01*
X95770000Y-91570000D02*
X95770000Y-91870000D01*
X95770000Y-91870000D02*
X91630000Y-91870000D01*
%TO.C,R603*%
X108253641Y-107220000D02*
X107946359Y-107220000D01*
X108253641Y-107980000D02*
X107946359Y-107980000D01*
%TO.C,Y301*%
X87100000Y-95950000D02*
X83100000Y-95950000D01*
X87100000Y-99250000D02*
X87100000Y-95950000D01*
%TO.C,C302*%
X89940000Y-93907836D02*
X89940000Y-93692164D01*
X90660000Y-93907836D02*
X90660000Y-93692164D01*
%TO.C,J401*%
X95500000Y-82800000D02*
X95500000Y-86800000D01*
X95500000Y-82800000D02*
X104500000Y-82800000D01*
X95500000Y-86800000D02*
X96500000Y-87800000D01*
X103500000Y-87800000D02*
X96500000Y-87800000D01*
X104500000Y-82800000D02*
X104500000Y-86800000D01*
X104500000Y-86800000D02*
X103500000Y-87800000D01*
%TO.C,J501*%
X102215000Y-93565000D02*
X104025000Y-93565000D01*
X102215000Y-93675000D02*
X102215000Y-93565000D01*
X102215000Y-106435000D02*
X102215000Y-95175000D01*
X103375000Y-106435000D02*
X102215000Y-106435000D01*
X105925000Y-93565000D02*
X112225000Y-93565000D01*
X106625000Y-106435000D02*
X112225000Y-106435000D01*
%TO.C,D202*%
X105315000Y-89065000D02*
X105315000Y-90535000D01*
X105315000Y-90535000D02*
X107600000Y-90535000D01*
X107600000Y-89065000D02*
X105315000Y-89065000D01*
%TD*%
%LPC*%
D14*
%TO.C,D201*%
X106012500Y-86800000D03*
X107587500Y-86800000D03*
%TD*%
D15*
%TO.C,C306*%
X92180000Y-107190000D03*
X91220000Y-107190000D03*
%TD*%
%TO.C,C313*%
X84680000Y-99900000D03*
X83720000Y-99900000D03*
%TD*%
D16*
%TO.C,J701*%
X95600000Y-112300000D03*
X96600000Y-112300000D03*
X97600000Y-112300000D03*
X98600000Y-112300000D03*
D17*
X94300000Y-116175000D03*
X99900000Y-116175000D03*
%TD*%
D18*
%TO.C,C304*%
X89200000Y-95380000D03*
X89200000Y-94420000D03*
%TD*%
D19*
%TO.C,D401*%
X102215000Y-88800000D03*
X103185000Y-88800000D03*
%TD*%
D20*
%TO.C,C301*%
X87525000Y-93200000D03*
X89075000Y-93200000D03*
%TD*%
D21*
%TO.C,R304*%
X86610000Y-99900000D03*
X85590000Y-99900000D03*
%TD*%
D14*
%TO.C,D301*%
X106012500Y-91300000D03*
X107587500Y-91300000D03*
%TD*%
%TO.C,D203*%
X106012500Y-88300000D03*
X107587500Y-88300000D03*
%TD*%
D15*
%TO.C,C311*%
X85580000Y-95200000D03*
X84620000Y-95200000D03*
%TD*%
D22*
%TO.C,C307*%
X99620000Y-105790000D03*
X100580000Y-105790000D03*
%TD*%
D23*
%TO.C,D302*%
X88000000Y-106615000D03*
X88000000Y-107585000D03*
%TD*%
D24*
%TO.C,SW201*%
X96350000Y-107600000D03*
X99350000Y-107600000D03*
X100850000Y-107600000D03*
D25*
X94950000Y-108300000D03*
X94950000Y-110500000D03*
X102250000Y-108300000D03*
X102250000Y-110500000D03*
%TD*%
D26*
%TO.C,R303*%
X93090000Y-88000000D03*
X94110000Y-88000000D03*
%TD*%
D27*
%TO.C,JP301*%
X93450000Y-86200000D03*
D28*
X92150000Y-86200000D03*
%TD*%
D29*
%TO.C,U301*%
X89325000Y-96250000D03*
X89325000Y-96750000D03*
X89325000Y-97250000D03*
X89325000Y-97750000D03*
X89325000Y-98250000D03*
X89325000Y-98750000D03*
X89325000Y-99250000D03*
X89325000Y-99750000D03*
X89325000Y-100250000D03*
X89325000Y-100750000D03*
X89325000Y-101250000D03*
X89325000Y-101750000D03*
X89325000Y-102250000D03*
X89325000Y-102750000D03*
X89325000Y-103250000D03*
X89325000Y-103750000D03*
D30*
X91250000Y-105675000D03*
X91750000Y-105675000D03*
X92250000Y-105675000D03*
X92750000Y-105675000D03*
X93250000Y-105675000D03*
X93750000Y-105675000D03*
X94250000Y-105675000D03*
X94750000Y-105675000D03*
X95250000Y-105675000D03*
X95750000Y-105675000D03*
X96250000Y-105675000D03*
X96750000Y-105675000D03*
X97250000Y-105675000D03*
X97750000Y-105675000D03*
X98250000Y-105675000D03*
X98750000Y-105675000D03*
D29*
X100675000Y-103750000D03*
X100675000Y-103250000D03*
X100675000Y-102750000D03*
X100675000Y-102250000D03*
X100675000Y-101750000D03*
X100675000Y-101250000D03*
X100675000Y-100750000D03*
X100675000Y-100250000D03*
X100675000Y-99750000D03*
X100675000Y-99250000D03*
X100675000Y-98750000D03*
X100675000Y-98250000D03*
X100675000Y-97750000D03*
X100675000Y-97250000D03*
X100675000Y-96750000D03*
X100675000Y-96250000D03*
D30*
X98750000Y-94325000D03*
X98250000Y-94325000D03*
X97750000Y-94325000D03*
X97250000Y-94325000D03*
X96750000Y-94325000D03*
X96250000Y-94325000D03*
X95750000Y-94325000D03*
X95250000Y-94325000D03*
X94750000Y-94325000D03*
X94250000Y-94325000D03*
X93750000Y-94325000D03*
X93250000Y-94325000D03*
X92750000Y-94325000D03*
X92250000Y-94325000D03*
X91750000Y-94325000D03*
X91250000Y-94325000D03*
%TD*%
D31*
%TO.C,C312*%
X89000000Y-104720000D03*
X89000000Y-105680000D03*
%TD*%
D16*
%TO.C,J201*%
X103400000Y-112300000D03*
X104400000Y-112300000D03*
D17*
X102100000Y-116175000D03*
X105700000Y-116175000D03*
%TD*%
D21*
%TO.C,R301*%
X105910000Y-92600000D03*
X104890000Y-92600000D03*
%TD*%
D32*
%TO.C,H703*%
X88500000Y-88500000D03*
%TD*%
%TO.C,H702*%
X111500000Y-88500000D03*
%TD*%
D33*
%TO.C,R601*%
X92200000Y-108890000D03*
X92200000Y-109910000D03*
%TD*%
D34*
%TO.C,N702*%
X81850000Y-100000000D03*
%TD*%
D35*
%TO.C,N701*%
X118150000Y-100000000D03*
%TD*%
D36*
%TO.C,U401*%
X99050000Y-91537500D03*
X100000000Y-91537500D03*
X100950000Y-91537500D03*
X100950000Y-89262500D03*
X100000000Y-89262500D03*
X99050000Y-89262500D03*
%TD*%
D21*
%TO.C,R302*%
X94610000Y-92600000D03*
X93590000Y-92600000D03*
%TD*%
D32*
%TO.C,H701*%
X111500000Y-111500000D03*
%TD*%
D22*
%TO.C,C401*%
X102220000Y-89800000D03*
X103180000Y-89800000D03*
%TD*%
D37*
%TO.C,J301*%
X85500000Y-107040000D03*
X84484000Y-101960000D03*
X86516000Y-101960000D03*
D38*
X86135000Y-105770000D03*
X84865000Y-105770000D03*
X86135000Y-104500000D03*
X84865000Y-104500000D03*
X86135000Y-103230000D03*
X84865000Y-103230000D03*
%TD*%
D39*
%TO.C,JP701*%
X91800000Y-112850000D03*
D40*
X91800000Y-114150000D03*
%TD*%
D41*
%TO.C,SW301*%
X95800000Y-90300000D03*
X91600000Y-90300000D03*
%TD*%
D21*
%TO.C,R603*%
X108610000Y-107600000D03*
X107590000Y-107600000D03*
%TD*%
D42*
%TO.C,Y301*%
X86200000Y-96750000D03*
X84000000Y-96750000D03*
X84000000Y-98450000D03*
X86200000Y-98450000D03*
%TD*%
D18*
%TO.C,C302*%
X90300000Y-94280000D03*
X90300000Y-93320000D03*
%TD*%
D43*
%TO.C,J401*%
X101300000Y-86800000D03*
D44*
X100650000Y-86800000D03*
X100000000Y-86800000D03*
X99350000Y-86800000D03*
X98700000Y-86800000D03*
D45*
X96400000Y-84175000D03*
D46*
X97575000Y-86800000D03*
D47*
X99025000Y-84125000D03*
X100800000Y-84125000D03*
D46*
X102425000Y-86800000D03*
D45*
X103600000Y-84175000D03*
%TD*%
D48*
%TO.C,J501*%
X113350000Y-96825000D03*
X113350000Y-97925000D03*
X113350000Y-99025000D03*
X113350000Y-100125000D03*
X113350000Y-101225000D03*
X113350000Y-102325000D03*
X113350000Y-103425000D03*
X113350000Y-104525000D03*
D49*
X104125000Y-105650000D03*
D50*
X102550000Y-94425000D03*
D51*
X105625000Y-105975000D03*
D52*
X113225000Y-105725000D03*
D53*
X113225000Y-94375000D03*
D54*
X104975000Y-94025000D03*
%TD*%
D23*
%TO.C,D303*%
X88000000Y-104715000D03*
X88000000Y-105685000D03*
%TD*%
D14*
%TO.C,D202*%
X106012500Y-89800000D03*
X107587500Y-89800000D03*
%TD*%
D32*
%TO.C,H704*%
X88500000Y-111500000D03*
%TD*%
%LPD*%
M02*
